<?xml version="1.0" encoding="UTF-8" standalone="no"?>
<!DOCTYPE svg PUBLIC "-//W3C//DTD SVG 1.1//EN" "http://www.w3.org/Graphics/SVG/1.1/DTD/svg11.dtd">
<svg version="1.1" xmlns="http://www.w3.org/2000/svg" xmlns:xlink="http://www.w3.org/1999/xlink" preserveAspectRatio="xMidYMid meet" viewBox="0 0 320 320" width="320" height="320"><defs><path d="M236.31 126.03C233.32 126.03 209.46 126.03 206.47 126.03C204.37 126.03 202.67 124.15 202.67 121.84C202.67 119.03 202.67 96.64 202.67 93.86C202.67 91.53 204.37 89.65 206.47 89.65C209.46 89.65 233.32 89.65 236.31 89.65C238.41 89.65 240.11 91.53 240.11 93.86C240.11 99.45 240.11 119.03 240.11 121.84C240.11 124.15 238.41 126.03 236.31 126.03Z" id="b26lyAt0bM"></path><path d="M236.31 126.03C233.32 126.03 209.46 126.03 206.47 126.03C204.37 126.03 202.67 124.15 202.67 121.84C202.67 119.03 202.67 96.64 202.67 93.86C202.67 91.53 204.37 89.65 206.47 89.65C209.46 89.65 233.32 89.65 236.31 89.65C238.41 89.65 240.11 91.53 240.11 93.86C240.11 99.45 240.11 119.03 240.11 121.84C240.11 124.15 238.41 126.03 236.31 126.03Z" id="a44F9gnLt"></path><path d="M30 93.84C30 96.64 30 119.03 30 121.82C30 124.15 31.7 126.03 33.8 126.03C35.25 126.03 46.74 126.03 48.19 126.03C50.29 126.03 51.99 124.15 51.99 121.82C51.99 119.03 51.99 96.64 51.99 93.84C51.99 91.53 50.29 89.65 48.19 89.65C45.31 89.65 35.25 89.65 33.8 89.65C31.7 89.65 30 91.53 30 93.84Z" id="h1KidWB3EH"></path><path d="M30 93.84C30 96.64 30 119.03 30 121.82C30 124.15 31.7 126.03 33.8 126.03C35.25 126.03 46.74 126.03 48.19 126.03C50.29 126.03 51.99 124.15 51.99 121.82C51.99 119.03 51.99 96.64 51.99 93.84C51.99 91.53 50.29 89.65 48.19 89.65C45.31 89.65 35.25 89.65 33.8 89.65C31.7 89.65 30 91.53 30 93.84Z" id="b1xqZT1oAF"></path><path d="M286.2 126.03C284.75 126.03 273.26 126.03 271.83 126.03C269.73 126.03 268.02 124.15 268.02 121.84C268.02 119.03 268.02 96.64 268.02 93.84C268.02 91.53 269.73 89.65 271.83 89.65C273.26 89.65 284.75 89.65 286.2 89.65C288.3 89.65 290 91.53 290 93.84C290 99.45 290 119.03 290 121.84C290 124.15 288.3 126.03 286.2 126.03Z" id="a2FjK0Jg5I"></path><path d="M286.2 126.03C284.75 126.03 273.26 126.03 271.83 126.03C269.73 126.03 268.02 124.15 268.02 121.84C268.02 119.03 268.02 96.64 268.02 93.84C268.02 91.53 269.73 89.65 271.83 89.65C273.26 89.65 284.75 89.65 286.2 89.65C288.3 89.65 290 91.53 290 93.84C290 99.45 290 119.03 290 121.84C290 124.15 288.3 126.03 286.2 126.03Z" id="amiuO4ABD"></path><path d="M286.2 126.03C284.75 126.03 273.26 126.03 271.83 126.03C269.73 126.03 268.02 124.15 268.02 121.84C268.02 120.48 268.02 109.61 268.02 108.25C268.02 110.57 269.73 112.44 271.83 112.44C273.26 112.44 284.75 112.44 286.2 112.44C288.3 112.44 290 110.57 290 108.25C290 110.97 290 120.48 290 121.84C290 124.15 288.3 126.03 286.2 126.03Z" id="anfz68cnG"></path><path d="M286.2 126.03C284.75 126.03 273.26 126.03 271.83 126.03C269.73 126.03 268.02 124.15 268.02 121.84C268.02 120.48 268.02 109.61 268.02 108.25C268.02 110.57 269.73 112.44 271.83 112.44C273.26 112.44 284.75 112.44 286.2 112.44C288.3 112.44 290 110.57 290 108.25C290 110.97 290 120.48 290 121.84C290 124.15 288.3 126.03 286.2 126.03Z" id="d3HAfCpSbl"></path><path d="M48.17 126.03C46.74 126.03 35.25 126.03 33.8 126.03C31.7 126.03 30 124.15 30 121.82C30 120.46 30 109.6 30 108.24C30 110.57 31.7 112.44 33.8 112.44C35.25 112.44 46.74 112.44 48.17 112.44C50.29 112.44 51.99 110.57 51.99 108.24C51.99 110.96 51.99 120.46 51.99 121.82C51.99 124.15 50.29 126.03 48.17 126.03Z" id="a3rhrvHMBw"></path><path d="M48.17 126.03C46.74 126.03 35.25 126.03 33.8 126.03C31.7 126.03 30 124.15 30 121.82C30 120.46 30 109.6 30 108.24C30 110.57 31.7 112.44 33.8 112.44C35.25 112.44 46.74 112.44 48.17 112.44C50.29 112.44 51.99 110.57 51.99 108.24C51.99 110.96 51.99 120.46 51.99 121.82C51.99 124.15 50.29 126.03 48.17 126.03Z" id="c1yMjV3Q8"></path><path d="M236.31 126.03C233.32 126.03 209.46 126.03 206.47 126.03C204.37 126.03 202.67 124.15 202.67 121.84C202.67 121.21 202.67 118.08 202.67 112.44C206.41 112.44 236.37 112.44 240.11 112.44C240.11 118.08 240.11 121.21 240.11 121.84C240.11 124.15 238.41 126.03 236.31 126.03Z" id="b45D18twE"></path><path d="M236.31 126.03C233.32 126.03 209.46 126.03 206.47 126.03C204.37 126.03 202.67 124.15 202.67 121.84C202.67 121.21 202.67 118.08 202.67 112.44C206.41 112.44 236.37 112.44 240.11 112.44C240.11 118.08 240.11 121.21 240.11 121.84C240.11 124.15 238.41 126.03 236.31 126.03Z" id="bgzUHbpL3"></path><path d="M61.7 152.01C59.87 154.04 57.32 155.28 54.52 155.28C52.68 155.28 50.95 154.74 49.45 153.78C46.41 151.86 44.37 148.25 44.37 144.1C44.37 136.85 44.37 78.83 44.37 71.58C44.37 67.43 46.41 63.82 49.45 61.89C50.95 60.94 52.68 60.4 54.52 60.4C60.13 60.4 64.67 65.4 64.67 71.58C64.67 86.08 64.67 136.85 64.67 144.1C64.67 147.19 63.54 149.99 61.7 152.01Z" id="a6OA6aHTRB"></path><path d="M61.7 152.01C59.87 154.04 57.32 155.28 54.52 155.28C52.68 155.28 50.95 154.74 49.45 153.78C46.41 151.86 44.37 148.25 44.37 144.1C44.37 136.85 44.37 78.83 44.37 71.58C44.37 67.43 46.41 63.82 49.45 61.89C50.95 60.94 52.68 60.4 54.52 60.4C60.13 60.4 64.67 65.4 64.67 71.58C64.67 86.08 64.67 136.85 64.67 144.1C64.67 147.19 63.54 149.99 61.7 152.01Z" id="alzc4an9O"></path><path d="M61.7 152.01C59.87 154.04 57.32 155.28 54.52 155.28C52.68 155.28 50.95 154.74 49.45 153.78C50.22 153.29 50.93 152.69 51.55 152.01C53.39 149.99 54.52 147.19 54.52 144.1C54.52 136.85 54.52 78.83 54.52 71.58C54.52 67.43 52.48 63.82 49.45 61.89C50.95 60.93 52.68 60.4 54.52 60.4C60.13 60.4 64.67 65.39 64.67 71.58C64.67 86.08 64.67 136.85 64.67 144.1C64.67 147.19 63.54 149.99 61.7 152.01Z" id="a3Pm3yiU"></path><path d="M61.7 152.01C59.87 154.04 57.32 155.28 54.52 155.28C52.68 155.28 50.95 154.74 49.45 153.78C50.22 153.29 50.93 152.69 51.55 152.01C53.39 149.99 54.52 147.19 54.52 144.1C54.52 136.85 54.52 78.83 54.52 71.58C54.52 67.43 52.48 63.82 49.45 61.89C50.95 60.93 52.68 60.4 54.52 60.4C60.13 60.4 64.67 65.39 64.67 71.58C64.67 86.08 64.67 136.85 64.67 144.1C64.67 147.19 63.54 149.99 61.7 152.01Z" id="cdZV3FrmD"></path><path d="M272.68 152.01C270.85 154.04 268.31 155.28 265.51 155.28C263.66 155.28 261.93 154.74 260.43 153.78C257.4 151.86 255.36 148.25 255.36 144.1C255.36 136.85 255.36 78.83 255.36 71.58C255.36 67.43 257.4 63.82 260.43 61.89C261.93 60.93 263.66 60.38 265.51 60.38C271.11 60.38 275.66 65.39 275.66 71.58C275.66 86.08 275.66 136.85 275.66 144.1C275.66 147.19 274.53 149.99 272.68 152.01Z" id="a6d21vOg7"></path><path d="M272.68 152.01C270.85 154.04 268.31 155.28 265.51 155.28C263.66 155.28 261.93 154.74 260.43 153.78C257.4 151.86 255.36 148.25 255.36 144.1C255.36 136.85 255.36 78.83 255.36 71.58C255.36 67.43 257.4 63.82 260.43 61.89C261.93 60.93 263.66 60.38 265.51 60.38C271.11 60.38 275.66 65.39 275.66 71.58C275.66 86.08 275.66 136.85 275.66 144.1C275.66 147.19 274.53 149.99 272.68 152.01Z" id="j1AbxGe0Do"></path><path d="M272.68 152.01C270.85 154.04 268.31 155.28 265.51 155.28C263.66 155.28 261.93 154.74 260.43 153.78C261.2 153.29 261.92 152.69 262.53 152.01C264.38 149.99 265.51 147.19 265.51 144.1C265.51 136.85 265.51 78.83 265.51 71.58C265.51 67.43 263.46 63.82 260.43 61.89C261.93 60.93 263.66 60.38 265.51 60.38C271.11 60.38 275.66 65.39 275.66 71.58C275.66 86.08 275.66 136.85 275.66 144.1C275.66 147.19 274.53 149.99 272.68 152.01Z" id="b294PT8Pi"></path><path d="M272.68 152.01C270.85 154.04 268.31 155.28 265.51 155.28C263.66 155.28 261.93 154.74 260.43 153.78C261.2 153.29 261.92 152.69 262.53 152.01C264.38 149.99 265.51 147.19 265.51 144.1C265.51 136.85 265.51 78.83 265.51 71.58C265.51 67.43 263.46 63.82 260.43 61.89C261.93 60.93 263.66 60.38 265.51 60.38C271.11 60.38 275.66 65.39 275.66 71.58C275.66 86.08 275.66 136.85 275.66 144.1C275.66 147.19 274.53 149.99 272.68 152.01Z" id="eqefAN8KC"></path><path d="M209.49 124.4C208.16 126.28 201.52 135.79 189.57 152.88C193.13 193.86 195.1 216.62 195.49 221.18C195.6 222.35 195.25 223.52 194.52 224.4C193.8 225.27 192.77 225.77 191.7 225.77C185.37 225.77 134.65 225.77 128.3 225.77C127.23 225.77 126.21 225.27 125.48 224.4C124.77 223.52 124.41 222.35 124.51 221.18C124.58 220.35 124.94 216.19 125.6 208.71C125.61 208.56 125.67 207.82 125.78 206.48C128.54 174.71 130.07 157.06 130.37 153.54C118.89 143.77 112.5 138.34 111.23 137.25C110.3 136.45 109.74 135.23 109.74 133.93C109.74 128.27 109.74 82.98 109.74 77.31C109.74 75 111.46 73.11 113.56 73.11C121.38 73.11 183.96 73.11 191.8 73.11C201.98 73.11 210.29 82.25 210.29 93.48C210.29 99.15 210.29 118.99 210.29 121.84C210.29 122.75 210 123.65 209.49 124.4Z" id="b6KDQtzVu"></path><path d="M209.49 124.4C208.16 126.28 201.52 135.79 189.57 152.88C193.13 193.86 195.1 216.62 195.49 221.18C195.6 222.35 195.25 223.52 194.52 224.4C193.8 225.27 192.77 225.77 191.7 225.77C185.37 225.77 134.65 225.77 128.3 225.77C127.23 225.77 126.21 225.27 125.48 224.4C124.77 223.52 124.41 222.35 124.51 221.18C124.58 220.35 124.94 216.19 125.6 208.71C125.61 208.56 125.67 207.82 125.78 206.48C128.54 174.71 130.07 157.06 130.37 153.54C118.89 143.77 112.5 138.34 111.23 137.25C110.3 136.45 109.74 135.23 109.74 133.93C109.74 128.27 109.74 82.98 109.74 77.31C109.74 75 111.46 73.11 113.56 73.11C121.38 73.11 183.96 73.11 191.8 73.11C201.98 73.11 210.29 82.25 210.29 93.48C210.29 99.15 210.29 118.99 210.29 121.84C210.29 122.75 210 123.65 209.49 124.4Z" id="aLgxIbYJ"></path><path d="M209.49 124.4C208.16 126.28 201.52 135.79 189.57 152.88C193.13 193.86 195.1 216.62 195.49 221.18C195.59 222.35 195.25 223.52 194.52 224.4C193.8 225.27 192.77 225.77 191.7 225.77C185.37 225.77 134.65 225.77 128.3 225.77C127.23 225.77 126.21 225.27 125.48 224.4C124.77 223.52 124.41 222.35 124.51 221.18C124.58 220.35 124.94 216.19 125.6 208.71C125.62 208.49 125.77 206.7 125.78 206.48C157.11 206.48 174.51 206.48 177.99 206.48C179.06 206.48 180.09 205.98 180.8 205.11C181.53 204.22 181.89 203.06 181.78 201.88C181.52 198.6 180.23 182.17 177.89 152.62C191.06 133.5 198.38 122.89 199.84 120.76C200.35 120.04 200.64 119.13 200.64 118.21C200.64 115.37 200.64 92.7 200.64 89.85C200.64 82.92 194.43 76.78 189.61 73.11C189.83 73.11 191.57 73.11 191.79 73.11C201.98 73.11 210.29 82.25 210.29 93.48C210.29 99.15 210.29 118.99 210.29 121.84C210.29 122.75 210 123.65 209.49 124.4Z" id="aETkJLiYW"></path><path d="M209.49 124.4C208.16 126.28 201.52 135.79 189.57 152.88C193.13 193.86 195.1 216.62 195.49 221.18C195.59 222.35 195.25 223.52 194.52 224.4C193.8 225.27 192.77 225.77 191.7 225.77C185.37 225.77 134.65 225.77 128.3 225.77C127.23 225.77 126.21 225.27 125.48 224.4C124.77 223.52 124.41 222.35 124.51 221.18C124.58 220.35 124.94 216.19 125.6 208.71C125.62 208.49 125.77 206.7 125.78 206.48C157.11 206.48 174.51 206.48 177.99 206.48C179.06 206.48 180.09 205.98 180.8 205.11C181.53 204.22 181.89 203.06 181.78 201.88C181.52 198.6 180.23 182.17 177.89 152.62C191.06 133.5 198.38 122.89 199.84 120.76C200.35 120.04 200.64 119.13 200.64 118.21C200.64 115.37 200.64 92.7 200.64 89.85C200.64 82.92 194.43 76.78 189.61 73.11C189.83 73.11 191.57 73.11 191.79 73.11C201.98 73.11 210.29 82.25 210.29 93.48C210.29 99.15 210.29 118.99 210.29 121.84C210.29 122.75 210 123.65 209.49 124.4Z" id="e2UXAL56DS"></path><path d="M188.78 111.24C188.74 111.33 188.5 111.73 188.07 112.44C183.92 119.45 181.62 123.34 181.16 124.12C180.46 125.31 179.26 126.03 177.97 126.03C168.55 126.03 93.13 126.03 83.7 126.03C81.6 126.03 79.89 124.15 79.89 121.84C79.89 119.03 79.89 96.64 79.89 93.86C79.89 92.73 80.3 91.65 81.03 90.85C81.75 90.07 82.73 89.64 83.75 89.65C93.94 89.65 175.44 89.65 185.64 89.65C187.72 89.68 189.41 91.55 189.41 93.86C189.41 96.87 189.41 107.45 189.41 108.95C189.41 109.77 189.2 110.57 188.78 111.24Z" id="dgCV9RI8j"></path><path d="M188.78 111.24C188.74 111.33 188.5 111.73 188.07 112.44C183.92 119.45 181.62 123.34 181.16 124.12C180.46 125.31 179.26 126.03 177.97 126.03C168.55 126.03 93.13 126.03 83.7 126.03C81.6 126.03 79.89 124.15 79.89 121.84C79.89 119.03 79.89 96.64 79.89 93.86C79.89 92.73 80.3 91.65 81.03 90.85C81.75 90.07 82.73 89.64 83.75 89.65C93.94 89.65 175.44 89.65 185.64 89.65C187.72 89.68 189.41 91.55 189.41 93.86C189.41 96.87 189.41 107.45 189.41 108.95C189.41 109.77 189.2 110.57 188.78 111.24Z" id="a62K7ZhppX"></path><path d="M181.16 124.12C180.46 125.31 179.26 126.03 177.97 126.03C168.55 126.03 93.13 126.03 83.7 126.03C81.6 126.03 79.89 124.15 79.89 121.84C79.89 121.21 79.89 118.08 79.89 112.44C87.1 112.44 123.16 112.44 188.07 112.44C183.77 119.71 181.47 123.6 181.16 124.12Z" id="aTdZripyg"></path><path d="M181.16 124.12C180.46 125.31 179.26 126.03 177.97 126.03C168.55 126.03 93.13 126.03 83.7 126.03C81.6 126.03 79.89 124.15 79.89 121.84C79.89 121.21 79.89 118.08 79.89 112.44C87.1 112.44 123.16 112.44 188.07 112.44C183.77 119.71 181.47 123.6 181.16 124.12Z" id="e2QXHAULry"></path><path d="M76.1 170.68C74.02 170.68 72.07 170.06 70.39 168.98C66.98 166.8 64.67 162.74 64.67 158.1C64.67 148.04 64.67 67.63 64.67 57.58C64.67 52.94 66.98 48.87 70.39 46.7C72.07 45.61 74.02 45 76.1 45C82.39 45 87.51 50.65 87.51 57.58C87.51 77.68 87.51 148.04 87.51 158.1C87.51 165.03 82.39 170.68 76.1 170.68Z" id="b99fbx3D"></path><path d="M76.1 170.68C74.02 170.68 72.07 170.06 70.39 168.98C66.98 166.8 64.67 162.74 64.67 158.1C64.67 148.04 64.67 67.63 64.67 57.58C64.67 52.94 66.98 48.87 70.39 46.7C72.07 45.61 74.02 45 76.1 45C82.39 45 87.51 50.65 87.51 57.58C87.51 77.68 87.51 148.04 87.51 158.1C87.51 165.03 82.39 170.68 76.1 170.68Z" id="aefonj0Il"></path><path d="M76.1 170.68C74.02 170.68 72.07 170.06 70.39 168.98C73.8 166.8 76.1 162.74 76.1 158.1C76.1 148.04 76.1 67.63 76.1 57.58C76.1 52.94 73.8 48.87 70.39 46.7C72.07 45.61 74.02 45 76.1 45C82.39 45 87.51 50.65 87.51 57.58C87.51 77.68 87.51 148.04 87.51 158.1C87.51 165.03 82.39 170.68 76.1 170.68Z" id="a27e3bVqVH"></path><path d="M76.1 170.68C74.02 170.68 72.07 170.06 70.39 168.98C73.8 166.8 76.1 162.74 76.1 158.1C76.1 148.04 76.1 67.63 76.1 57.58C76.1 52.94 73.8 48.87 70.39 46.7C72.07 45.61 74.02 45 76.1 45C82.39 45 87.51 50.65 87.51 57.58C87.51 77.68 87.51 148.04 87.51 158.1C87.51 165.03 82.39 170.68 76.1 170.68Z" id="a2fp90zKM2"></path><path d="M243.92 170.68C241.84 170.68 239.88 170.06 238.21 168.98C234.79 166.8 232.49 162.74 232.49 158.1C232.49 148.04 232.49 67.63 232.49 57.58C232.49 52.94 234.79 48.86 238.21 46.7C239.88 45.61 241.84 45 243.92 45C250.21 45 255.33 50.65 255.33 57.58C255.33 77.68 255.33 148.04 255.33 158.1C255.33 165.03 250.21 170.68 243.92 170.68Z" id="a1M6ZzYQ4I"></path><path d="M243.92 170.68C241.84 170.68 239.88 170.06 238.21 168.98C234.79 166.8 232.49 162.74 232.49 158.1C232.49 148.04 232.49 67.63 232.49 57.58C232.49 52.94 234.79 48.86 238.21 46.7C239.88 45.61 241.84 45 243.92 45C250.21 45 255.33 50.65 255.33 57.58C255.33 77.68 255.33 148.04 255.33 158.1C255.33 165.03 250.21 170.68 243.92 170.68Z" id="bzpikejxm"></path><path d="M243.92 170.68C241.84 170.68 239.88 170.06 238.21 168.98C241.61 166.8 243.92 162.74 243.92 158.1C243.92 148.04 243.92 67.63 243.92 57.58C243.92 52.94 241.61 48.86 238.21 46.7C239.88 45.61 241.84 45 243.92 45C250.21 45 255.33 50.65 255.33 57.58C255.33 77.68 255.33 148.04 255.33 158.1C255.33 165.03 250.21 170.68 243.92 170.68Z" id="aAuZ6vukZ"></path><path d="M243.92 170.68C241.84 170.68 239.88 170.06 238.21 168.98C241.61 166.8 243.92 162.74 243.92 158.1C243.92 148.04 243.92 67.63 243.92 57.58C243.92 52.94 241.61 48.86 238.21 46.7C239.88 45.61 241.84 45 243.92 45C250.21 45 255.33 50.65 255.33 57.58C255.33 77.68 255.33 148.04 255.33 158.1C255.33 165.03 250.21 170.68 243.92 170.68Z" id="bUBGvKu1p"></path><path d="M109.76 97.27C109.76 103.34 114.2 108.25 119.71 108.25C125.21 108.25 129.66 103.34 129.66 97.27C129.66 94.86 129.66 75.51 129.66 73.08C129.66 67.03 125.21 62.11 119.71 62.11C114.2 62.11 109.76 67.02 109.76 73.08C109.76 75.51 109.76 94.86 109.76 97.27Z" id="a1xzs5tQf"></path><path d="M109.76 97.27C109.76 103.34 114.2 108.25 119.71 108.25C125.21 108.25 129.66 103.34 129.66 97.27C129.66 94.86 129.66 75.51 129.66 73.08C129.66 67.03 125.21 62.11 119.71 62.11C114.2 62.11 109.76 67.02 109.76 73.08C109.76 75.51 109.76 94.86 109.76 97.27Z" id="d8QeWTF8v"></path><path d="M129.66 97.27C129.66 103.34 134.12 108.25 139.62 108.25C145.12 108.25 149.58 103.34 149.58 97.27C149.58 94.86 149.58 75.51 149.58 73.08C149.58 67.03 145.12 62.11 139.62 62.11C134.12 62.11 129.66 67.02 129.66 73.08C129.66 75.51 129.66 94.86 129.66 97.27Z" id="dnnmoMPNL"></path><path d="M129.66 97.27C129.66 103.34 134.12 108.25 139.62 108.25C145.12 108.25 149.58 103.34 149.58 97.27C149.58 94.86 149.58 75.51 149.58 73.08C149.58 67.03 145.12 62.11 139.62 62.11C134.12 62.11 129.66 67.02 129.66 73.08C129.66 75.51 129.66 94.86 129.66 97.27Z" id="bKFIkpcjK"></path><path d="M149.58 97.27C149.58 103.34 154.04 108.25 159.53 108.25C165.03 108.25 169.49 103.34 169.49 97.27C169.49 94.86 169.49 75.51 169.49 73.08C169.49 67.03 165.03 62.11 159.53 62.11C154.04 62.11 149.58 67.02 149.58 73.08C149.58 75.51 149.58 94.86 149.58 97.27Z" id="a5CLhf2LH"></path><path d="M149.58 97.27C149.58 103.34 154.04 108.25 159.53 108.25C165.03 108.25 169.49 103.34 169.49 97.27C169.49 94.86 169.49 75.51 169.49 73.08C169.49 67.03 165.03 62.11 159.53 62.11C154.04 62.11 149.58 67.02 149.58 73.08C149.58 75.51 149.58 94.86 149.58 97.27Z" id="b5p9agnBdt"></path><path d="M169.49 97.27C169.49 103.34 173.96 108.25 179.45 108.25C184.95 108.25 189.41 103.34 189.41 97.27C189.41 94.86 189.41 75.51 189.41 73.08C189.41 67.03 184.95 62.11 179.45 62.11C173.96 62.11 169.49 67.02 169.49 73.08C169.49 75.51 169.49 94.86 169.49 97.27Z" id="bjw2QQXQI"></path><path d="M169.49 97.27C169.49 103.34 173.96 108.25 179.45 108.25C184.95 108.25 189.41 103.34 189.41 97.27C189.41 94.86 189.41 75.51 189.41 73.08C189.41 67.03 184.95 62.11 179.45 62.11C173.96 62.11 169.49 67.02 169.49 73.08C169.49 75.51 169.49 94.86 169.49 97.27Z" id="ddw58FXa8"></path><path d="M111.5 273.08C110.41 273.08 109.38 272.57 108.65 271.66C107.93 270.78 107.6 269.58 107.71 268.39C107.78 267.73 108.14 264.44 108.78 258.52C111.19 236.06 112.53 223.58 112.8 221.08C113.03 218.96 114.65 217.38 116.59 217.38C125.27 217.38 194.74 217.38 203.42 217.38C205.35 217.38 206.98 218.96 207.2 221.08C207.71 225.81 211.77 263.66 212.29 268.39C212.42 269.58 212.07 270.78 211.36 271.66C210.63 272.57 209.59 273.08 208.5 273.08C198.81 273.08 121.19 273.08 111.5 273.08Z" id="g3Ex3rlQ0"></path><path d="M111.5 273.08C110.41 273.08 109.38 272.57 108.65 271.66C107.93 270.78 107.6 269.58 107.71 268.39C107.78 267.73 108.14 264.44 108.78 258.52C111.19 236.06 112.53 223.58 112.8 221.08C113.03 218.96 114.65 217.38 116.59 217.38C125.27 217.38 194.74 217.38 203.42 217.38C205.35 217.38 206.98 218.96 207.2 221.08C207.71 225.81 211.77 263.66 212.29 268.39C212.42 269.58 212.07 270.78 211.36 271.66C210.63 272.57 209.59 273.08 208.5 273.08C198.81 273.08 121.19 273.08 111.5 273.08Z" id="a37SKWFp99"></path><path d="M111.5 273.08C110.41 273.08 109.38 272.57 108.65 271.66C107.93 270.78 107.6 269.58 107.71 268.39C107.78 267.73 108.14 264.44 108.78 258.52C159.49 258.52 187.65 258.52 193.29 258.52C194.37 258.52 195.4 258.01 196.13 257.11C196.86 256.22 197.19 255.02 197.06 253.84C196.73 250.56 194.04 224.35 193.7 221.08C193.47 218.96 191.86 217.38 189.93 217.38C191.27 217.38 202.07 217.38 203.42 217.38C205.35 217.38 206.98 218.96 207.2 221.08C207.71 225.81 211.77 263.66 212.29 268.39C212.42 269.58 212.07 270.78 211.36 271.66C210.63 272.57 209.59 273.08 208.5 273.08C198.81 273.08 121.19 273.08 111.5 273.08Z" id="c2F8tZ6QJF"></path><path d="M111.5 273.08C110.41 273.08 109.38 272.57 108.65 271.66C107.93 270.78 107.6 269.58 107.71 268.39C107.78 267.73 108.14 264.44 108.78 258.52C159.49 258.52 187.65 258.52 193.29 258.52C194.37 258.52 195.4 258.01 196.13 257.11C196.86 256.22 197.19 255.02 197.06 253.84C196.73 250.56 194.04 224.35 193.7 221.08C193.47 218.96 191.86 217.38 189.93 217.38C191.27 217.38 202.07 217.38 203.42 217.38C205.35 217.38 206.98 218.96 207.2 221.08C207.71 225.81 211.77 263.66 212.29 268.39C212.42 269.58 212.07 270.78 211.36 271.66C210.63 272.57 209.59 273.08 208.5 273.08C198.81 273.08 121.19 273.08 111.5 273.08Z" id="c3ZRvWeHUP"></path></defs><g><g><g><use xlink:href="#b26lyAt0bM" opacity="1" fill="#555760" fill-opacity="1"></use><g><use xlink:href="#b26lyAt0bM" opacity="1" fill-opacity="0" stroke="#000000" stroke-width="1" stroke-opacity="0"></use></g></g><g><use xlink:href="#a44F9gnLt" opacity="1" fill="#000000" fill-opacity="0"></use><g><use xlink:href="#a44F9gnLt" opacity="1" fill-opacity="0" stroke="#000000" stroke-width="1" stroke-opacity="0"></use></g></g><g><use xlink:href="#h1KidWB3EH" opacity="1" fill="#555760" fill-opacity="1"></use><g><use xlink:href="#h1KidWB3EH" opacity="1" fill-opacity="0" stroke="#000000" stroke-width="1" stroke-opacity="0"></use></g></g><g><use xlink:href="#b1xqZT1oAF" opacity="1" fill="#000000" fill-opacity="0"></use><g><use xlink:href="#b1xqZT1oAF" opacity="1" fill-opacity="0" stroke="#000000" stroke-width="1" stroke-opacity="0"></use></g></g><g><use xlink:href="#a2FjK0Jg5I" opacity="1" fill="#555760" fill-opacity="1"></use><g><use xlink:href="#a2FjK0Jg5I" opacity="1" fill-opacity="0" stroke="#000000" stroke-width="1" stroke-opacity="0"></use></g></g><g><use xlink:href="#amiuO4ABD" opacity="1" fill="#000000" fill-opacity="0"></use><g><use xlink:href="#amiuO4ABD" opacity="1" fill-opacity="0" stroke="#000000" stroke-width="1" stroke-opacity="0"></use></g></g><g><use xlink:href="#anfz68cnG" opacity="1" fill="#2e384d" fill-opacity="1"></use><g><use xlink:href="#anfz68cnG" opacity="1" fill-opacity="0" stroke="#000000" stroke-width="1" stroke-opacity="0"></use></g></g><g><use xlink:href="#d3HAfCpSbl" opacity="1" fill="#000000" fill-opacity="0"></use><g><use xlink:href="#d3HAfCpSbl" opacity="1" fill-opacity="0" stroke="#000000" stroke-width="1" stroke-opacity="0"></use></g></g><g><use xlink:href="#a3rhrvHMBw" opacity="1" fill="#2e384d" fill-opacity="1"></use><g><use xlink:href="#a3rhrvHMBw" opacity="1" fill-opacity="0" stroke="#000000" stroke-width="1" stroke-opacity="0"></use></g></g><g><use xlink:href="#c1yMjV3Q8" opacity="1" fill="#000000" fill-opacity="0"></use><g><use xlink:href="#c1yMjV3Q8" opacity="1" fill-opacity="0" stroke="#000000" stroke-width="1" stroke-opacity="0"></use></g></g><g><use xlink:href="#b45D18twE" opacity="1" fill="#2e384d" fill-opacity="1"></use><g><use xlink:href="#b45D18twE" opacity="1" fill-opacity="0" stroke="#000000" stroke-width="1" stroke-opacity="0"></use></g></g><g><use xlink:href="#bgzUHbpL3" opacity="1" fill="#000000" fill-opacity="0"></use><g><use xlink:href="#bgzUHbpL3" opacity="1" fill-opacity="0" stroke="#000000" stroke-width="1" stroke-opacity="0"></use></g></g><g><use xlink:href="#a6OA6aHTRB" opacity="1" fill="#3fb023" fill-opacity="1"></use><g><use xlink:href="#a6OA6aHTRB" opacity="1" fill-opacity="0" stroke="#000000" stroke-width="1" stroke-opacity="0"></use></g></g><g><use xlink:href="#alzc4an9O" opacity="1" fill="#000000" fill-opacity="0"></use><g><use xlink:href="#alzc4an9O" opacity="1" fill-opacity="0" stroke="#000000" stroke-width="1" stroke-opacity="0"></use></g></g><g><use xlink:href="#a3Pm3yiU" opacity="1" fill="#4cd62b" fill-opacity="1"></use><g><use xlink:href="#a3Pm3yiU" opacity="1" fill-opacity="0" stroke="#000000" stroke-width="1" stroke-opacity="0"></use></g></g><g><use xlink:href="#cdZV3FrmD" opacity="1" fill="#000000" fill-opacity="0"></use><g><use xlink:href="#cdZV3FrmD" opacity="1" fill-opacity="0" stroke="#000000" stroke-width="1" stroke-opacity="0"></use></g></g><g><use xlink:href="#a6d21vOg7" opacity="1" fill="#3fb023" fill-opacity="1"></use><g><use xlink:href="#a6d21vOg7" opacity="1" fill-opacity="0" stroke="#000000" stroke-width="1" stroke-opacity="0"></use></g></g><g><use xlink:href="#j1AbxGe0Do" opacity="1" fill="#000000" fill-opacity="0"></use><g><use xlink:href="#j1AbxGe0Do" opacity="1" fill-opacity="0" stroke="#000000" stroke-width="1" stroke-opacity="0"></use></g></g><g><use xlink:href="#b294PT8Pi" opacity="1" fill="#4dd82b" fill-opacity="1"></use><g><use xlink:href="#b294PT8Pi" opacity="1" fill-opacity="0" stroke="#000000" stroke-width="1" stroke-opacity="0"></use></g></g><g><use xlink:href="#eqefAN8KC" opacity="1" fill="#000000" fill-opacity="0"></use><g><use xlink:href="#eqefAN8KC" opacity="1" fill-opacity="0" stroke="#000000" stroke-width="1" stroke-opacity="0"></use></g></g><g><use xlink:href="#b6KDQtzVu" opacity="1" fill="#ffd3c0" fill-opacity="1"></use><g><use xlink:href="#b6KDQtzVu" opacity="1" fill-opacity="0" stroke="#000000" stroke-width="1" stroke-opacity="0"></use></g></g><g><use xlink:href="#aLgxIbYJ" opacity="1" fill="#000000" fill-opacity="0"></use><g><use xlink:href="#aLgxIbYJ" opacity="1" fill-opacity="0" stroke="#000000" stroke-width="1" stroke-opacity="0"></use></g></g><g><use xlink:href="#aETkJLiYW" opacity="1" fill="#ffb9a1" fill-opacity="1"></use><g><use xlink:href="#aETkJLiYW" opacity="1" fill-opacity="0" stroke="#000000" stroke-width="1" stroke-opacity="0"></use></g></g><g><use xlink:href="#e2UXAL56DS" opacity="1" fill="#000000" fill-opacity="0"></use><g><use xlink:href="#e2UXAL56DS" opacity="1" fill-opacity="0" stroke="#000000" stroke-width="1" stroke-opacity="0"></use></g></g><g><use xlink:href="#dgCV9RI8j" opacity="1" fill="#555760" fill-opacity="1"></use><g><use xlink:href="#dgCV9RI8j" opacity="1" fill-opacity="0" stroke="#000000" stroke-width="1" stroke-opacity="0"></use></g></g><g><use xlink:href="#a62K7ZhppX" opacity="1" fill="#000000" fill-opacity="0"></use><g><use xlink:href="#a62K7ZhppX" opacity="1" fill-opacity="0" stroke="#000000" stroke-width="1" stroke-opacity="0"></use></g></g><g><use xlink:href="#aTdZripyg" opacity="1" fill="#2e384d" fill-opacity="1"></use><g><use xlink:href="#aTdZripyg" opacity="1" fill-opacity="0" stroke="#000000" stroke-width="1" stroke-opacity="0"></use></g></g><g><use xlink:href="#e2QXHAULry" opacity="1" fill="#000000" fill-opacity="0"></use><g><use xlink:href="#e2QXHAULry" opacity="1" fill-opacity="0" stroke="#000000" stroke-width="1" stroke-opacity="0"></use></g></g><g><use xlink:href="#b99fbx3D" opacity="1" fill="#4953b8" fill-opacity="1"></use><g><use xlink:href="#b99fbx3D" opacity="1" fill-opacity="0" stroke="#000000" stroke-width="1" stroke-opacity="0"></use></g></g><g><use xlink:href="#aefonj0Il" opacity="1" fill="#000000" fill-opacity="0"></use><g><use xlink:href="#aefonj0Il" opacity="1" fill-opacity="0" stroke="#000000" stroke-width="1" stroke-opacity="0"></use></g></g><g><use xlink:href="#a27e3bVqVH" opacity="1" fill="#5965e0" fill-opacity="1"></use><g><use xlink:href="#a27e3bVqVH" opacity="1" fill-opacity="0" stroke="#000000" stroke-width="1" stroke-opacity="0"></use></g></g><g><use xlink:href="#a2fp90zKM2" opacity="1" fill="#000000" fill-opacity="0"></use><g><use xlink:href="#a2fp90zKM2" opacity="1" fill-opacity="0" stroke="#000000" stroke-width="1" stroke-opacity="0"></use></g></g><g><use xlink:href="#a1M6ZzYQ4I" opacity="1" fill="#5297e8" fill-opacity="1"></use><g><use xlink:href="#a1M6ZzYQ4I" opacity="1" fill-opacity="0" stroke="#000000" stroke-width="1" stroke-opacity="0"></use></g></g><g><use xlink:href="#bzpikejxm" opacity="1" fill="#000000" fill-opacity="0"></use><g><use xlink:href="#bzpikejxm" opacity="1" fill-opacity="0" stroke="#000000" stroke-width="1" stroke-opacity="0"></use></g></g><g><use xlink:href="#aAuZ6vukZ" opacity="1" fill="#5965e0" fill-opacity="1"></use><g><use xlink:href="#aAuZ6vukZ" opacity="1" fill-opacity="0" stroke="#000000" stroke-width="1" stroke-opacity="0"></use></g></g><g><use xlink:href="#bUBGvKu1p" opacity="1" fill="#000000" fill-opacity="0"></use><g><use xlink:href="#bUBGvKu1p" opacity="1" fill-opacity="0" stroke="#000000" stroke-width="1" stroke-opacity="0"></use></g></g><g><use xlink:href="#a1xzs5tQf" opacity="1" fill="#ffd3c0" fill-opacity="1"></use><g><use xlink:href="#a1xzs5tQf" opacity="1" fill-opacity="0" stroke="#000000" stroke-width="1" stroke-opacity="0"></use></g></g><g><use xlink:href="#d8QeWTF8v" opacity="1" fill="#000000" fill-opacity="0"></use><g><use xlink:href="#d8QeWTF8v" opacity="1" fill-opacity="0" stroke="#000000" stroke-width="1" stroke-opacity="0"></use></g></g><g><use xlink:href="#dnnmoMPNL" opacity="1" fill="#ffb9a1" fill-opacity="1"></use><g><use xlink:href="#dnnmoMPNL" opacity="1" fill-opacity="0" stroke="#000000" stroke-width="1" stroke-opacity="0"></use></g></g><g><use xlink:href="#bKFIkpcjK" opacity="1" fill="#000000" fill-opacity="0"></use><g><use xlink:href="#bKFIkpcjK" opacity="1" fill-opacity="0" stroke="#000000" stroke-width="1" stroke-opacity="0"></use></g></g><g><use xlink:href="#a5CLhf2LH" opacity="1" fill="#ffd3c0" fill-opacity="1"></use><g><use xlink:href="#a5CLhf2LH" opacity="1" fill-opacity="0" stroke="#000000" stroke-width="1" stroke-opacity="0"></use></g></g><g><use xlink:href="#b5p9agnBdt" opacity="1" fill="#000000" fill-opacity="0"></use><g><use xlink:href="#b5p9agnBdt" opacity="1" fill-opacity="0" stroke="#000000" stroke-width="1" stroke-opacity="0"></use></g></g><g><use xlink:href="#bjw2QQXQI" opacity="1" fill="#ffb9a1" fill-opacity="1"></use><g><use xlink:href="#bjw2QQXQI" opacity="1" fill-opacity="0" stroke="#000000" stroke-width="1" stroke-opacity="0"></use></g></g><g><use xlink:href="#ddw58FXa8" opacity="1" fill="#000000" fill-opacity="0"></use><g><use xlink:href="#ddw58FXa8" opacity="1" fill-opacity="0" stroke="#000000" stroke-width="1" stroke-opacity="0"></use></g></g><g><use xlink:href="#g3Ex3rlQ0" opacity="1" fill="#eef6ff" fill-opacity="1"></use><g><use xlink:href="#g3Ex3rlQ0" opacity="1" fill-opacity="0" stroke="#000000" stroke-width="1" stroke-opacity="0"></use></g></g><g><use xlink:href="#a37SKWFp99" opacity="1" fill="#000000" fill-opacity="0"></use><g><use xlink:href="#a37SKWFp99" opacity="1" fill-opacity="0" stroke="#000000" stroke-width="1" stroke-opacity="0"></use></g></g><g><use xlink:href="#c2F8tZ6QJF" opacity="1" fill="#dae6ef" fill-opacity="1"></use><g><use xlink:href="#c2F8tZ6QJF" opacity="1" fill-opacity="0" stroke="#000000" stroke-width="1" stroke-opacity="0"></use></g></g><g><use xlink:href="#c3ZRvWeHUP" opacity="1" fill="#000000" fill-opacity="0"></use><g><use xlink:href="#c3ZRvWeHUP" opacity="1" fill-opacity="0" stroke="#000000" stroke-width="1" stroke-opacity="0"></use></g></g></g></g></svg>