<?xml version="1.0" encoding="UTF-8" standalone="no"?>
<!DOCTYPE svg PUBLIC "-//W3C//DTD SVG 1.1//EN" "http://www.w3.org/Graphics/SVG/1.1/DTD/svg11.dtd">
<svg version="1.1" xmlns="http://www.w3.org/2000/svg" xmlns:xlink="http://www.w3.org/1999/xlink" preserveAspectRatio="xMidYMid meet" viewBox="0 0 640 640" width="640" height="640"><defs><path d="M544.41 96.1C534.74 86.42 519.06 86.4 509.38 96.06C496.76 108.66 433.65 171.62 320.04 284.97C206.69 171.36 143.73 108.25 131.13 95.63C121.47 85.95 105.79 85.93 96.1 95.59C86.42 105.26 86.4 120.94 96.06 130.62C108.66 143.24 171.62 206.35 284.97 319.96C171.36 433.31 108.25 496.27 95.63 508.87C85.95 518.53 85.93 534.21 95.59 543.9C105.26 553.58 120.94 553.6 130.62 543.94C143.24 531.34 206.35 468.38 319.96 355.03C433.31 468.64 496.27 531.75 508.87 544.37C518.53 554.05 534.21 554.07 543.9 544.41C553.58 534.74 553.6 519.06 543.94 509.38C518.75 484.13 455.78 421.02 355.03 320.04C468.64 206.69 531.75 143.73 544.37 131.13C554.05 121.47 554.07 105.79 544.41 96.1Z" id="b1QYwskKz"></path><path d="M544.41 96.1C534.74 86.42 519.06 86.4 509.38 96.06C496.76 108.66 433.65 171.62 320.04 284.97C206.69 171.36 143.73 108.25 131.13 95.63C121.47 85.95 105.79 85.93 96.1 95.59C86.42 105.26 86.4 120.94 96.06 130.62C108.66 143.24 171.62 206.35 284.97 319.96C171.36 433.31 108.25 496.27 95.63 508.87C85.95 518.53 85.93 534.21 95.59 543.9C105.26 553.58 120.94 553.6 130.62 543.94C143.24 531.34 206.35 468.38 319.96 355.03C433.31 468.64 496.27 531.75 508.87 544.37C518.53 554.05 534.21 554.07 543.9 544.41C553.58 534.74 553.6 519.06 543.94 509.38C518.75 484.13 455.78 421.02 355.03 320.04C468.64 206.69 531.75 143.73 544.37 131.13C554.05 121.47 554.07 105.79 544.41 96.1Z" id="b208oOwVJA"></path><path d="M544.41 96.1C534.74 86.42 519.06 86.4 509.38 96.06C496.76 108.66 433.65 171.62 320.04 284.97C206.69 171.36 143.73 108.25 131.13 95.63C121.47 85.95 105.79 85.93 96.1 95.59C86.42 105.26 86.4 120.94 96.06 130.62C108.66 143.24 171.62 206.35 284.97 319.96C171.36 433.31 108.25 496.27 95.63 508.87C85.95 518.53 85.93 534.21 95.59 543.9C105.26 553.58 120.94 553.6 130.62 543.94C143.24 531.34 206.35 468.38 319.96 355.03C433.31 468.64 496.27 531.75 508.87 544.37C518.53 554.05 534.21 554.07 543.9 544.41C553.58 534.74 553.6 519.06 543.94 509.38C518.75 484.13 455.78 421.02 355.03 320.04C468.64 206.69 531.75 143.73 544.37 131.13C554.05 121.47 554.07 105.79 544.41 96.1Z" id="a1FmjXXGff"></path><path d="M544.41 96.1C534.74 86.42 519.06 86.4 509.38 96.06C496.76 108.66 433.65 171.62 320.04 284.97C206.69 171.36 143.73 108.25 131.13 95.63C121.47 85.95 105.79 85.93 96.1 95.59C86.42 105.26 86.4 120.94 96.06 130.62C108.66 143.24 171.62 206.35 284.97 319.96C171.36 433.31 108.25 496.27 95.63 508.87C85.95 518.53 85.93 534.21 95.59 543.9C105.26 553.58 120.94 553.6 130.62 543.94C143.24 531.34 206.35 468.38 319.96 355.03C433.31 468.64 496.27 531.75 508.87 544.37C518.53 554.05 534.21 554.07 543.9 544.41C553.58 534.74 553.6 519.06 543.94 509.38C518.75 484.13 455.78 421.02 355.03 320.04C468.64 206.69 531.75 143.73 544.37 131.13C554.05 121.47 554.07 105.79 544.41 96.1Z" id="bks8RDVXy"></path></defs><g><g><g><use xlink:href="#b1QYwskKz" opacity="1" fill="#000000" fill-opacity="1"></use><g><use xlink:href="#b1QYwskKz" opacity="1" fill-opacity="0" stroke="#000000" stroke-width="1" stroke-opacity="0"></use></g></g><g><use xlink:href="#b208oOwVJA" opacity="1" fill="#000000" fill-opacity="0"></use><g><use xlink:href="#b208oOwVJA" opacity="1" fill-opacity="0" stroke="#000000" stroke-width="8" stroke-opacity="0"></use></g></g><g><use xlink:href="#a1FmjXXGff" opacity="1" fill="#000000" fill-opacity="0"></use><g><use xlink:href="#a1FmjXXGff" opacity="1" fill-opacity="0" stroke="#000000" stroke-width="1" stroke-opacity="0"></use></g></g><g><use xlink:href="#bks8RDVXy" opacity="1" fill="#000000" fill-opacity="0"></use><g><use xlink:href="#bks8RDVXy" opacity="1" fill-opacity="0" stroke="#000000" stroke-width="8" stroke-opacity="1"></use></g></g></g></g></svg>