<?xml version="1.0" encoding="UTF-8" standalone="no"?>
<!DOCTYPE svg PUBLIC "-//W3C//DTD SVG 1.1//EN" "http://www.w3.org/Graphics/SVG/1.1/DTD/svg11.dtd">
<svg version="1.1" xmlns="http://www.w3.org/2000/svg" xmlns:xlink="http://www.w3.org/1999/xlink" preserveAspectRatio="xMidYMid meet" viewBox="0 0 320 320" width="320" height="320"><defs><path d="M164.1 249.42C144.77 268.18 134.03 278.61 131.89 280.69C131.89 280.69 131.89 280.69 131.89 280.69C91.75 242.65 69.46 221.51 65 217.29C65 217.29 65 217.29 65 217.29C84.33 198.52 95.07 188.1 97.21 186.02C97.21 186.02 97.21 186.02 97.21 186.02C137.35 224.05 159.65 245.19 164.1 249.42C164.1 249.42 164.1 249.42 164.1 249.42Z" id="d1osSj5I8m"></path><path d="M164.1 249.42C144.77 268.18 134.03 278.61 131.89 280.69C131.89 280.69 131.89 280.69 131.89 280.69C91.75 242.65 69.46 221.51 65 217.29C65 217.29 65 217.29 65 217.29C84.33 198.52 95.07 188.1 97.21 186.02C97.21 186.02 97.21 186.02 97.21 186.02C137.35 224.05 159.65 245.19 164.1 249.42C164.1 249.42 164.1 249.42 164.1 249.42Z" id="aJDVZUV4H"></path><path d="M177.05 49.84C178.2 49.79 187.35 49.47 188.48 49.43C190.72 49.35 192.48 51.02 192.43 53.17C192.38 55.31 190.52 57.11 188.29 57.19C187.14 57.23 178 57.55 176.85 57.58C175.74 57.62 174.73 57.23 174.02 56.55C173.31 55.87 172.89 54.92 172.91 53.85C172.97 51.71 174.82 49.92 177.05 49.84Z" id="c1HyWkcCd7"></path><path d="M177.05 49.84C178.2 49.79 187.35 49.47 188.48 49.43C190.72 49.35 192.48 51.02 192.43 53.17C192.38 55.31 190.52 57.11 188.29 57.19C187.14 57.23 178 57.55 176.85 57.58C175.74 57.62 174.73 57.23 174.02 56.55C173.31 55.87 172.89 54.92 172.91 53.85C172.97 51.71 174.82 49.92 177.05 49.84Z" id="a3u50CEDQo"></path><path d="M97.21 186.02C112.98 200.96 121.73 209.25 123.49 210.91C133.61 220.51 133.19 236.65 122.56 246.98C121.69 247.81 117.36 252 109.59 259.55C106.61 256.74 91.75 242.65 65 217.29C84.33 198.53 95.06 188.1 97.21 186.02Z" id="jjUXMmCqU"></path><path d="M97.21 186.02C112.98 200.96 121.73 209.25 123.49 210.91C133.61 220.51 133.19 236.65 122.56 246.98C121.69 247.81 117.36 252 109.59 259.55C106.61 256.74 91.75 242.65 65 217.29C84.33 198.53 95.06 188.1 97.21 186.02Z" id="b27OWwnd1A"></path><path d="M173.62 182.6C170.39 185.74 170.26 190.65 173.33 193.57C176.41 196.5 181.53 196.31 184.76 193.17C188 190.03 188.13 185.12 185.05 182.21C181.97 179.28 176.85 179.46 173.62 182.6Z" id="b3rZ7Dmyo"></path><path d="M173.62 182.6C170.39 185.74 170.26 190.65 173.33 193.57C176.41 196.5 181.53 196.31 184.76 193.17C188 190.03 188.13 185.12 185.05 182.21C181.97 179.28 176.85 179.46 173.62 182.6Z" id="a1BhNRqDhF"></path><path d="M100.62 220.14C96.57 224.06 96.41 230.21 100.26 233.85C104.11 237.5 110.51 237.27 114.55 233.35C118.6 229.43 118.76 223.29 114.91 219.64C111.06 216 104.66 216.22 100.62 220.14Z" id="blAbzgkHG"></path><path d="M100.62 220.14C96.57 224.06 96.41 230.21 100.26 233.85C104.11 237.5 110.51 237.27 114.55 233.35C118.6 229.43 118.76 223.29 114.91 219.64C111.06 216 104.66 216.22 100.62 220.14Z" id="b67QpK6HH"></path><path d="M133 177.31C132.53 188.25 132.26 194.33 132.2 195.54C131.99 200.45 135.97 204.35 141.08 204.24C148.13 204.11 204.46 202.95 211.5 202.8C216.63 202.71 220.95 198.63 221.17 193.73C221.28 191.29 221.55 185.21 221.97 175.48C204.18 175.84 141.9 177.12 133 177.31Z" id="k2ta9K42oU"></path><path d="M133 177.31C132.53 188.25 132.26 194.33 132.2 195.54C131.99 200.45 135.97 204.35 141.08 204.24C148.13 204.11 204.46 202.95 211.5 202.8C216.63 202.71 220.95 198.63 221.17 193.73C221.28 191.29 221.55 185.21 221.97 175.48C204.18 175.84 141.9 177.12 133 177.31Z" id="l11FNPV8gF"></path><path d="M241.27 81.16C237.34 77.32 231.4 76.43 226.25 78.44C226.18 80.12 225.81 88.54 225.14 103.69C232.48 104.13 237.58 103.02 240.42 100.35C246.18 94.93 246.56 86.34 241.27 81.16Z" id="a2g75osLxK"></path><path d="M241.27 81.16C237.34 77.32 231.4 76.43 226.25 78.44C226.18 80.12 225.81 88.54 225.14 103.69C232.48 104.13 237.58 103.02 240.42 100.35C246.18 94.93 246.56 86.34 241.27 81.16Z" id="c3pFrcbJK0"></path><path d="M218.68 40C211.64 40.15 155.31 41.3 148.27 41.45C143.14 41.56 138.81 45.62 138.6 50.53C138.55 51.34 138.38 55.39 138.06 62.69C146.95 62.51 218.13 61.04 227.02 60.86C227.35 53.57 227.53 49.52 227.56 48.71C227.78 43.79 223.8 39.89 218.68 40Z" id="e1fcyQ59G2"></path><path d="M218.68 40C211.64 40.15 155.31 41.3 148.27 41.45C143.14 41.56 138.81 45.62 138.6 50.53C138.55 51.34 138.38 55.39 138.06 62.69C146.95 62.51 218.13 61.04 227.02 60.86C227.35 53.57 227.53 49.52 227.56 48.71C227.78 43.79 223.8 39.89 218.68 40Z" id="b1NlkDJehm"></path><path d="M117.34 105.61C117.34 105.61 117.34 105.61 117.34 105.61C123.07 100.22 132.08 100.04 137.35 105.2C140.1 107.88 162 129.33 164.74 132.02C170.02 137.19 169.64 145.82 163.9 151.21C163.9 151.21 163.9 151.21 163.9 151.21C158.16 156.6 149.15 156.79 143.89 151.61C138.4 146.25 119.23 127.48 116.5 124.79C111.22 119.63 111.61 111 117.34 105.61Z" id="b2cwaTAK8J"></path><path d="M117.34 105.61C117.34 105.61 117.34 105.61 117.34 105.61C123.07 100.22 132.08 100.04 137.35 105.2C140.1 107.88 162 129.33 164.74 132.02C170.02 137.19 169.64 145.82 163.9 151.21C163.9 151.21 163.9 151.21 163.9 151.21C158.16 156.6 149.15 156.79 143.89 151.61C138.4 146.25 119.23 127.48 116.5 124.79C111.22 119.63 111.61 111 117.34 105.61Z" id="d3uNc5pKp"></path><path d="M240.06 108.57C236.13 104.72 230.2 103.85 225.04 105.85C224.97 107.53 224.6 115.95 223.93 131.09C231.27 131.54 236.37 130.42 239.21 127.76C244.98 122.35 245.36 113.75 240.06 108.57Z" id="bZOnKCVBN"></path><path d="M240.06 108.57C236.13 104.72 230.2 103.85 225.04 105.85C224.97 107.53 224.6 115.95 223.93 131.09C231.27 131.54 236.37 130.42 239.21 127.76C244.98 122.35 245.36 113.75 240.06 108.57Z" id="eQ69ghoXr"></path><path d="M136.23 104.3C136.61 104.6 137.01 104.86 137.35 105.2C140.1 107.88 162 129.33 164.74 132.02C170.02 137.19 169.64 145.82 163.9 151.21C158.16 156.6 149.15 156.79 143.89 151.61C143.26 151.01 140.14 147.96 134.54 142.47C134.44 144.79 133.93 156.4 133 177.31L221.97 175.48L227.02 60.86L138.06 62.69C136.92 88.58 136.31 102.46 136.23 104.3Z" id="a12R56Y6ZJ"></path><path d="M136.23 104.3C136.61 104.6 137.01 104.86 137.35 105.2C140.1 107.88 162 129.33 164.74 132.02C170.02 137.19 169.64 145.82 163.9 151.21C158.16 156.6 149.15 156.79 143.89 151.61C143.26 151.01 140.14 147.96 134.54 142.47C134.44 144.79 133.93 156.4 133 177.31L221.97 175.48L227.02 60.86L138.06 62.69C136.92 88.58 136.31 102.46 136.23 104.3Z" id="ffzxMbhMx"></path><path d="M238.86 135.97C234.93 132.13 228.99 131.26 223.83 133.26C223.77 134.94 223.39 143.36 222.73 158.51C230.06 158.95 235.16 157.84 238.01 155.16C243.77 149.76 244.14 141.16 238.86 135.97Z" id="c4kkZcQiO5"></path><path d="M238.86 135.97C234.93 132.13 228.99 131.26 223.83 133.26C223.77 134.94 223.39 143.36 222.73 158.51C230.06 158.95 235.16 157.84 238.01 155.16C243.77 149.76 244.14 141.16 238.86 135.97Z" id="aGs0lOcYo"></path><path d="M237.64 163.39C233.72 159.55 227.78 158.66 222.63 160.66C222.55 162.35 222.19 170.76 221.52 185.92C228.86 186.37 233.96 185.25 236.8 182.58C242.55 177.16 242.93 168.58 237.64 163.39Z" id="aknHl0Xt0"></path><path d="M237.64 163.39C233.72 159.55 227.78 158.66 222.63 160.66C222.55 162.35 222.19 170.76 221.52 185.92C228.86 186.37 233.96 185.25 236.8 182.58C242.55 177.16 242.93 168.58 237.64 163.39Z" id="a1PmicVcQD"></path><path d="M133.54 195.09C133.63 191.55 134.1 173.85 134.92 141.98C123.9 131.53 117.77 125.73 116.55 124.57C114.12 123.85 112.71 116.78 112.87 119.86C112.73 125.77 111.61 173.12 111.47 179.04C111.46 179.45 111.54 179.81 111.55 180.21C110.93 180.84 107.75 183.92 102.03 189.47C107.6 194.75 152.19 237.03 157.76 242.31C165.69 234.61 170.09 230.34 170.98 229.49C180.06 230.4 189.7 227.35 196.89 220.38C202.43 214.99 205.51 208.23 206.15 201.41C193.44 201.86 148.94 203.43 142.59 203.65C137.46 203.83 133.42 200 133.54 195.09Z" id="boKJpYuhn"></path><path d="M133.54 195.09C133.63 191.55 134.1 173.85 134.92 141.98C123.9 131.53 117.77 125.73 116.55 124.57C114.12 123.85 112.71 116.78 112.87 119.86C112.73 125.77 111.61 173.12 111.47 179.04C111.46 179.45 111.54 179.81 111.55 180.21C110.93 180.84 107.75 183.92 102.03 189.47C107.6 194.75 152.19 237.03 157.76 242.31C165.69 234.61 170.09 230.34 170.98 229.49C180.06 230.4 189.7 227.35 196.89 220.38C202.43 214.99 205.51 208.23 206.15 201.41C193.44 201.86 148.94 203.43 142.59 203.65C137.46 203.83 133.42 200 133.54 195.09Z" id="c6P9iq8WF"></path></defs><g><g><g><use xlink:href="#d1osSj5I8m" opacity="1" fill="#c8d2d6" fill-opacity="1"></use><g><use xlink:href="#d1osSj5I8m" opacity="1" fill-opacity="0" stroke="#000000" stroke-width="1" stroke-opacity="0"></use></g></g><g><use xlink:href="#aJDVZUV4H" opacity="1" fill="#000000" fill-opacity="0"></use><g><use xlink:href="#aJDVZUV4H" opacity="1" fill-opacity="0" stroke="#000000" stroke-width="1" stroke-opacity="0"></use></g></g><g><use xlink:href="#c1HyWkcCd7" opacity="1" fill="#424a60" fill-opacity="1"></use><g><use xlink:href="#c1HyWkcCd7" opacity="1" fill-opacity="0" stroke="#000000" stroke-width="1" stroke-opacity="0"></use></g></g><g><use xlink:href="#a3u50CEDQo" opacity="1" fill="#000000" fill-opacity="0"></use><g><use xlink:href="#a3u50CEDQo" opacity="1" fill-opacity="0" stroke="#000000" stroke-width="1" stroke-opacity="0"></use></g></g><g><use xlink:href="#jjUXMmCqU" opacity="1" fill="#e7eced" fill-opacity="1"></use><g><use xlink:href="#jjUXMmCqU" opacity="1" fill-opacity="0" stroke="#000000" stroke-width="1" stroke-opacity="0"></use></g></g><g><use xlink:href="#b27OWwnd1A" opacity="1" fill="#000000" fill-opacity="0"></use><g><use xlink:href="#b27OWwnd1A" opacity="1" fill-opacity="0" stroke="#000000" stroke-width="1" stroke-opacity="0"></use></g></g><g><use xlink:href="#b3rZ7Dmyo" opacity="1" fill="#ffffff" fill-opacity="1"></use><g><use xlink:href="#b3rZ7Dmyo" opacity="1" fill-opacity="0" stroke="#000000" stroke-width="1" stroke-opacity="0"></use></g></g><g><use xlink:href="#a1BhNRqDhF" opacity="1" fill="#000000" fill-opacity="0"></use><g><use xlink:href="#a1BhNRqDhF" opacity="1" fill-opacity="0" stroke="#000000" stroke-width="1" stroke-opacity="0"></use></g></g><g><use xlink:href="#blAbzgkHG" opacity="1" fill="#7383bf" fill-opacity="1"></use><g><use xlink:href="#blAbzgkHG" opacity="1" fill-opacity="0" stroke="#000000" stroke-width="1" stroke-opacity="0"></use></g></g><g><use xlink:href="#b67QpK6HH" opacity="1" fill="#000000" fill-opacity="0"></use><g><use xlink:href="#b67QpK6HH" opacity="1" fill-opacity="0" stroke="#000000" stroke-width="1" stroke-opacity="0"></use></g></g><g><use xlink:href="#k2ta9K42oU" opacity="1" fill="#e7eced" fill-opacity="1"></use><g><use xlink:href="#k2ta9K42oU" opacity="1" fill-opacity="0" stroke="#000000" stroke-width="1" stroke-opacity="0"></use></g></g><g><use xlink:href="#l11FNPV8gF" opacity="1" fill="#000000" fill-opacity="0"></use><g><use xlink:href="#l11FNPV8gF" opacity="1" fill-opacity="0" stroke="#000000" stroke-width="1" stroke-opacity="0"></use></g></g><g><use xlink:href="#a2g75osLxK" opacity="1" fill="#fbce9d" fill-opacity="1"></use><g><use xlink:href="#a2g75osLxK" opacity="1" fill-opacity="0" stroke="#000000" stroke-width="1" stroke-opacity="0"></use></g></g><g><use xlink:href="#c3pFrcbJK0" opacity="1" fill="#000000" fill-opacity="0"></use><g><use xlink:href="#c3pFrcbJK0" opacity="1" fill-opacity="0" stroke="#000000" stroke-width="1" stroke-opacity="0"></use></g></g><g><use xlink:href="#e1fcyQ59G2" opacity="1" fill="#e7eced" fill-opacity="1"></use><g><use xlink:href="#e1fcyQ59G2" opacity="1" fill-opacity="0" stroke="#000000" stroke-width="1" stroke-opacity="0"></use></g></g><g><use xlink:href="#b1NlkDJehm" opacity="1" fill="#000000" fill-opacity="0"></use><g><use xlink:href="#b1NlkDJehm" opacity="1" fill-opacity="0" stroke="#000000" stroke-width="1" stroke-opacity="0"></use></g></g><g><use xlink:href="#b2cwaTAK8J" opacity="1" fill="#fbce9d" fill-opacity="1"></use><g><use xlink:href="#b2cwaTAK8J" opacity="1" fill-opacity="0" stroke="#000000" stroke-width="1" stroke-opacity="0"></use></g></g><g><use xlink:href="#d3uNc5pKp" opacity="1" fill="#000000" fill-opacity="0"></use><g><use xlink:href="#d3uNc5pKp" opacity="1" fill-opacity="0" stroke="#000000" stroke-width="1" stroke-opacity="0"></use></g></g><g><use xlink:href="#bZOnKCVBN" opacity="1" fill="#fbce9d" fill-opacity="1"></use><g><use xlink:href="#bZOnKCVBN" opacity="1" fill-opacity="0" stroke="#000000" stroke-width="1" stroke-opacity="0"></use></g></g><g><use xlink:href="#eQ69ghoXr" opacity="1" fill="#000000" fill-opacity="0"></use><g><use xlink:href="#eQ69ghoXr" opacity="1" fill-opacity="0" stroke="#000000" stroke-width="1" stroke-opacity="0"></use></g></g><g><use xlink:href="#a12R56Y6ZJ" opacity="1" fill="#424a60" fill-opacity="1"></use><g><use xlink:href="#a12R56Y6ZJ" opacity="1" fill-opacity="0" stroke="#000000" stroke-width="1" stroke-opacity="0"></use></g></g><g><use xlink:href="#ffzxMbhMx" opacity="1" fill="#000000" fill-opacity="0"></use><g><use xlink:href="#ffzxMbhMx" opacity="1" fill-opacity="0" stroke="#000000" stroke-width="1" stroke-opacity="0"></use></g></g><g><use xlink:href="#c4kkZcQiO5" opacity="1" fill="#fbce9d" fill-opacity="1"></use><g><use xlink:href="#c4kkZcQiO5" opacity="1" fill-opacity="0" stroke="#000000" stroke-width="1" stroke-opacity="0"></use></g></g><g><use xlink:href="#aGs0lOcYo" opacity="1" fill="#000000" fill-opacity="0"></use><g><use xlink:href="#aGs0lOcYo" opacity="1" fill-opacity="0" stroke="#000000" stroke-width="1" stroke-opacity="0"></use></g></g><g><use xlink:href="#aknHl0Xt0" opacity="1" fill="#fbce9d" fill-opacity="1"></use><g><use xlink:href="#aknHl0Xt0" opacity="1" fill-opacity="0" stroke="#000000" stroke-width="1" stroke-opacity="0"></use></g></g><g><use xlink:href="#a1PmicVcQD" opacity="1" fill="#000000" fill-opacity="0"></use><g><use xlink:href="#a1PmicVcQD" opacity="1" fill-opacity="0" stroke="#000000" stroke-width="1" stroke-opacity="0"></use></g></g><g><use xlink:href="#boKJpYuhn" opacity="1" fill="#f7b563" fill-opacity="1"></use><g><use xlink:href="#boKJpYuhn" opacity="1" fill-opacity="0" stroke="#000000" stroke-width="1" stroke-opacity="0"></use></g></g><g><use xlink:href="#c6P9iq8WF" opacity="1" fill="#000000" fill-opacity="0"></use><g><use xlink:href="#c6P9iq8WF" opacity="1" fill-opacity="0" stroke="#000000" stroke-width="1" stroke-opacity="0"></use></g></g></g></g></svg>