<?xml version="1.0" encoding="UTF-8" standalone="no"?>
<!DOCTYPE svg PUBLIC "-//W3C//DTD SVG 1.1//EN" "http://www.w3.org/Graphics/SVG/1.1/DTD/svg11.dtd">
<svg version="1.1" xmlns="http://www.w3.org/2000/svg" xmlns:xlink="http://www.w3.org/1999/xlink" preserveAspectRatio="xMidYMid meet" viewBox="0 0 320 320" width="320" height="320"><defs><path d="M53.99 176.03C45.58 171.39 38.73 164.6 34.23 156.39C27.78 144.24 28.75 129.56 36.8 117.93C41.36 110.2 49.54 104.94 58.71 103.84C70.17 102.56 81.67 108.02 90.19 113.78C89.34 115.8 82.63 132.01 81.8 134.03C77.41 130 72.09 126.99 66.24 125.21C63.3 124.46 60.15 124.94 57.54 126.53C54.94 128.11 53.14 130.65 52.57 133.51C48.66 147.49 61.57 157.8 74.07 161.84C73.59 166.05 72.14 178.71 71.67 182.94C65.42 181.49 59.47 179.15 53.99 176.03Z" id="g4cYORyDf"></path><path d="M53.99 176.03C45.58 171.39 38.73 164.6 34.23 156.39C27.78 144.24 28.75 129.56 36.8 117.93C41.36 110.2 49.54 104.94 58.71 103.84C70.17 102.56 81.67 108.02 90.19 113.78C89.34 115.8 82.63 132.01 81.8 134.03C77.41 130 72.09 126.99 66.24 125.21C63.3 124.46 60.15 124.94 57.54 126.53C54.94 128.11 53.14 130.65 52.57 133.51C48.66 147.49 61.57 157.8 74.07 161.84C73.59 166.05 72.14 178.71 71.67 182.94C65.42 181.49 59.47 179.15 53.99 176.03Z" id="bLFkdx4oi"></path><path d="M173.65 177.07C158.5 168.1 165.7 142.35 148.68 129.04C135.63 119.35 118.14 116.76 102.22 122.14C96.44 114.47 93.95 107.89 95.53 103.28C95.53 103.25 95.53 103.25 95.56 103.21C95.56 103.19 95.54 103.16 95.54 103.16C95.75 102.62 96.02 102.1 96.33 101.6C104.68 88.76 151.15 101.08 200.18 129.04C214.98 137.42 229.08 146.89 242.32 157.34C233.89 167.17 220.32 175.14 201.41 178.76C187.66 181.38 179.19 180.37 173.65 177.07Z" id="b25goAZeAz"></path><path d="M173.65 177.07C158.5 168.1 165.7 142.35 148.68 129.04C135.63 119.35 118.14 116.76 102.22 122.14C96.44 114.47 93.95 107.89 95.53 103.28C95.53 103.25 95.53 103.25 95.56 103.21C95.56 103.19 95.54 103.16 95.54 103.16C95.75 102.62 96.02 102.1 96.33 101.6C104.68 88.76 151.15 101.08 200.18 129.04C214.98 137.42 229.08 146.89 242.32 157.34C233.89 167.17 220.32 175.14 201.41 178.76C187.66 181.38 179.19 180.37 173.65 177.07Z" id="h6VQ7vEgLC"></path><path d="M71.67 182.94C71.92 175.87 72.72 168.81 74.07 161.84C75.93 152.42 78.5 143.12 81.8 134.03C84.59 126.2 87.59 119.26 90.19 113.78C92.34 109.25 94.19 105.7 95.53 103.28C93.95 107.89 96.44 114.47 102.22 122.14C113.8 137.58 138.6 157.58 169.99 175.49C171.13 176.15 172.28 176.77 173.43 177.41C219.17 202.92 261.94 214.5 272.6 204.42C259.11 222.17 190.49 304.76 114.29 261.24C80.05 241.71 70.66 211.74 71.67 182.94Z" id="b5kKNwh7Q6"></path><path d="M71.67 182.94C71.92 175.87 72.72 168.81 74.07 161.84C75.93 152.42 78.5 143.12 81.8 134.03C84.59 126.2 87.59 119.26 90.19 113.78C92.34 109.25 94.19 105.7 95.53 103.28C93.95 107.89 96.44 114.47 102.22 122.14C113.8 137.58 138.6 157.58 169.99 175.49C171.13 176.15 172.28 176.77 173.43 177.41C219.17 202.92 261.94 214.5 272.6 204.42C259.11 222.17 190.49 304.76 114.29 261.24C80.05 241.71 70.66 211.74 71.67 182.94Z" id="f2dVEU8DSJ"></path><path d="M200.18 129.04C151.15 101.08 104.68 88.76 96.33 101.6C96.02 102.1 95.75 102.62 95.54 103.16C95.54 103.16 95.56 103.19 95.56 103.21C95.53 103.25 95.53 103.25 95.53 103.28C93.95 107.89 96.44 114.47 102.22 122.14C113.8 137.58 138.6 157.58 169.99 175.49C171.13 176.15 172.28 176.77 173.43 177.41C219.17 202.92 261.94 214.5 272.6 204.42C266.54 195 248.38 166.75 242.32 157.34C229.08 146.89 214.98 137.42 200.18 129.04Z" id="d5njgqPdPA"></path><path d="M200.18 129.04C151.15 101.08 104.68 88.76 96.33 101.6C96.02 102.1 95.75 102.62 95.54 103.16C95.54 103.16 95.56 103.19 95.56 103.21C95.53 103.25 95.53 103.25 95.53 103.28C93.95 107.89 96.44 114.47 102.22 122.14C113.8 137.58 138.6 157.58 169.99 175.49C171.13 176.15 172.28 176.77 173.43 177.41C219.17 202.92 261.94 214.5 272.6 204.42C266.54 195 248.38 166.75 242.32 157.34C229.08 146.89 214.98 137.42 200.18 129.04Z" id="b1EFvQdvbP"></path><path d="M217.84 70.6C214.01 76.52 202.61 76.6 192.4 70.76C182.19 64.93 177.03 55.4 180.88 49.48C184.71 43.56 196.11 43.5 206.32 49.32C216.53 55.16 221.69 64.68 217.84 70.6Z" id="bykZVZ6oq"></path><path d="M217.84 70.6C214.01 76.52 202.61 76.6 192.4 70.76C182.19 64.93 177.03 55.4 180.88 49.48C184.71 43.56 196.11 43.5 206.32 49.32C216.53 55.16 221.69 64.68 217.84 70.6Z" id="fanXUM3P1"></path><path d="M132.32 225.91C138.47 216.38 145.86 220.6 152.06 211.08C158.09 201.75 151.03 197.54 156.76 188.27C158.14 188.71 159.46 189.3 160.69 190.01C172.89 197 174.57 215.4 164.31 231.14C155.17 245.28 139.59 252.41 127.61 248.72C133.3 239.47 126.24 235.23 132.32 225.91Z" id="diDYPySZU"></path><path d="M132.32 225.91C138.47 216.38 145.86 220.6 152.06 211.08C158.09 201.75 151.03 197.54 156.76 188.27C158.14 188.71 159.46 189.3 160.69 190.01C172.89 197 174.57 215.4 164.31 231.14C155.17 245.28 139.59 252.41 127.61 248.72C133.3 239.47 126.24 235.23 132.32 225.91Z" id="bdzWbZSI2"></path><path d="M132.32 225.91C126.24 235.23 133.3 239.47 127.61 248.72C126.24 248.29 124.92 247.71 123.68 247C111.44 240.01 109.81 221.59 120.07 205.87C129.21 191.73 144.78 184.58 156.76 188.27C151.03 197.54 158.09 201.75 152.06 211.08C145.86 220.6 138.47 216.38 132.32 225.91Z" id="ah76LgtMX"></path><path d="M132.32 225.91C126.24 235.23 133.3 239.47 127.61 248.72C126.24 248.29 124.92 247.71 123.68 247C111.44 240.01 109.81 221.59 120.07 205.87C129.21 191.73 144.78 184.58 156.76 188.27C151.03 197.54 158.09 201.75 152.06 211.08C145.86 220.6 138.47 216.38 132.32 225.91Z" id="a4P7OrHkU"></path><path d="M169.99 175.49C138.6 157.58 113.8 137.58 102.22 122.14C118.14 116.76 135.63 119.35 148.68 129.04C165.7 142.35 158.5 168.1 173.65 177.07C173.6 177.15 173.45 177.38 173.43 177.41C172.28 176.77 171.13 176.15 169.99 175.49Z" id="h9qCl5o4xL"></path><path d="M169.99 175.49C138.6 157.58 113.8 137.58 102.22 122.14C118.14 116.76 135.63 119.35 148.68 129.04C165.7 142.35 158.5 168.1 173.65 177.07C173.6 177.15 173.45 177.38 173.43 177.41C172.28 176.77 171.13 176.15 169.99 175.49Z" id="d1QrODsQ27"></path><path d="M200.18 129.04C151.15 101.08 104.68 88.76 96.33 101.6C96.02 102.1 95.75 102.62 95.54 103.16C95.54 103.16 95.56 103.19 95.56 103.21C95.53 103.25 95.53 103.25 95.53 103.28C93.95 107.89 96.44 114.47 102.22 122.14C113.8 137.58 138.6 157.58 169.99 175.49C171.13 176.15 172.28 176.77 173.43 177.41C219.17 202.92 261.94 214.5 272.6 204.42C276.27 200.36 267.41 191.68 267.41 191.68C262.39 184.8 247.34 164.2 242.32 157.34C229.08 146.89 214.98 137.42 200.18 129.04ZM163.71 161.9C141.17 147.92 122.06 132.61 111.58 120.03C110.81 119.08 110.03 118.15 109.35 117.22C106.58 114.08 104.67 110.32 103.78 106.27C103.83 106.2 104.21 105.7 104.26 105.64C104.6 105.49 104.97 105.38 105.35 105.29C117.61 102.32 153.37 112.14 195.57 136.21C209.59 144.16 222.95 153.09 235.56 162.93C235.6 162.97 235.74 163.18 235.99 163.56C249.96 185.26 257.71 197.33 259.27 199.75C246.78 199.57 223.71 193.06 196.08 179.62C190.22 176.83 184.18 173.66 177.99 170.23C177.31 169.85 174.94 168.54 174.61 168.37C170.89 166.24 167.31 164.09 163.71 161.9Z" id="bRguJzd9w"></path><path d="M200.18 129.04C151.15 101.08 104.68 88.76 96.33 101.6C96.02 102.1 95.75 102.62 95.54 103.16C95.54 103.16 95.56 103.19 95.56 103.21C95.53 103.25 95.53 103.25 95.53 103.28C93.95 107.89 96.44 114.47 102.22 122.14C113.8 137.58 138.6 157.58 169.99 175.49C171.13 176.15 172.28 176.77 173.43 177.41C219.17 202.92 261.94 214.5 272.6 204.42C276.27 200.36 267.41 191.68 267.41 191.68C262.39 184.8 247.34 164.2 242.32 157.34C229.08 146.89 214.98 137.42 200.18 129.04ZM163.71 161.9C141.17 147.92 122.06 132.61 111.58 120.03C110.81 119.08 110.03 118.15 109.35 117.22C106.58 114.08 104.67 110.32 103.78 106.27C103.83 106.2 104.21 105.7 104.26 105.64C104.6 105.49 104.97 105.38 105.35 105.29C117.61 102.32 153.37 112.14 195.57 136.21C209.59 144.16 222.95 153.09 235.56 162.93C235.6 162.97 235.74 163.18 235.99 163.56C249.96 185.26 257.71 197.33 259.27 199.75C246.78 199.57 223.71 193.06 196.08 179.62C190.22 176.83 184.18 173.66 177.99 170.23C177.31 169.85 174.94 168.54 174.61 168.37C170.89 166.24 167.31 164.09 163.71 161.9Z" id="d3nIqZUky7"></path><path d="M267.05 198.53C267.03 198.53 266.92 198.56 266.91 198.56C264.18 199.38 261.34 199.78 258.49 199.72C252.92 199.38 247.43 198.52 242.08 197.1C238.58 196.21 234.81 195.12 230.75 193.81C218.83 189.87 207.25 185.13 196.08 179.62C197.78 179.39 199.56 179.12 201.41 178.76C220.32 175.14 233.89 167.17 242.32 157.34C256.84 141.24 256.06 117.55 240.53 103.11C215.99 79.33 275.68 64.41 287.93 130.21C291.42 147.19 290.49 164.84 285.2 181.61C282.45 189.72 275.62 196.07 267.05 198.53Z" id="fevl6UZML"></path><path d="M267.05 198.53C267.03 198.53 266.92 198.56 266.91 198.56C264.18 199.38 261.34 199.78 258.49 199.72C252.92 199.38 247.43 198.52 242.08 197.1C238.58 196.21 234.81 195.12 230.75 193.81C218.83 189.87 207.25 185.13 196.08 179.62C197.78 179.39 199.56 179.12 201.41 178.76C220.32 175.14 233.89 167.17 242.32 157.34C256.84 141.24 256.06 117.55 240.53 103.11C215.99 79.33 275.68 64.41 287.93 130.21C291.42 147.19 290.49 164.84 285.2 181.61C282.45 189.72 275.62 196.07 267.05 198.53Z" id="axduJEOKk"></path><path d="M230.75 193.81C242.44 188.62 252.02 179.83 257.93 168.91C259.02 166.84 261.64 165.96 263.8 166.94C265.94 167.91 266.81 170.39 265.72 172.46C260.4 182.58 252.2 191.13 242.08 197.1C238.58 196.21 234.81 195.12 230.75 193.81Z" id="a1Nbn4D7NV"></path><path d="M230.75 193.81C242.44 188.62 252.02 179.83 257.93 168.91C259.02 166.84 261.64 165.96 263.8 166.94C265.94 167.91 266.81 170.39 265.72 172.46C260.4 182.58 252.2 191.13 242.08 197.1C238.58 196.21 234.81 195.12 230.75 193.81Z" id="d7C9OtR16"></path></defs><g><g><g><use xlink:href="#g4cYORyDf" opacity="1" fill="#c03a2b" fill-opacity="1"></use><g><use xlink:href="#g4cYORyDf" opacity="1" fill-opacity="0" stroke="#000000" stroke-width="1" stroke-opacity="0"></use></g></g><g><use xlink:href="#bLFkdx4oi" opacity="1" fill="#000000" fill-opacity="0"></use><g><use xlink:href="#bLFkdx4oi" opacity="1" fill-opacity="0" stroke="#000000" stroke-width="1" stroke-opacity="0"></use></g></g><g><use xlink:href="#b25goAZeAz" opacity="1" fill="#bdc3c7" fill-opacity="1"></use><g><use xlink:href="#b25goAZeAz" opacity="1" fill-opacity="0" stroke="#000000" stroke-width="1" stroke-opacity="0"></use></g></g><g><use xlink:href="#h6VQ7vEgLC" opacity="1" fill="#000000" fill-opacity="0"></use><g><use xlink:href="#h6VQ7vEgLC" opacity="1" fill-opacity="0" stroke="#000000" stroke-width="1" stroke-opacity="0"></use></g></g><g><use xlink:href="#b5kKNwh7Q6" opacity="1" fill="#e64c3c" fill-opacity="1"></use><g><use xlink:href="#b5kKNwh7Q6" opacity="1" fill-opacity="0" stroke="#000000" stroke-width="1" stroke-opacity="0"></use></g></g><g><use xlink:href="#f2dVEU8DSJ" opacity="1" fill="#000000" fill-opacity="0"></use><g><use xlink:href="#f2dVEU8DSJ" opacity="1" fill-opacity="0" stroke="#000000" stroke-width="1" stroke-opacity="0"></use></g></g><g><use xlink:href="#d5njgqPdPA" opacity="1" fill="#bdc3c7" fill-opacity="1"></use><g><use xlink:href="#d5njgqPdPA" opacity="1" fill-opacity="0" stroke="#000000" stroke-width="1" stroke-opacity="0"></use></g></g><g><use xlink:href="#b1EFvQdvbP" opacity="1" fill="#000000" fill-opacity="0"></use><g><use xlink:href="#b1EFvQdvbP" opacity="1" fill-opacity="0" stroke="#000000" stroke-width="1" stroke-opacity="0"></use></g></g><g><use xlink:href="#bykZVZ6oq" opacity="1" fill="#a56a43" fill-opacity="1"></use><g><use xlink:href="#bykZVZ6oq" opacity="1" fill-opacity="0" stroke="#000000" stroke-width="1" stroke-opacity="0"></use></g></g><g><use xlink:href="#fanXUM3P1" opacity="1" fill="#000000" fill-opacity="0"></use><g><use xlink:href="#fanXUM3P1" opacity="1" fill-opacity="0" stroke="#000000" stroke-width="1" stroke-opacity="0"></use></g></g><g><use xlink:href="#diDYPySZU" opacity="1" fill="#f29c1f" fill-opacity="1"></use><g><use xlink:href="#diDYPySZU" opacity="1" fill-opacity="0" stroke="#000000" stroke-width="1" stroke-opacity="0"></use></g></g><g><use xlink:href="#bdzWbZSI2" opacity="1" fill="#000000" fill-opacity="0"></use><g><use xlink:href="#bdzWbZSI2" opacity="1" fill-opacity="0" stroke="#000000" stroke-width="1" stroke-opacity="0"></use></g></g><g><use xlink:href="#ah76LgtMX" opacity="1" fill="#e57e25" fill-opacity="1"></use><g><use xlink:href="#ah76LgtMX" opacity="1" fill-opacity="0" stroke="#000000" stroke-width="1" stroke-opacity="0"></use></g></g><g><use xlink:href="#a4P7OrHkU" opacity="1" fill="#000000" fill-opacity="0"></use><g><use xlink:href="#a4P7OrHkU" opacity="1" fill-opacity="0" stroke="#000000" stroke-width="1" stroke-opacity="0"></use></g></g><g><use xlink:href="#h9qCl5o4xL" opacity="1" fill="#a56a43" fill-opacity="1"></use><g><use xlink:href="#h9qCl5o4xL" opacity="1" fill-opacity="0" stroke="#000000" stroke-width="1" stroke-opacity="0"></use></g></g><g><use xlink:href="#d1QrODsQ27" opacity="1" fill="#000000" fill-opacity="0"></use><g><use xlink:href="#d1QrODsQ27" opacity="1" fill-opacity="0" stroke="#000000" stroke-width="1" stroke-opacity="0"></use></g></g><g><use xlink:href="#bRguJzd9w" opacity="1" fill="#ecf0f1" fill-opacity="1"></use><g><use xlink:href="#bRguJzd9w" opacity="1" fill-opacity="0" stroke="#000000" stroke-width="1" stroke-opacity="0"></use></g></g><g><use xlink:href="#d3nIqZUky7" opacity="1" fill="#000000" fill-opacity="0"></use><g><use xlink:href="#d3nIqZUky7" opacity="1" fill-opacity="0" stroke="#000000" stroke-width="1" stroke-opacity="0"></use></g></g><g><use xlink:href="#fevl6UZML" opacity="1" fill="#a56a43" fill-opacity="1"></use><g><use xlink:href="#fevl6UZML" opacity="1" fill-opacity="0" stroke="#000000" stroke-width="1" stroke-opacity="0"></use></g></g><g><use xlink:href="#axduJEOKk" opacity="1" fill="#000000" fill-opacity="0"></use><g><use xlink:href="#axduJEOKk" opacity="1" fill-opacity="0" stroke="#000000" stroke-width="1" stroke-opacity="0"></use></g></g><g><use xlink:href="#a1Nbn4D7NV" opacity="1" fill="#805333" fill-opacity="1"></use><g><use xlink:href="#a1Nbn4D7NV" opacity="1" fill-opacity="0" stroke="#000000" stroke-width="1" stroke-opacity="0"></use></g></g><g><use xlink:href="#d7C9OtR16" opacity="1" fill="#000000" fill-opacity="0"></use><g><use xlink:href="#d7C9OtR16" opacity="1" fill-opacity="0" stroke="#000000" stroke-width="1" stroke-opacity="0"></use></g></g></g></g></svg>