<?xml version="1.0" encoding="UTF-8" standalone="no"?>
<!DOCTYPE svg PUBLIC "-//W3C//DTD SVG 1.1//EN" "http://www.w3.org/Graphics/SVG/1.1/DTD/svg11.dtd">
<svg version="1.1" xmlns="http://www.w3.org/2000/svg" xmlns:xlink="http://www.w3.org/1999/xlink" preserveAspectRatio="xMidYMid meet" viewBox="0 0 320 320" width="320" height="320"><defs><path d="M193.83 62.04C183.71 64.83 172.9 68.01 161.74 69.21C161.39 69.21 158.6 69.21 158.26 69.21C147.09 68.01 136.28 64.83 126.17 62.04C94.44 52.88 67.92 44.91 43.51 94.3C37.24 107.44 31.65 124.56 27.82 142.88C23.64 162 20.85 182.31 20.15 200.63C19.45 220.94 21.2 235.68 25.03 246.03C28.86 255.58 34.45 261.56 41.77 263.95C48.39 265.94 56.07 265.14 64.09 261.16C77.69 254.79 93.39 241.25 108.73 224.92C119.54 212.97 139.77 207 160 207C180.23 207 200.45 212.97 211.26 224.92C226.61 241.25 242.3 254.79 255.91 261.16C263.92 264.75 271.6 265.94 278.22 263.95C285.2 261.56 291.13 255.98 294.97 245.63C298.8 235.68 300.54 220.94 299.85 200.23C299.15 181.91 296.36 161.6 292.18 142.48C287.98 124.16 282.76 107.04 276.48 93.9C252.07 44.91 225.56 52.48 193.83 62.04ZM219.98 214.96C206.73 199.83 183.36 192.27 160 192.27C136.63 192.27 113.27 199.83 99.66 214.17C85.36 229.3 71.06 242.05 59.21 247.22C53.63 249.61 48.74 250.81 44.91 249.21C41.42 248.02 38.63 244.83 36.54 239.26C33.75 231.69 32.35 219.34 33.05 201.02C33.75 183.9 36.19 164.39 40.38 146.07C44.21 128.94 49.09 113.01 55.03 101.07C74.21 61.64 96.53 68.01 123.03 75.98C133.84 79.16 145 82.35 157.21 83.54C157.56 83.54 157.56 83.54 157.91 83.54C158.28 83.54 161.35 83.54 161.74 83.54C162.09 83.54 162.09 83.54 162.44 83.54C175 82.35 186.15 79.16 196.97 75.98C223.47 68.41 245.79 61.64 264.97 101.07C270.9 113.01 275.78 128.54 279.62 146.07C283.45 164.39 286.24 183.5 286.94 201.02C287.64 219.34 286.24 231.69 283.1 240.05C281.01 245.63 278.22 248.81 274.74 250.01C270.9 251.2 266.01 250.41 260.44 248.02C248.23 242.44 233.94 230.09 219.98 214.96Z" id="avYemBW14"></path><path d="M193.83 62.04C183.71 64.83 172.9 68.01 161.74 69.21C161.39 69.21 158.6 69.21 158.26 69.21C147.09 68.01 136.28 64.83 126.17 62.04C94.44 52.88 67.92 44.91 43.51 94.3C37.24 107.44 31.65 124.56 27.82 142.88C23.64 162 20.85 182.31 20.15 200.63C19.45 220.94 21.2 235.68 25.03 246.03C28.86 255.58 34.45 261.56 41.77 263.95C48.39 265.94 56.07 265.14 64.09 261.16C77.69 254.79 93.39 241.25 108.73 224.92C119.54 212.97 139.77 207 160 207C180.23 207 200.45 212.97 211.26 224.92C226.61 241.25 242.3 254.79 255.91 261.16C263.92 264.75 271.6 265.94 278.22 263.95C285.2 261.56 291.13 255.98 294.97 245.63C298.8 235.68 300.54 220.94 299.85 200.23C299.15 181.91 296.36 161.6 292.18 142.48C287.98 124.16 282.76 107.04 276.48 93.9C252.07 44.91 225.56 52.48 193.83 62.04ZM219.98 214.96C206.73 199.83 183.36 192.27 160 192.27C136.63 192.27 113.27 199.83 99.66 214.17C85.36 229.3 71.06 242.05 59.21 247.22C53.63 249.61 48.74 250.81 44.91 249.21C41.42 248.02 38.63 244.83 36.54 239.26C33.75 231.69 32.35 219.34 33.05 201.02C33.75 183.9 36.19 164.39 40.38 146.07C44.21 128.94 49.09 113.01 55.03 101.07C74.21 61.64 96.53 68.01 123.03 75.98C133.84 79.16 145 82.35 157.21 83.54C157.56 83.54 157.56 83.54 157.91 83.54C158.28 83.54 161.35 83.54 161.74 83.54C162.09 83.54 162.09 83.54 162.44 83.54C175 82.35 186.15 79.16 196.97 75.98C223.47 68.41 245.79 61.64 264.97 101.07C270.9 113.01 275.78 128.54 279.62 146.07C283.45 164.39 286.24 183.5 286.94 201.02C287.64 219.34 286.24 231.69 283.1 240.05C281.01 245.63 278.22 248.81 274.74 250.01C270.9 251.2 266.01 250.41 260.44 248.02C248.23 242.44 233.94 230.09 219.98 214.96Z" id="aHx3qv868"></path><path d="M193.83 62.04C183.71 64.83 172.9 68.01 161.74 69.21C161.39 69.21 158.6 69.21 158.26 69.21C147.09 68.01 136.28 64.83 126.17 62.04C94.44 52.88 67.92 44.91 43.51 94.3C37.24 107.44 31.65 124.56 27.82 142.88C23.64 162 20.85 182.31 20.15 200.63C19.45 220.94 21.2 235.68 25.03 246.03C28.86 255.58 34.45 261.56 41.77 263.95C48.39 265.94 56.07 265.14 64.09 261.16C77.69 254.79 93.39 241.25 108.73 224.92C119.54 212.97 139.77 207 160 207C180.23 207 200.45 212.97 211.26 224.92C226.61 241.25 242.3 254.79 255.91 261.16C263.92 264.75 271.6 265.94 278.22 263.95C285.2 261.56 291.13 255.98 294.97 245.63C298.8 235.68 300.54 220.94 299.85 200.23C299.15 181.91 296.36 161.6 292.18 142.48C287.98 124.16 282.76 107.04 276.48 93.9C252.07 44.91 225.56 52.48 193.83 62.04ZM219.98 214.96C206.73 199.83 183.36 192.27 160 192.27C136.63 192.27 113.27 199.83 99.66 214.17C85.36 229.3 71.06 242.05 59.21 247.22C53.63 249.61 48.74 250.81 44.91 249.21C41.42 248.02 38.63 244.83 36.54 239.26C33.75 231.69 32.35 219.34 33.05 201.02C33.75 183.9 36.19 164.39 40.38 146.07C44.21 128.94 49.09 113.01 55.03 101.07C74.21 61.64 96.53 68.01 123.03 75.98C133.84 79.16 145 82.35 157.21 83.54C157.56 83.54 157.56 83.54 157.91 83.54C158.28 83.54 161.35 83.54 161.74 83.54C162.09 83.54 162.09 83.54 162.44 83.54C175 82.35 186.15 79.16 196.97 75.98C223.47 68.41 245.79 61.64 264.97 101.07C270.9 113.01 275.78 128.54 279.62 146.07C283.45 164.39 286.24 183.5 286.94 201.02C287.64 219.34 286.24 231.69 283.1 240.05C281.01 245.63 278.22 248.81 274.74 250.01C270.9 251.2 266.01 250.41 260.44 248.02C248.23 242.44 233.94 230.09 219.98 214.96Z" id="c4p5kRFnx4"></path><path d="M193.83 62.04C183.71 64.83 172.9 68.01 161.74 69.21C161.39 69.21 158.6 69.21 158.26 69.21C147.09 68.01 136.28 64.83 126.17 62.04C94.44 52.88 67.92 44.91 43.51 94.3C37.24 107.44 31.65 124.56 27.82 142.88C23.64 162 20.85 182.31 20.15 200.63C19.45 220.94 21.2 235.68 25.03 246.03C28.86 255.58 34.45 261.56 41.77 263.95C48.39 265.94 56.07 265.14 64.09 261.16C77.69 254.79 93.39 241.25 108.73 224.92C119.54 212.97 139.77 207 160 207C180.23 207 200.45 212.97 211.26 224.92C226.61 241.25 242.3 254.79 255.91 261.16C263.92 264.75 271.6 265.94 278.22 263.95C285.2 261.56 291.13 255.98 294.97 245.63C298.8 235.68 300.54 220.94 299.85 200.23C299.15 181.91 296.36 161.6 292.18 142.48C287.98 124.16 282.76 107.04 276.48 93.9C252.07 44.91 225.56 52.48 193.83 62.04ZM219.98 214.96C206.73 199.83 183.36 192.27 160 192.27C136.63 192.27 113.27 199.83 99.66 214.17C85.36 229.3 71.06 242.05 59.21 247.22C53.63 249.61 48.74 250.81 44.91 249.21C41.42 248.02 38.63 244.83 36.54 239.26C33.75 231.69 32.35 219.34 33.05 201.02C33.75 183.9 36.19 164.39 40.38 146.07C44.21 128.94 49.09 113.01 55.03 101.07C74.21 61.64 96.53 68.01 123.03 75.98C133.84 79.16 145 82.35 157.21 83.54C157.56 83.54 157.56 83.54 157.91 83.54C158.28 83.54 161.35 83.54 161.74 83.54C162.09 83.54 162.09 83.54 162.44 83.54C175 82.35 186.15 79.16 196.97 75.98C223.47 68.41 245.79 61.64 264.97 101.07C270.9 113.01 275.78 128.54 279.62 146.07C283.45 164.39 286.24 183.5 286.94 201.02C287.64 219.34 286.24 231.69 283.1 240.05C281.01 245.63 278.22 248.81 274.74 250.01C270.9 251.2 266.01 250.41 260.44 248.02C248.23 242.44 233.94 230.09 219.98 214.96Z" id="asE0hnmYC"></path><path d="M109.42 101.47C105.59 97.08 100.71 94.69 95.13 94.69C89.55 94.69 84.32 97.48 80.83 101.47C77.69 105.05 75.25 110.22 74.91 115.8C70.02 116.2 65.83 118.59 62.35 122.17C62.31 122.21 62.03 122.53 62 122.57C58.16 126.95 56.07 132.53 56.07 138.9C56.07 145.27 58.51 151.24 62 155.23C65.48 159.21 69.67 161.6 74.91 162C75.25 167.57 77.35 172.75 80.83 176.33C84.67 180.72 89.55 183.1 95.13 183.1C100.71 183.1 105.94 180.32 109.42 176.33C112.57 172.35 115.01 167.57 115.36 162C120.24 161.6 124.77 159.21 127.91 155.23C131.75 150.84 133.84 145.27 133.84 138.9C133.84 132.53 131.4 126.55 127.91 122.57C124.42 118.99 120.24 116.2 115.36 115.8C115.01 110.62 112.92 105.45 109.77 101.86C109.74 101.82 109.46 101.51 109.42 101.47ZM102.45 154.83C102.45 155.35 102.45 159.49 102.45 160.01C102.45 162.4 101.76 164.39 100.36 165.98C98.97 167.57 97.22 168.37 95.13 168.37C93.04 168.37 91.29 167.57 89.89 165.98C88.5 164.39 87.8 162.4 87.8 160.01C87.8 159.45 87.8 154.99 87.8 154.43C87.8 150.45 85.01 146.86 81.18 146.86C80.69 146.86 76.79 146.86 76.3 146.86C74.21 146.86 72.46 146.07 71.06 144.48C70.02 143.28 68.97 141.29 68.97 138.9C68.97 136.51 69.67 134.52 71.06 132.92C71.06 132.92 71.06 132.92 71.41 132.53C72.81 131.33 74.56 130.54 76.3 130.54C76.79 130.54 80.69 130.54 81.18 130.54C84.67 130.54 87.8 127.35 87.8 122.97C87.8 122.41 87.8 117.95 87.8 117.39C87.8 115 88.5 113.01 89.89 111.42C91.29 109.83 93.04 109.03 95.13 109.03C97.22 109.03 98.97 109.83 100.36 111.42C100.36 111.42 100.36 111.42 100.71 111.82C101.76 113.41 102.45 115.4 102.45 117.39C102.45 117.95 102.45 122.41 102.45 122.97C102.45 126.95 105.24 130.54 109.08 130.54C109.56 130.54 113.48 130.54 113.97 130.54C116.06 130.54 117.8 131.33 119.19 132.92C120.59 134.52 121.29 136.51 121.29 138.9C121.29 141.29 120.59 143.28 119.19 144.87C117.8 146.46 116.06 147.26 113.97 147.26C113.48 147.26 109.56 147.26 109.08 147.26C105.59 147.26 102.45 150.45 102.45 154.83Z" id="c2P61umGmj"></path><path d="M109.42 101.47C105.59 97.08 100.71 94.69 95.13 94.69C89.55 94.69 84.32 97.48 80.83 101.47C77.69 105.05 75.25 110.22 74.91 115.8C70.02 116.2 65.83 118.59 62.35 122.17C62.31 122.21 62.03 122.53 62 122.57C58.16 126.95 56.07 132.53 56.07 138.9C56.07 145.27 58.51 151.24 62 155.23C65.48 159.21 69.67 161.6 74.91 162C75.25 167.57 77.35 172.75 80.83 176.33C84.67 180.72 89.55 183.1 95.13 183.1C100.71 183.1 105.94 180.32 109.42 176.33C112.57 172.35 115.01 167.57 115.36 162C120.24 161.6 124.77 159.21 127.91 155.23C131.75 150.84 133.84 145.27 133.84 138.9C133.84 132.53 131.4 126.55 127.91 122.57C124.42 118.99 120.24 116.2 115.36 115.8C115.01 110.62 112.92 105.45 109.77 101.86C109.74 101.82 109.46 101.51 109.42 101.47ZM102.45 154.83C102.45 155.35 102.45 159.49 102.45 160.01C102.45 162.4 101.76 164.39 100.36 165.98C98.97 167.57 97.22 168.37 95.13 168.37C93.04 168.37 91.29 167.57 89.89 165.98C88.5 164.39 87.8 162.4 87.8 160.01C87.8 159.45 87.8 154.99 87.8 154.43C87.8 150.45 85.01 146.86 81.18 146.86C80.69 146.86 76.79 146.86 76.3 146.86C74.21 146.86 72.46 146.07 71.06 144.48C70.02 143.28 68.97 141.29 68.97 138.9C68.97 136.51 69.67 134.52 71.06 132.92C71.06 132.92 71.06 132.92 71.41 132.53C72.81 131.33 74.56 130.54 76.3 130.54C76.79 130.54 80.69 130.54 81.18 130.54C84.67 130.54 87.8 127.35 87.8 122.97C87.8 122.41 87.8 117.95 87.8 117.39C87.8 115 88.5 113.01 89.89 111.42C91.29 109.83 93.04 109.03 95.13 109.03C97.22 109.03 98.97 109.83 100.36 111.42C100.36 111.42 100.36 111.42 100.71 111.82C101.76 113.41 102.45 115.4 102.45 117.39C102.45 117.95 102.45 122.41 102.45 122.97C102.45 126.95 105.24 130.54 109.08 130.54C109.56 130.54 113.48 130.54 113.97 130.54C116.06 130.54 117.8 131.33 119.19 132.92C120.59 134.52 121.29 136.51 121.29 138.9C121.29 141.29 120.59 143.28 119.19 144.87C117.8 146.46 116.06 147.26 113.97 147.26C113.48 147.26 109.56 147.26 109.08 147.26C105.59 147.26 102.45 150.45 102.45 154.83Z" id="e2V3VuBY4O"></path><path d="M109.42 101.47C105.59 97.08 100.71 94.69 95.13 94.69C89.55 94.69 84.32 97.48 80.83 101.47C77.69 105.05 75.25 110.22 74.91 115.8C70.02 116.2 65.83 118.59 62.35 122.17C62.31 122.21 62.03 122.53 62 122.57C58.16 126.95 56.07 132.53 56.07 138.9C56.07 145.27 58.51 151.24 62 155.23C65.48 159.21 69.67 161.6 74.91 162C75.25 167.57 77.35 172.75 80.83 176.33C84.67 180.72 89.55 183.1 95.13 183.1C100.71 183.1 105.94 180.32 109.42 176.33C112.57 172.35 115.01 167.57 115.36 162C120.24 161.6 124.77 159.21 127.91 155.23C131.75 150.84 133.84 145.27 133.84 138.9C133.84 132.53 131.4 126.55 127.91 122.57C124.42 118.99 120.24 116.2 115.36 115.8C115.01 110.62 112.92 105.45 109.77 101.86C109.74 101.82 109.46 101.51 109.42 101.47ZM102.45 154.83C102.45 155.35 102.45 159.49 102.45 160.01C102.45 162.4 101.76 164.39 100.36 165.98C98.97 167.57 97.22 168.37 95.13 168.37C93.04 168.37 91.29 167.57 89.89 165.98C88.5 164.39 87.8 162.4 87.8 160.01C87.8 159.45 87.8 154.99 87.8 154.43C87.8 150.45 85.01 146.86 81.18 146.86C80.69 146.86 76.79 146.86 76.3 146.86C74.21 146.86 72.46 146.07 71.06 144.48C70.02 143.28 68.97 141.29 68.97 138.9C68.97 136.51 69.67 134.52 71.06 132.92C71.06 132.92 71.06 132.92 71.41 132.53C72.81 131.33 74.56 130.54 76.3 130.54C76.79 130.54 80.69 130.54 81.18 130.54C84.67 130.54 87.8 127.35 87.8 122.97C87.8 122.41 87.8 117.95 87.8 117.39C87.8 115 88.5 113.01 89.89 111.42C91.29 109.83 93.04 109.03 95.13 109.03C97.22 109.03 98.97 109.83 100.36 111.42C100.36 111.42 100.36 111.42 100.71 111.82C101.76 113.41 102.45 115.4 102.45 117.39C102.45 117.95 102.45 122.41 102.45 122.97C102.45 126.95 105.24 130.54 109.08 130.54C109.56 130.54 113.48 130.54 113.97 130.54C116.06 130.54 117.8 131.33 119.19 132.92C120.59 134.52 121.29 136.51 121.29 138.9C121.29 141.29 120.59 143.28 119.19 144.87C117.8 146.46 116.06 147.26 113.97 147.26C113.48 147.26 109.56 147.26 109.08 147.26C105.59 147.26 102.45 150.45 102.45 154.83Z" id="bpC12zSZJ"></path><path d="M109.42 101.47C105.59 97.08 100.71 94.69 95.13 94.69C89.55 94.69 84.32 97.48 80.83 101.47C77.69 105.05 75.25 110.22 74.91 115.8C70.02 116.2 65.83 118.59 62.35 122.17C62.31 122.21 62.03 122.53 62 122.57C58.16 126.95 56.07 132.53 56.07 138.9C56.07 145.27 58.51 151.24 62 155.23C65.48 159.21 69.67 161.6 74.91 162C75.25 167.57 77.35 172.75 80.83 176.33C84.67 180.72 89.55 183.1 95.13 183.1C100.71 183.1 105.94 180.32 109.42 176.33C112.57 172.35 115.01 167.57 115.36 162C120.24 161.6 124.77 159.21 127.91 155.23C131.75 150.84 133.84 145.27 133.84 138.9C133.84 132.53 131.4 126.55 127.91 122.57C124.42 118.99 120.24 116.2 115.36 115.8C115.01 110.62 112.92 105.45 109.77 101.86C109.74 101.82 109.46 101.51 109.42 101.47ZM102.45 154.83C102.45 155.35 102.45 159.49 102.45 160.01C102.45 162.4 101.76 164.39 100.36 165.98C98.97 167.57 97.22 168.37 95.13 168.37C93.04 168.37 91.29 167.57 89.89 165.98C88.5 164.39 87.8 162.4 87.8 160.01C87.8 159.45 87.8 154.99 87.8 154.43C87.8 150.45 85.01 146.86 81.18 146.86C80.69 146.86 76.79 146.86 76.3 146.86C74.21 146.86 72.46 146.07 71.06 144.48C70.02 143.28 68.97 141.29 68.97 138.9C68.97 136.51 69.67 134.52 71.06 132.92C71.06 132.92 71.06 132.92 71.41 132.53C72.81 131.33 74.56 130.54 76.3 130.54C76.79 130.54 80.69 130.54 81.18 130.54C84.67 130.54 87.8 127.35 87.8 122.97C87.8 122.41 87.8 117.95 87.8 117.39C87.8 115 88.5 113.01 89.89 111.42C91.29 109.83 93.04 109.03 95.13 109.03C97.22 109.03 98.97 109.83 100.36 111.42C100.36 111.42 100.36 111.42 100.71 111.82C101.76 113.41 102.45 115.4 102.45 117.39C102.45 117.95 102.45 122.41 102.45 122.97C102.45 126.95 105.24 130.54 109.08 130.54C109.56 130.54 113.48 130.54 113.97 130.54C116.06 130.54 117.8 131.33 119.19 132.92C120.59 134.52 121.29 136.51 121.29 138.9C121.29 141.29 120.59 143.28 119.19 144.87C117.8 146.46 116.06 147.26 113.97 147.26C113.48 147.26 109.56 147.26 109.08 147.26C105.59 147.26 102.45 150.45 102.45 154.83Z" id="aPR2G3Cwv"></path><path d="M220.68 124.56C227.42 124.56 232.89 118.32 232.89 110.62C232.89 102.92 227.42 96.68 220.68 96.68C213.94 96.68 208.47 102.92 208.47 110.62C208.47 118.32 213.94 124.56 220.68 124.56Z" id="e4m3oOUupp"></path><path d="M220.68 124.56C227.42 124.56 232.89 118.32 232.89 110.62C232.89 102.92 227.42 96.68 220.68 96.68C213.94 96.68 208.47 102.92 208.47 110.62C208.47 118.32 213.94 124.56 220.68 124.56Z" id="c11L05Pu1"></path><path d="M220.68 124.56C227.42 124.56 232.89 118.32 232.89 110.62C232.89 102.92 227.42 96.68 220.68 96.68C213.94 96.68 208.47 102.92 208.47 110.62C208.47 118.32 213.94 124.56 220.68 124.56Z" id="g5dDz7XAr"></path><path d="M220.68 124.56C227.42 124.56 232.89 118.32 232.89 110.62C232.89 102.92 227.42 96.68 220.68 96.68C213.94 96.68 208.47 102.92 208.47 110.62C208.47 118.32 213.94 124.56 220.68 124.56Z" id="dTvWuBrfi"></path><path d="M220.68 181.12C227.42 181.12 232.89 174.87 232.89 167.18C232.89 159.48 227.42 153.24 220.68 153.24C213.94 153.24 208.47 159.48 208.47 167.18C208.47 174.87 213.94 181.12 220.68 181.12Z" id="f1AnaRuUst"></path><path d="M220.68 181.12C227.42 181.12 232.89 174.87 232.89 167.18C232.89 159.48 227.42 153.24 220.68 153.24C213.94 153.24 208.47 159.48 208.47 167.18C208.47 174.87 213.94 181.12 220.68 181.12Z" id="d5srEAD4P3"></path><path d="M220.68 181.12C227.42 181.12 232.89 174.87 232.89 167.18C232.89 159.48 227.42 153.24 220.68 153.24C213.94 153.24 208.47 159.48 208.47 167.18C208.47 174.87 213.94 181.12 220.68 181.12Z" id="bgAW31VQY"></path><path d="M220.68 181.12C227.42 181.12 232.89 174.87 232.89 167.18C232.89 159.48 227.42 153.24 220.68 153.24C213.94 153.24 208.47 159.48 208.47 167.18C208.47 174.87 213.94 181.12 220.68 181.12Z" id="l6XC6v8PiN"></path><path d="M195.92 152.84C202.66 152.84 208.12 146.6 208.12 138.9C208.12 131.2 202.66 124.96 195.92 124.96C189.18 124.96 183.71 131.2 183.71 138.9C183.71 146.6 189.18 152.84 195.92 152.84Z" id="a8lln89nld"></path><path d="M195.92 152.84C202.66 152.84 208.12 146.6 208.12 138.9C208.12 131.2 202.66 124.96 195.92 124.96C189.18 124.96 183.71 131.2 183.71 138.9C183.71 146.6 189.18 152.84 195.92 152.84Z" id="h2yctbEJTR"></path><path d="M195.92 152.84C202.66 152.84 208.12 146.6 208.12 138.9C208.12 131.2 202.66 124.96 195.92 124.96C189.18 124.96 183.71 131.2 183.71 138.9C183.71 146.6 189.18 152.84 195.92 152.84Z" id="a1oZBDkipL"></path><path d="M195.92 152.84C202.66 152.84 208.12 146.6 208.12 138.9C208.12 131.2 202.66 124.96 195.92 124.96C189.18 124.96 183.71 131.2 183.71 138.9C183.71 146.6 189.18 152.84 195.92 152.84Z" id="j5rO5zPSaB"></path><path d="M245.44 152.84C252.18 152.84 257.65 146.6 257.65 138.9C257.65 131.2 252.18 124.96 245.44 124.96C238.7 124.96 233.24 131.2 233.24 138.9C233.24 146.6 238.7 152.84 245.44 152.84Z" id="a1jtekH2Rj"></path><path d="M245.44 152.84C252.18 152.84 257.65 146.6 257.65 138.9C257.65 131.2 252.18 124.96 245.44 124.96C238.7 124.96 233.24 131.2 233.24 138.9C233.24 146.6 238.7 152.84 245.44 152.84Z" id="doeD0MigQ"></path><path d="M245.44 152.84C252.18 152.84 257.65 146.6 257.65 138.9C257.65 131.2 252.18 124.96 245.44 124.96C238.7 124.96 233.24 131.2 233.24 138.9C233.24 146.6 238.7 152.84 245.44 152.84Z" id="a5oV4LPrlF"></path><path d="M245.44 152.84C252.18 152.84 257.65 146.6 257.65 138.9C257.65 131.2 252.18 124.96 245.44 124.96C238.7 124.96 233.24 131.2 233.24 138.9C233.24 146.6 238.7 152.84 245.44 152.84Z" id="ctsPc9dtU"></path></defs><g><g><g><use xlink:href="#avYemBW14" opacity="1" fill="#4953b8" fill-opacity="1"></use><g><use xlink:href="#avYemBW14" opacity="1" fill-opacity="0" stroke="#000000" stroke-width="1" stroke-opacity="0"></use></g></g><g><use xlink:href="#aHx3qv868" opacity="1" fill="#000000" fill-opacity="0"></use><g><use xlink:href="#aHx3qv868" opacity="1" fill-opacity="0" stroke="#000000" stroke-width="1" stroke-opacity="0"></use></g></g><g><use xlink:href="#c4p5kRFnx4" opacity="1" fill="#000000" fill-opacity="0"></use><g><use xlink:href="#c4p5kRFnx4" opacity="1" fill-opacity="0" stroke="#000000" stroke-width="1" stroke-opacity="0"></use></g></g><g><use xlink:href="#asE0hnmYC" opacity="1" fill="#000000" fill-opacity="0"></use><g><use xlink:href="#asE0hnmYC" opacity="1" fill-opacity="0" stroke="#000000" stroke-width="1" stroke-opacity="0"></use></g></g><g><use xlink:href="#c2P61umGmj" opacity="1" fill="#4953b8" fill-opacity="1"></use><g><use xlink:href="#c2P61umGmj" opacity="1" fill-opacity="0" stroke="#000000" stroke-width="1" stroke-opacity="0"></use></g></g><g><use xlink:href="#e2V3VuBY4O" opacity="1" fill="#000000" fill-opacity="0"></use><g><use xlink:href="#e2V3VuBY4O" opacity="1" fill-opacity="0" stroke="#000000" stroke-width="1" stroke-opacity="0"></use></g></g><g><use xlink:href="#bpC12zSZJ" opacity="1" fill="#000000" fill-opacity="0"></use><g><use xlink:href="#bpC12zSZJ" opacity="1" fill-opacity="0" stroke="#000000" stroke-width="1" stroke-opacity="0"></use></g></g><g><use xlink:href="#aPR2G3Cwv" opacity="1" fill="#000000" fill-opacity="0"></use><g><use xlink:href="#aPR2G3Cwv" opacity="1" fill-opacity="0" stroke="#000000" stroke-width="1" stroke-opacity="0"></use></g></g><g><use xlink:href="#e4m3oOUupp" opacity="1" fill="#4953b8" fill-opacity="1"></use><g><use xlink:href="#e4m3oOUupp" opacity="1" fill-opacity="0" stroke="#000000" stroke-width="1" stroke-opacity="0"></use></g></g><g><use xlink:href="#c11L05Pu1" opacity="1" fill="#000000" fill-opacity="0"></use><g><use xlink:href="#c11L05Pu1" opacity="1" fill-opacity="0" stroke="#000000" stroke-width="1" stroke-opacity="0"></use></g></g><g><use xlink:href="#g5dDz7XAr" opacity="1" fill="#000000" fill-opacity="0"></use><g><use xlink:href="#g5dDz7XAr" opacity="1" fill-opacity="0" stroke="#000000" stroke-width="1" stroke-opacity="0"></use></g></g><g><use xlink:href="#dTvWuBrfi" opacity="1" fill="#000000" fill-opacity="0"></use><g><use xlink:href="#dTvWuBrfi" opacity="1" fill-opacity="0" stroke="#000000" stroke-width="1" stroke-opacity="0"></use></g></g><g><use xlink:href="#f1AnaRuUst" opacity="1" fill="#4953b8" fill-opacity="1"></use><g><use xlink:href="#f1AnaRuUst" opacity="1" fill-opacity="0" stroke="#000000" stroke-width="1" stroke-opacity="0"></use></g></g><g><use xlink:href="#d5srEAD4P3" opacity="1" fill="#000000" fill-opacity="0"></use><g><use xlink:href="#d5srEAD4P3" opacity="1" fill-opacity="0" stroke="#000000" stroke-width="1" stroke-opacity="0"></use></g></g><g><use xlink:href="#bgAW31VQY" opacity="1" fill="#000000" fill-opacity="0"></use><g><use xlink:href="#bgAW31VQY" opacity="1" fill-opacity="0" stroke="#000000" stroke-width="1" stroke-opacity="0"></use></g></g><g><use xlink:href="#l6XC6v8PiN" opacity="1" fill="#000000" fill-opacity="0"></use><g><use xlink:href="#l6XC6v8PiN" opacity="1" fill-opacity="0" stroke="#000000" stroke-width="1" stroke-opacity="0"></use></g></g><g><use xlink:href="#a8lln89nld" opacity="1" fill="#4953b8" fill-opacity="1"></use><g><use xlink:href="#a8lln89nld" opacity="1" fill-opacity="0" stroke="#000000" stroke-width="1" stroke-opacity="0"></use></g></g><g><use xlink:href="#h2yctbEJTR" opacity="1" fill="#000000" fill-opacity="0"></use><g><use xlink:href="#h2yctbEJTR" opacity="1" fill-opacity="0" stroke="#000000" stroke-width="1" stroke-opacity="0"></use></g></g><g><use xlink:href="#a1oZBDkipL" opacity="1" fill="#000000" fill-opacity="0"></use><g><use xlink:href="#a1oZBDkipL" opacity="1" fill-opacity="0" stroke="#000000" stroke-width="1" stroke-opacity="0"></use></g></g><g><use xlink:href="#j5rO5zPSaB" opacity="1" fill="#000000" fill-opacity="0"></use><g><use xlink:href="#j5rO5zPSaB" opacity="1" fill-opacity="0" stroke="#000000" stroke-width="1" stroke-opacity="0"></use></g></g><g><use xlink:href="#a1jtekH2Rj" opacity="1" fill="#4953b8" fill-opacity="1"></use><g><use xlink:href="#a1jtekH2Rj" opacity="1" fill-opacity="0" stroke="#000000" stroke-width="1" stroke-opacity="0"></use></g></g><g><use xlink:href="#doeD0MigQ" opacity="1" fill="#000000" fill-opacity="0"></use><g><use xlink:href="#doeD0MigQ" opacity="1" fill-opacity="0" stroke="#000000" stroke-width="1" stroke-opacity="0"></use></g></g><g><use xlink:href="#a5oV4LPrlF" opacity="1" fill="#000000" fill-opacity="0"></use><g><use xlink:href="#a5oV4LPrlF" opacity="1" fill-opacity="0" stroke="#000000" stroke-width="1" stroke-opacity="0"></use></g></g><g><use xlink:href="#ctsPc9dtU" opacity="1" fill="#000000" fill-opacity="0"></use><g><use xlink:href="#ctsPc9dtU" opacity="1" fill-opacity="0" stroke="#000000" stroke-width="1" stroke-opacity="0"></use></g></g></g></g></svg>