<?xml version="1.0" encoding="UTF-8" standalone="no"?>
<!DOCTYPE svg PUBLIC "-//W3C//DTD SVG 1.1//EN" "http://www.w3.org/Graphics/SVG/1.1/DTD/svg11.dtd">
<svg version="1.1" xmlns="http://www.w3.org/2000/svg" xmlns:xlink="http://www.w3.org/1999/xlink" preserveAspectRatio="xMidYMid meet" viewBox="0 0 320 320" width="320" height="320"><defs><path d="M68.37 96.19C76.75 102.48 143.85 152.81 152.24 159.1C153.41 160.02 155.14 160.38 156.78 160.06C158.41 159.74 159.68 158.78 160.11 157.56C160.53 156.34 160.05 155.04 158.84 154.16C153.24 149.96 125.28 128.99 74.96 91.25C71.8 90.37 69.62 90.39 68.42 91.29C66.62 92.63 66.6 94.82 68.37 96.19Z" id="a4DnVpcGz9"></path><path d="M68.37 96.19C76.75 102.48 143.85 152.81 152.24 159.1C153.41 160.02 155.14 160.38 156.78 160.06C158.41 159.74 159.68 158.78 160.11 157.56C160.53 156.34 160.05 155.04 158.84 154.16C153.24 149.96 125.28 128.99 74.96 91.25C71.8 90.37 69.62 90.39 68.42 91.29C66.62 92.63 66.6 94.82 68.37 96.19Z" id="aAKvQmtLy"></path><path d="M44.88 78.58C45.89 79.34 53.94 85.38 54.95 86.13C56.77 87.5 59.73 87.5 61.55 86.13C63.38 84.77 63.38 82.55 61.55 81.18C60.88 80.67 57.52 78.16 51.48 73.63C48.32 72.76 46.14 72.77 44.94 73.67C43.14 75.02 43.12 77.21 44.88 78.58Z" id="bhmwcyBJa"></path><path d="M44.88 78.58C45.89 79.34 53.94 85.38 54.95 86.13C56.77 87.5 59.73 87.5 61.55 86.13C63.38 84.77 63.38 82.55 61.55 81.18C60.88 80.67 57.52 78.16 51.48 73.63C48.32 72.76 46.14 72.77 44.94 73.67C43.14 75.02 43.12 77.21 44.88 78.58Z" id="c9s0OGQ7l"></path><path d="M246.06 184.29C251.59 180.13 251.59 173.4 246.04 169.25C240.5 165.1 231.53 165.1 226 169.26C225.35 169.74 222.12 172.16 216.32 176.51C214.98 175.24 204.31 165.07 202.98 163.8C256.05 132.46 285.54 115.05 291.43 111.56C292.43 110.97 293.06 110.1 293.19 109.16C293.87 104.12 299.28 63.87 299.95 58.84C299.95 58.72 299.93 58.6 299.91 58.49C299.93 58.37 299.95 58.25 299.95 58.14C299.92 58.02 299.87 57.91 299.82 57.8C299.76 57.58 299.67 57.35 299.54 57.14C299.43 56.93 299.29 56.74 299.13 56.55C298.96 56.37 298.77 56.2 298.55 56.05C298.35 55.89 298.12 55.75 297.87 55.63C297.62 55.51 297.36 55.4 297.09 55.32C296.81 55.23 296.52 55.16 296.22 55.12C296.05 55.09 295.92 55.02 295.76 55.01C295.59 54.99 295.44 55.04 295.29 55.04C295.13 55.04 294.99 54.99 294.82 55.01C288.11 55.51 234.44 59.54 227.74 60.05C226.47 60.14 225.32 60.61 224.53 61.36C220.23 65.46 198.72 85.96 159.99 122.86C121.27 85.96 99.76 65.46 95.45 61.36C94.67 60.61 93.51 60.14 92.25 60.05C85.54 59.54 31.87 55.51 25.16 55.01C25 55.01 24.86 55.04 24.7 55.04C24.54 55.04 24.39 54.99 24.23 55.01C24.07 55.02 23.92 55.09 23.76 55.12C23.49 55.16 23.21 55.22 22.95 55.3C22.64 55.4 22.35 55.51 22.08 55.65C21.87 55.77 21.67 55.89 21.49 56.03C21.26 56.21 21.05 56.39 20.86 56.6C20.72 56.76 20.6 56.94 20.5 57.12C20.37 57.34 20.27 57.58 20.21 57.82C20.15 57.92 20.1 58.03 20.06 58.14C20.06 58.25 20.08 58.37 20.1 58.49C20.08 58.6 20.06 58.72 20.06 58.84C20.73 63.87 26.1 104.12 26.77 109.16C26.9 110.1 27.53 110.97 28.53 111.56C34.42 115.05 63.92 132.47 117.01 163.83C115.67 165.1 104.97 175.26 103.64 176.53C97.82 172.16 94.58 169.74 93.94 169.26C88.34 165.24 79.53 165.24 73.93 169.26C71.27 171.24 69.78 173.95 69.78 176.76C69.78 179.58 71.27 182.28 73.93 184.27C74.62 184.79 78.1 187.4 84.35 192.09C59.76 214.55 46.09 227.03 43.36 229.53C30.38 229.64 19.95 237.59 20 247.33C20.05 257.07 30.57 264.95 43.55 264.99C56.53 265.03 67.13 257.2 67.28 247.46C70.61 245.41 87.23 235.16 117.17 216.71C123.43 221.41 126.91 224.02 127.6 224.53C133.14 228.61 142.03 228.58 147.51 224.46C153 220.34 153.05 213.68 147.62 209.52C146.97 209.04 143.74 206.61 137.93 202.25C139.4 201.38 146.75 197.04 159.99 189.21C173.23 197.03 180.58 201.37 182.05 202.24C176.25 206.6 173.03 209.02 172.38 209.5C168.34 212.54 167.13 217.1 169.31 221.06C171.48 225.03 176.62 227.63 182.34 227.66C182.34 227.66 182.38 227.66 182.39 227.66C186.15 227.66 189.77 226.53 192.42 224.53C193.11 224.01 196.59 221.4 202.84 216.72C232.76 235.17 249.38 245.41 252.71 247.46C252.85 257.21 263.45 265.04 276.44 265C289.43 264.97 299.95 257.08 300 247.33C300.05 237.59 289.61 229.64 276.62 229.53C271.16 224.53 257.5 212.06 235.63 192.1C241.89 187.41 245.36 184.81 246.06 184.29ZM284.12 106.98C231.99 137.77 203.02 154.88 197.23 158.3C193.47 154.71 191.37 152.72 190.96 152.32C190.83 152.2 190.7 152.09 190.56 152C190.17 151.62 188.21 149.76 184.69 146.39C224.84 116.28 247.15 99.55 251.61 96.2C253.38 94.83 253.35 92.64 251.55 91.3C249.75 89.95 246.84 89.93 245.01 91.26C240.6 94.56 218.55 111.09 178.88 140.86C178.01 140.04 173.7 135.92 165.93 128.51L230.64 66.86L290.08 62.39L284.12 106.98ZM33.55 239.63C39.14 235.44 48.21 235.44 53.8 239.63C59.37 243.82 59.37 250.62 53.8 254.81C48.21 259.01 39.14 259.01 33.55 254.81C27.96 250.62 27.96 243.82 33.55 239.63ZM53.58 231.16C56.08 228.89 68.54 217.53 90.98 197.07C92.29 198.05 98.81 202.94 110.54 211.74C83.24 228.55 68.08 237.89 65.04 239.76C63.23 237.35 61.68 235.65 60.38 234.67C58.41 233.2 56.11 232.02 53.58 231.16ZM141.02 219.56C140.12 220.24 138.89 220.63 137.61 220.63C136.33 220.63 135.1 220.24 134.2 219.56C133.3 218.89 128.84 215.55 120.8 209.52C118.12 207.51 96.65 191.4 93.96 189.39C85.91 183.35 81.44 180 80.55 179.32C79.33 178.41 78.85 177.08 79.29 175.83C79.74 174.58 81.04 173.6 82.71 173.27C84.37 172.93 86.15 173.29 87.37 174.2C90.94 176.89 108.83 190.31 141.02 214.47C142.27 216.94 142.27 218.64 141.02 219.58C141.02 219.58 141.02 219.57 141.02 219.56ZM110.3 181.49C118.73 173.47 123.41 169.02 124.35 168.13C139.35 176.98 147.69 181.91 149.36 182.89C149.5 183 149.66 183.1 149.82 183.19C150 183.29 150.88 183.81 152.47 184.75C151.05 185.59 144 189.75 131.3 197.24L120.8 189.37L110.3 181.49ZM35.86 106.98C35.47 104.01 33.48 89.15 29.91 62.39C65.57 65.07 85.38 66.56 89.34 66.86C145.89 120.73 177.3 150.66 183.59 156.64C183.69 156.75 183.81 156.85 183.94 156.94C183.94 156.94 183.94 156.95 183.94 156.96C189.19 161.96 192.1 164.74 192.69 165.3C192.72 165.32 192.72 165.36 192.75 165.39C192.78 165.42 192.82 165.42 192.85 165.45C193.97 166.52 199.58 171.87 209.69 181.5C208.99 182.02 205.48 184.64 199.18 189.37L188.67 197.25C169.06 185.66 158.17 179.22 155.99 177.93C155.81 177.81 155.68 177.72 155.59 177.66C147.6 172.95 107.7 149.39 35.86 106.98ZM185.8 219.57C184.9 220.26 183.66 220.65 182.37 220.65C180.43 220.62 178.69 219.73 177.96 218.38C177.22 217.04 177.62 215.49 178.98 214.44C179.87 213.78 184.33 210.44 192.35 204.42C193.25 203.74 197.73 200.39 205.79 194.34C213.85 188.29 218.33 184.93 219.22 184.26C227.24 178.25 231.7 174.91 232.59 174.24C233.51 173.56 234.76 173.19 236.05 173.19C238 173.18 239.77 174.07 240.51 175.42C241.26 176.78 240.84 178.34 239.45 179.37C238.56 180.04 234.1 183.37 226.09 189.37C226.09 189.37 226.07 189.38 226.04 189.39L199.2 209.53L199.18 209.55C190.86 215.79 186.4 219.13 185.8 219.57ZM229.01 197.07C251.44 217.55 263.9 228.92 266.39 231.2C261.28 232.88 257.19 235.95 254.94 239.78C248.87 236.05 233.71 226.7 209.45 211.75C213.36 208.81 227.05 198.54 229.01 197.07ZM266.19 239.63C271.78 235.44 280.83 235.44 286.42 239.63C292 243.82 292 250.62 286.42 254.81C280.83 259 271.78 259 266.19 254.81C260.6 250.62 260.6 243.82 266.19 239.63Z" id="a4hzMOKpAQ"></path><path d="M246.06 184.29C251.59 180.13 251.59 173.4 246.04 169.25C240.5 165.1 231.53 165.1 226 169.26C225.35 169.74 222.12 172.16 216.32 176.51C214.98 175.24 204.31 165.07 202.98 163.8C256.05 132.46 285.54 115.05 291.43 111.56C292.43 110.97 293.06 110.1 293.19 109.16C293.87 104.12 299.28 63.87 299.95 58.84C299.95 58.72 299.93 58.6 299.91 58.49C299.93 58.37 299.95 58.25 299.95 58.14C299.92 58.02 299.87 57.91 299.82 57.8C299.76 57.58 299.67 57.35 299.54 57.14C299.43 56.93 299.29 56.74 299.13 56.55C298.96 56.37 298.77 56.2 298.55 56.05C298.35 55.89 298.12 55.75 297.87 55.63C297.62 55.51 297.36 55.4 297.09 55.32C296.81 55.23 296.52 55.16 296.22 55.12C296.05 55.09 295.92 55.02 295.76 55.01C295.59 54.99 295.44 55.04 295.29 55.04C295.13 55.04 294.99 54.99 294.82 55.01C288.11 55.51 234.44 59.54 227.74 60.05C226.47 60.14 225.32 60.61 224.53 61.36C220.23 65.46 198.72 85.96 159.99 122.86C121.27 85.96 99.76 65.46 95.45 61.36C94.67 60.61 93.51 60.14 92.25 60.05C85.54 59.54 31.87 55.51 25.16 55.01C25 55.01 24.86 55.04 24.7 55.04C24.54 55.04 24.39 54.99 24.23 55.01C24.07 55.02 23.92 55.09 23.76 55.12C23.49 55.16 23.21 55.22 22.95 55.3C22.64 55.4 22.35 55.51 22.08 55.65C21.87 55.77 21.67 55.89 21.49 56.03C21.26 56.21 21.05 56.39 20.86 56.6C20.72 56.76 20.6 56.94 20.5 57.12C20.37 57.34 20.27 57.58 20.21 57.82C20.15 57.92 20.1 58.03 20.06 58.14C20.06 58.25 20.08 58.37 20.1 58.49C20.08 58.6 20.06 58.72 20.06 58.84C20.73 63.87 26.1 104.12 26.77 109.16C26.9 110.1 27.53 110.97 28.53 111.56C34.42 115.05 63.92 132.47 117.01 163.83C115.67 165.1 104.97 175.26 103.64 176.53C97.82 172.16 94.58 169.74 93.94 169.26C88.34 165.24 79.53 165.24 73.93 169.26C71.27 171.24 69.78 173.95 69.78 176.76C69.78 179.58 71.27 182.28 73.93 184.27C74.62 184.79 78.1 187.4 84.35 192.09C59.76 214.55 46.09 227.03 43.36 229.53C30.38 229.64 19.95 237.59 20 247.33C20.05 257.07 30.57 264.95 43.55 264.99C56.53 265.03 67.13 257.2 67.28 247.46C70.61 245.41 87.23 235.16 117.17 216.71C123.43 221.41 126.91 224.02 127.6 224.53C133.14 228.61 142.03 228.58 147.51 224.46C153 220.34 153.05 213.68 147.62 209.52C146.97 209.04 143.74 206.61 137.93 202.25C139.4 201.38 146.75 197.04 159.99 189.21C173.23 197.03 180.58 201.37 182.05 202.24C176.25 206.6 173.03 209.02 172.38 209.5C168.34 212.54 167.13 217.1 169.31 221.06C171.48 225.03 176.62 227.63 182.34 227.66C182.34 227.66 182.38 227.66 182.39 227.66C186.15 227.66 189.77 226.53 192.42 224.53C193.11 224.01 196.59 221.4 202.84 216.72C232.76 235.17 249.38 245.41 252.71 247.46C252.85 257.21 263.45 265.04 276.44 265C289.43 264.97 299.95 257.08 300 247.33C300.05 237.59 289.61 229.64 276.62 229.53C271.16 224.53 257.5 212.06 235.63 192.1C241.89 187.41 245.36 184.81 246.06 184.29ZM284.12 106.98C231.99 137.77 203.02 154.88 197.23 158.3C193.47 154.71 191.37 152.72 190.96 152.32C190.83 152.2 190.7 152.09 190.56 152C190.17 151.62 188.21 149.76 184.69 146.39C224.84 116.28 247.15 99.55 251.61 96.2C253.38 94.83 253.35 92.64 251.55 91.3C249.75 89.95 246.84 89.93 245.01 91.26C240.6 94.56 218.55 111.09 178.88 140.86C178.01 140.04 173.7 135.92 165.93 128.51L230.64 66.86L290.08 62.39L284.12 106.98ZM33.55 239.63C39.14 235.44 48.21 235.44 53.8 239.63C59.37 243.82 59.37 250.62 53.8 254.81C48.21 259.01 39.14 259.01 33.55 254.81C27.96 250.62 27.96 243.82 33.55 239.63ZM53.58 231.16C56.08 228.89 68.54 217.53 90.98 197.07C92.29 198.05 98.81 202.94 110.54 211.74C83.24 228.55 68.08 237.89 65.04 239.76C63.23 237.35 61.68 235.65 60.38 234.67C58.41 233.2 56.11 232.02 53.58 231.16ZM141.02 219.56C140.12 220.24 138.89 220.63 137.61 220.63C136.33 220.63 135.1 220.24 134.2 219.56C133.3 218.89 128.84 215.55 120.8 209.52C118.12 207.51 96.65 191.4 93.96 189.39C85.91 183.35 81.44 180 80.55 179.32C79.33 178.41 78.85 177.08 79.29 175.83C79.74 174.58 81.04 173.6 82.71 173.27C84.37 172.93 86.15 173.29 87.37 174.2C90.94 176.89 108.83 190.31 141.02 214.47C142.27 216.94 142.27 218.64 141.02 219.58C141.02 219.58 141.02 219.57 141.02 219.56ZM110.3 181.49C118.73 173.47 123.41 169.02 124.35 168.13C139.35 176.98 147.69 181.91 149.36 182.89C149.5 183 149.66 183.1 149.82 183.19C150 183.29 150.88 183.81 152.47 184.75C151.05 185.59 144 189.75 131.3 197.24L120.8 189.37L110.3 181.49ZM35.86 106.98C35.47 104.01 33.48 89.15 29.91 62.39C65.57 65.07 85.38 66.56 89.34 66.86C145.89 120.73 177.3 150.66 183.59 156.64C183.69 156.75 183.81 156.85 183.94 156.94C183.94 156.94 183.94 156.95 183.94 156.96C189.19 161.96 192.1 164.74 192.69 165.3C192.72 165.32 192.72 165.36 192.75 165.39C192.78 165.42 192.82 165.42 192.85 165.45C193.97 166.52 199.58 171.87 209.69 181.5C208.99 182.02 205.48 184.64 199.18 189.37L188.67 197.25C169.06 185.66 158.17 179.22 155.99 177.93C155.81 177.81 155.68 177.72 155.59 177.66C147.6 172.95 107.7 149.39 35.86 106.98ZM185.8 219.57C184.9 220.26 183.66 220.65 182.37 220.65C180.43 220.62 178.69 219.73 177.96 218.38C177.22 217.04 177.62 215.49 178.98 214.44C179.87 213.78 184.33 210.44 192.35 204.42C193.25 203.74 197.73 200.39 205.79 194.34C213.85 188.29 218.33 184.93 219.22 184.26C227.24 178.25 231.7 174.91 232.59 174.24C233.51 173.56 234.76 173.19 236.05 173.19C238 173.18 239.77 174.07 240.51 175.42C241.26 176.78 240.84 178.34 239.45 179.37C238.56 180.04 234.1 183.37 226.09 189.37C226.09 189.37 226.07 189.38 226.04 189.39L199.2 209.53L199.18 209.55C190.86 215.79 186.4 219.13 185.8 219.57ZM229.01 197.07C251.44 217.55 263.9 228.92 266.39 231.2C261.28 232.88 257.19 235.95 254.94 239.78C248.87 236.05 233.71 226.7 209.45 211.75C213.36 208.81 227.05 198.54 229.01 197.07ZM266.19 239.63C271.78 235.44 280.83 235.44 286.42 239.63C292 243.82 292 250.62 286.42 254.81C280.83 259 271.78 259 266.19 254.81C260.6 250.62 260.6 243.82 266.19 239.63Z" id="kXvy4KbG6"></path><path d="M265.04 86.12C266.05 85.37 274.1 79.33 275.1 78.58C276.31 77.7 276.8 76.4 276.37 75.17C275.95 73.95 274.67 73 273.04 72.68C271.41 72.36 269.68 72.72 268.5 73.63C267.5 74.38 259.44 80.42 258.43 81.18C257.1 82.18 256.7 83.68 257.42 84.99C258.14 86.3 259.84 87.15 261.73 87.15C261.73 87.15 261.74 87.15 261.74 87.15C262.97 87.15 264.16 86.78 265.04 86.12Z" id="m27bq85wwb"></path><path d="M265.04 86.12C266.05 85.37 274.1 79.33 275.1 78.58C276.31 77.7 276.8 76.4 276.37 75.17C275.95 73.95 274.67 73 273.04 72.68C271.41 72.36 269.68 72.72 268.5 73.63C267.5 74.38 259.44 80.42 258.43 81.18C257.1 82.18 256.7 83.68 257.42 84.99C258.14 86.3 259.84 87.15 261.73 87.15C261.73 87.15 261.74 87.15 261.74 87.15C262.97 87.15 264.16 86.78 265.04 86.12Z" id="c2MP8Wll5F"></path></defs><g><g><g><use xlink:href="#a4DnVpcGz9" opacity="1" fill="#4953b8" fill-opacity="1"></use><g><use xlink:href="#a4DnVpcGz9" opacity="1" fill-opacity="0" stroke="#000000" stroke-width="1" stroke-opacity="0"></use></g></g><g><use xlink:href="#aAKvQmtLy" opacity="1" fill="#000000" fill-opacity="0"></use><g><use xlink:href="#aAKvQmtLy" opacity="1" fill-opacity="0" stroke="#000000" stroke-width="1" stroke-opacity="0"></use></g></g><g><use xlink:href="#bhmwcyBJa" opacity="1" fill="#4953b8" fill-opacity="1"></use><g><use xlink:href="#bhmwcyBJa" opacity="1" fill-opacity="0" stroke="#000000" stroke-width="1" stroke-opacity="0"></use></g></g><g><use xlink:href="#c9s0OGQ7l" opacity="1" fill="#000000" fill-opacity="0"></use><g><use xlink:href="#c9s0OGQ7l" opacity="1" fill-opacity="0" stroke="#000000" stroke-width="1" stroke-opacity="0"></use></g></g><g><use xlink:href="#a4hzMOKpAQ" opacity="1" fill="#4953b8" fill-opacity="1"></use><g><use xlink:href="#a4hzMOKpAQ" opacity="1" fill-opacity="0" stroke="#000000" stroke-width="1" stroke-opacity="0"></use></g></g><g><use xlink:href="#kXvy4KbG6" opacity="1" fill="#000000" fill-opacity="0"></use><g><use xlink:href="#kXvy4KbG6" opacity="1" fill-opacity="0" stroke="#000000" stroke-width="1" stroke-opacity="0"></use></g></g><g><use xlink:href="#m27bq85wwb" opacity="1" fill="#4953b8" fill-opacity="1"></use><g><use xlink:href="#m27bq85wwb" opacity="1" fill-opacity="0" stroke="#000000" stroke-width="1" stroke-opacity="0"></use></g></g><g><use xlink:href="#c2MP8Wll5F" opacity="1" fill="#000000" fill-opacity="0"></use><g><use xlink:href="#c2MP8Wll5F" opacity="1" fill-opacity="0" stroke="#000000" stroke-width="1" stroke-opacity="0"></use></g></g></g></g></svg>