<?xml version="1.0" encoding="UTF-8" standalone="no"?>
<!DOCTYPE svg PUBLIC "-//W3C//DTD SVG 1.1//EN" "http://www.w3.org/Graphics/SVG/1.1/DTD/svg11.dtd">
<svg version="1.1" xmlns="http://www.w3.org/2000/svg" xmlns:xlink="http://www.w3.org/1999/xlink" preserveAspectRatio="xMidYMid meet" viewBox="0 0 320 320" width="320" height="320"><defs><path d="M290 136.71C290 136.71 251.93 71.63 160 70C68.07 71.63 56 123.37 30 136.71C56 150.05 68.07 201.79 160 203.42C251.93 201.79 264 150.05 290 136.71Z" id="f3feo7Fdkz"></path><path d="M290 136.71C290 136.71 251.93 71.63 160 70C68.07 71.63 56 123.37 30 136.71C56 150.05 68.07 201.79 160 203.42C251.93 201.79 264 150.05 290 136.71Z" id="c1oXvIepPd"></path><path d="M290 136.71C290 136.71 251.93 71.63 160 70C68.07 71.63 56 123.37 30 136.71C56 150.05 68.07 201.79 160 203.42C251.93 201.79 264 150.05 290 136.71Z" id="d1egu6OAIo"></path><path d="M290 136.71C290 136.71 251.93 71.63 160 70C68.07 71.63 56 123.37 30 136.71C56 150.05 68.07 201.79 160 203.42C251.93 201.79 264 150.05 290 136.71Z" id="b3z9FCT0Nn"></path><path d="M31.78 139.46C40.24 151.85 79.45 202 160 203.42C251.93 201.79 290 136.71 290 136.71C290 136.71 284.87 127.94 273.82 116.76C275.02 118.51 275.26 118.96 275.6 119.5C249.6 132.84 237.54 184.59 145.6 186.21C87.43 185.19 50.82 158.74 31.78 139.46Z" id="nO9oZspq8"></path><path d="M31.78 139.46C40.24 151.85 79.45 202 160 203.42C251.93 201.79 290 136.71 290 136.71C290 136.71 284.87 127.94 273.82 116.76C275.02 118.51 275.26 118.96 275.6 119.5C249.6 132.84 237.54 184.59 145.6 186.21C87.43 185.19 50.82 158.74 31.78 139.46Z" id="a2BbWzK8wN"></path><path d="M31.78 139.46C40.24 151.85 79.45 202 160 203.42C251.93 201.79 290 136.71 290 136.71C290 136.71 284.87 127.94 273.82 116.76C275.02 118.51 275.26 118.96 275.6 119.5C249.6 132.84 237.54 184.59 145.6 186.21C87.43 185.19 50.82 158.74 31.78 139.46Z" id="c1umebSFtN"></path><path d="M31.78 139.46C40.24 151.85 79.45 202 160 203.42C251.93 201.79 290 136.71 290 136.71C290 136.71 284.87 127.94 273.82 116.76C275.02 118.51 275.26 118.96 275.6 119.5C249.6 132.84 237.54 184.59 145.6 186.21C87.43 185.19 50.82 158.74 31.78 139.46Z" id="aD5ZH6B5e"></path><path d="M93.02 136.71C93.02 173.56 123 203.42 160 203.42C197 203.42 226.98 173.56 226.98 136.71C226.98 99.86 197 70 160 70C123 70 93.02 99.86 93.02 136.71Z" id="a2NSXVut95"></path><path d="M93.02 136.71C93.02 173.56 123 203.42 160 203.42C197 203.42 226.98 173.56 226.98 136.71C226.98 99.86 197 70 160 70C123 70 93.02 99.86 93.02 136.71Z" id="bzFdcCJ9d"></path><path d="M93.02 136.71C93.02 173.56 123 203.42 160 203.42C197 203.42 226.98 173.56 226.98 136.71C226.98 99.86 197 70 160 70C123 70 93.02 99.86 93.02 136.71Z" id="b16GhenYvN"></path><path d="M93.02 136.71C93.02 173.56 123 203.42 160 203.42C197 203.42 226.98 173.56 226.98 136.71C226.98 99.86 197 70 160 70C123 70 93.02 99.86 93.02 136.71Z" id="fXCwUds8"></path><path d="M197.42 136.71C197.42 157.25 180.63 173.98 160 173.98C139.37 173.98 122.58 157.25 122.58 136.71C122.58 116.15 139.37 99.44 160 99.44C180.63 99.44 197.42 116.15 197.42 136.71Z" id="i7GuEkifO"></path><path d="M197.42 136.71C197.42 157.25 180.63 173.98 160 173.98C139.37 173.98 122.58 157.25 122.58 136.71C122.58 116.15 139.37 99.44 160 99.44C180.63 99.44 197.42 116.15 197.42 136.71Z" id="a59CAWWmai"></path><path d="M197.42 136.71C197.42 157.25 180.63 173.98 160 173.98C139.37 173.98 122.58 157.25 122.58 136.71C122.58 116.15 139.37 99.44 160 99.44C180.63 99.44 197.42 116.15 197.42 136.71Z" id="aJZsYO70K"></path><path d="M197.42 136.71C197.42 157.25 180.63 173.98 160 173.98C139.37 173.98 122.58 157.25 122.58 136.71C122.58 116.15 139.37 99.44 160 99.44C180.63 99.44 197.42 116.15 197.42 136.71Z" id="b2zcbEDHLg"></path><path d="M200.46 114.46C200.46 124.39 192.33 132.49 182.36 132.49C172.37 132.49 164.24 124.39 164.24 114.46C164.24 104.5 172.37 96.41 182.36 96.41C192.33 96.41 200.46 104.5 200.46 114.46Z" id="c8Vs6yhw"></path><path d="M200.46 114.46C200.46 124.39 192.33 132.49 182.36 132.49C172.37 132.49 164.24 124.39 164.24 114.46C164.24 104.5 172.37 96.41 182.36 96.41C192.33 96.41 200.46 104.5 200.46 114.46Z" id="afb4aDNui"></path><path d="M200.46 114.46C200.46 124.39 192.33 132.49 182.36 132.49C172.37 132.49 164.24 124.39 164.24 114.46C164.24 104.5 172.37 96.41 182.36 96.41C192.33 96.41 200.46 104.5 200.46 114.46Z" id="f74pXVUxc"></path><path d="M200.46 114.46C200.46 124.39 192.33 132.49 182.36 132.49C172.37 132.49 164.24 124.39 164.24 114.46C164.24 104.5 172.37 96.41 182.36 96.41C192.33 96.41 200.46 104.5 200.46 114.46Z" id="a78L5N0dV"></path><path d="M104.78 174.49C116.86 191.96 137.09 203.42 160 203.42C197 203.42 226.98 173.56 226.98 136.71C226.98 113.9 215.49 93.75 197.94 81.73C197.94 81.73 197.94 81.73 197.94 81.73C205.79 97.56 209.71 110.16 209.71 119.5C209.71 156.34 179.73 186.21 142.73 186.21C128.64 186.21 115.57 181.88 104.78 174.49Z" id="banH29jle"></path><path d="M104.78 174.49C116.86 191.96 137.09 203.42 160 203.42C197 203.42 226.98 173.56 226.98 136.71C226.98 113.9 215.49 93.75 197.94 81.73C197.94 81.73 197.94 81.73 197.94 81.73C205.79 97.56 209.71 110.16 209.71 119.5C209.71 156.34 179.73 186.21 142.73 186.21C128.64 186.21 115.57 181.88 104.78 174.49Z" id="dM0vxgUkr"></path><path d="M104.78 174.49C116.86 191.96 137.09 203.42 160 203.42C197 203.42 226.98 173.56 226.98 136.71C226.98 113.9 215.49 93.75 197.94 81.73C197.94 81.73 197.94 81.73 197.94 81.73C205.79 97.56 209.71 110.16 209.71 119.5C209.71 156.34 179.73 186.21 142.73 186.21C128.64 186.21 115.57 181.88 104.78 174.49Z" id="bLBH6bSpI"></path><path d="M104.78 174.49C116.86 191.96 137.09 203.42 160 203.42C197 203.42 226.98 173.56 226.98 136.71C226.98 113.9 215.49 93.75 197.94 81.73C197.94 81.73 197.94 81.73 197.94 81.73C205.79 97.56 209.71 110.16 209.71 119.5C209.71 156.34 179.73 186.21 142.73 186.21C128.64 186.21 115.57 181.88 104.78 174.49Z" id="d5ZoAMb2Am"></path></defs><g><g><g><use xlink:href="#f3feo7Fdkz" opacity="1" fill="#d8ecfe" fill-opacity="1"></use><g><use xlink:href="#f3feo7Fdkz" opacity="1" fill-opacity="0" stroke="#000000" stroke-width="1" stroke-opacity="0"></use></g></g><g><use xlink:href="#c1oXvIepPd" opacity="1" fill="#000000" fill-opacity="0"></use><g><use xlink:href="#c1oXvIepPd" opacity="1" fill-opacity="0" stroke="#000000" stroke-width="1" stroke-opacity="0"></use></g></g><g><use xlink:href="#d1egu6OAIo" opacity="1" fill="#000000" fill-opacity="0"></use><g><use xlink:href="#d1egu6OAIo" opacity="1" fill-opacity="0" stroke="#000000" stroke-width="1" stroke-opacity="0"></use></g></g><g><use xlink:href="#b3z9FCT0Nn" opacity="1" fill="#000000" fill-opacity="0"></use><g><use xlink:href="#b3z9FCT0Nn" opacity="1" fill-opacity="0" stroke="#000000" stroke-width="1" stroke-opacity="0"></use></g></g><g><use xlink:href="#nO9oZspq8" opacity="1" fill="#c4e2ff" fill-opacity="1"></use><g><use xlink:href="#nO9oZspq8" opacity="1" fill-opacity="0" stroke="#000000" stroke-width="1" stroke-opacity="0"></use></g></g><g><use xlink:href="#a2BbWzK8wN" opacity="1" fill="#000000" fill-opacity="0"></use><g><use xlink:href="#a2BbWzK8wN" opacity="1" fill-opacity="0" stroke="#000000" stroke-width="1" stroke-opacity="0"></use></g></g><g><use xlink:href="#c1umebSFtN" opacity="1" fill="#000000" fill-opacity="0"></use><g><use xlink:href="#c1umebSFtN" opacity="1" fill-opacity="0" stroke="#000000" stroke-width="1" stroke-opacity="0"></use></g></g><g><use xlink:href="#aD5ZH6B5e" opacity="1" fill="#000000" fill-opacity="0"></use><g><use xlink:href="#aD5ZH6B5e" opacity="1" fill-opacity="0" stroke="#000000" stroke-width="1" stroke-opacity="0"></use></g></g><g><use xlink:href="#a2NSXVut95" opacity="1" fill="#0182fc" fill-opacity="1"></use><g><use xlink:href="#a2NSXVut95" opacity="1" fill-opacity="0" stroke="#000000" stroke-width="1" stroke-opacity="0"></use></g></g><g><use xlink:href="#bzFdcCJ9d" opacity="1" fill="#000000" fill-opacity="0"></use><g><use xlink:href="#bzFdcCJ9d" opacity="1" fill-opacity="0" stroke="#000000" stroke-width="1" stroke-opacity="0"></use></g></g><g><use xlink:href="#b16GhenYvN" opacity="1" fill="#000000" fill-opacity="0"></use><g><use xlink:href="#b16GhenYvN" opacity="1" fill-opacity="0" stroke="#000000" stroke-width="1" stroke-opacity="0"></use></g></g><g><use xlink:href="#fXCwUds8" opacity="1" fill="#000000" fill-opacity="0"></use><g><use xlink:href="#fXCwUds8" opacity="1" fill-opacity="0" stroke="#000000" stroke-width="1" stroke-opacity="0"></use></g></g><g><use xlink:href="#i7GuEkifO" opacity="1" fill="#465a61" fill-opacity="1"></use><g><use xlink:href="#i7GuEkifO" opacity="1" fill-opacity="0" stroke="#000000" stroke-width="1" stroke-opacity="0"></use></g></g><g><use xlink:href="#a59CAWWmai" opacity="1" fill="#000000" fill-opacity="0"></use><g><use xlink:href="#a59CAWWmai" opacity="1" fill-opacity="0" stroke="#000000" stroke-width="1" stroke-opacity="0"></use></g></g><g><use xlink:href="#aJZsYO70K" opacity="1" fill="#000000" fill-opacity="0"></use><g><use xlink:href="#aJZsYO70K" opacity="1" fill-opacity="0" stroke="#000000" stroke-width="1" stroke-opacity="0"></use></g></g><g><use xlink:href="#b2zcbEDHLg" opacity="1" fill="#000000" fill-opacity="0"></use><g><use xlink:href="#b2zcbEDHLg" opacity="1" fill-opacity="0" stroke="#000000" stroke-width="1" stroke-opacity="0"></use></g></g><g><use xlink:href="#c8Vs6yhw" opacity="1" fill="#d8ecfe" fill-opacity="1"></use><g><use xlink:href="#c8Vs6yhw" opacity="1" fill-opacity="0" stroke="#000000" stroke-width="1" stroke-opacity="0"></use></g></g><g><use xlink:href="#afb4aDNui" opacity="1" fill="#000000" fill-opacity="0"></use><g><use xlink:href="#afb4aDNui" opacity="1" fill-opacity="0" stroke="#000000" stroke-width="1" stroke-opacity="0"></use></g></g><g><use xlink:href="#f74pXVUxc" opacity="1" fill="#000000" fill-opacity="0"></use><g><use xlink:href="#f74pXVUxc" opacity="1" fill-opacity="0" stroke="#000000" stroke-width="1" stroke-opacity="0"></use></g></g><g><use xlink:href="#a78L5N0dV" opacity="1" fill="#000000" fill-opacity="0"></use><g><use xlink:href="#a78L5N0dV" opacity="1" fill-opacity="0" stroke="#000000" stroke-width="1" stroke-opacity="0"></use></g></g><g><use xlink:href="#banH29jle" opacity="1" fill="#0172fb" fill-opacity="1"></use><g><use xlink:href="#banH29jle" opacity="1" fill-opacity="0" stroke="#000000" stroke-width="1" stroke-opacity="0"></use></g></g><g><use xlink:href="#dM0vxgUkr" opacity="1" fill="#000000" fill-opacity="0"></use><g><use xlink:href="#dM0vxgUkr" opacity="1" fill-opacity="0" stroke="#000000" stroke-width="1" stroke-opacity="0"></use></g></g><g><use xlink:href="#bLBH6bSpI" opacity="1" fill="#000000" fill-opacity="0"></use><g><use xlink:href="#bLBH6bSpI" opacity="1" fill-opacity="0" stroke="#000000" stroke-width="1" stroke-opacity="0"></use></g></g><g><use xlink:href="#d5ZoAMb2Am" opacity="1" fill="#000000" fill-opacity="0"></use><g><use xlink:href="#d5ZoAMb2Am" opacity="1" fill-opacity="0" stroke="#000000" stroke-width="1" stroke-opacity="0"></use></g></g></g></g></svg>