<?xml version="1.0" encoding="UTF-8" standalone="no"?>
<!DOCTYPE svg PUBLIC "-//W3C//DTD SVG 1.1//EN" "http://www.w3.org/Graphics/SVG/1.1/DTD/svg11.dtd">
<svg version="1.1" xmlns="http://www.w3.org/2000/svg" xmlns:xlink="http://www.w3.org/1999/xlink" preserveAspectRatio="xMidYMid meet" viewBox="0 0 320 320" width="320" height="320"><defs><path d="M115.41 296.69C111.83 295.32 108.32 293.78 104.89 292.07C103.72 291.49 102.57 290.9 101.41 290.27C98.45 288.69 95.56 286.99 92.75 285.18C78.59 276.13 66.23 264.3 56.27 250.41C50.31 242.07 45.22 232.99 41.17 223.32C41.17 221.83 41.17 209.94 41.17 208.47C41.17 191.22 52.23 176.72 67.27 172.47C67.82 172.31 68.36 172.17 68.93 172.05C70.42 171.69 71.95 171.46 73.51 171.33C74.46 171.24 75.41 171.2 76.4 171.2C78.69 171.2 97.05 171.2 99.33 171.2C101.9 171.2 104.4 171.49 106.82 172.05C106.95 172.07 107.09 172.11 107.22 172.14C107.62 172.24 108.04 172.34 108.43 172.46C108.45 172.46 108.46 172.46 108.46 172.47C112.43 173.58 116.12 175.42 119.41 177.83C128.58 184.56 134.58 195.77 134.58 208.47C134.58 227.25 134.58 292.98 134.58 302.37C127.99 300.98 121.59 299.09 115.41 296.69Z" id="c39Qe5Halw"></path><path d="M115.41 296.69C111.83 295.32 108.32 293.78 104.89 292.07C103.72 291.49 102.57 290.9 101.41 290.27C98.45 288.69 95.56 286.99 92.75 285.18C78.59 276.13 66.23 264.3 56.27 250.41C50.31 242.07 45.22 232.99 41.17 223.32C41.17 221.83 41.17 209.94 41.17 208.47C41.17 191.22 52.23 176.72 67.27 172.47C67.82 172.31 68.36 172.17 68.93 172.05C70.42 171.69 71.95 171.46 73.51 171.33C74.46 171.24 75.41 171.2 76.4 171.2C78.69 171.2 97.05 171.2 99.33 171.2C101.9 171.2 104.4 171.49 106.82 172.05C106.95 172.07 107.09 172.11 107.22 172.14C107.62 172.24 108.04 172.34 108.43 172.46C108.45 172.46 108.46 172.46 108.46 172.47C112.43 173.58 116.12 175.42 119.41 177.83C128.58 184.56 134.58 195.77 134.58 208.47C134.58 227.25 134.58 292.98 134.58 302.37C127.99 300.98 121.59 299.09 115.41 296.69Z" id="aTQQ4f1UV"></path><path d="M115.41 296.69C111.83 295.32 108.32 293.78 104.89 292.07C103.72 291.49 102.57 290.9 101.41 290.27C98.45 288.69 95.56 286.99 92.75 285.18C78.59 276.13 66.23 264.3 56.27 250.41C56.27 246.21 56.27 212.66 56.27 208.47C56.27 191.22 67.35 176.72 82.38 172.47C82.94 172.31 83.49 172.17 84.05 172.05C85.54 171.69 87.07 171.46 88.63 171.33C89.58 171.24 90.54 171.2 91.52 171.2C92.3 171.2 98.55 171.2 99.33 171.2C101.9 171.2 104.4 171.49 106.82 172.05C106.95 172.07 107.09 172.11 107.22 172.14C107.62 172.24 108.04 172.34 108.43 172.46C108.45 172.46 108.46 172.46 108.46 172.47C112.43 173.58 116.12 175.42 119.41 177.83C128.58 184.56 134.58 195.77 134.58 208.47C134.58 227.25 134.58 292.98 134.58 302.37C127.99 300.98 121.59 299.09 115.41 296.69Z" id="b2qEqsex34"></path><path d="M115.41 296.69C111.83 295.32 108.32 293.78 104.89 292.07C103.72 291.49 102.57 290.9 101.41 290.27C98.45 288.69 95.56 286.99 92.75 285.18C78.59 276.13 66.23 264.3 56.27 250.41C56.27 246.21 56.27 212.66 56.27 208.47C56.27 191.22 67.35 176.72 82.38 172.47C82.94 172.31 83.49 172.17 84.05 172.05C85.54 171.69 87.07 171.46 88.63 171.33C89.58 171.24 90.54 171.2 91.52 171.2C92.3 171.2 98.55 171.2 99.33 171.2C101.9 171.2 104.4 171.49 106.82 172.05C106.95 172.07 107.09 172.11 107.22 172.14C107.62 172.24 108.04 172.34 108.43 172.46C108.45 172.46 108.46 172.46 108.46 172.47C112.43 173.58 116.12 175.42 119.41 177.83C128.58 184.56 134.58 195.77 134.58 208.47C134.58 227.25 134.58 292.98 134.58 302.37C127.99 300.98 121.59 299.09 115.41 296.69Z" id="fYRvRinHb"></path><path d="M108.48 172.47C102.15 203.57 98.63 220.85 97.93 224.31C96.92 229.3 92.78 232.91 87.95 232.91C87.92 232.91 87.89 232.91 87.86 232.91C87.84 232.91 87.81 232.91 87.78 232.91C82.95 232.91 78.81 229.3 77.8 224.31C77.1 220.85 73.59 203.57 67.27 172.47C67.26 172.44 67.23 172.3 67.18 172.04L108.55 172.04C108.51 172.3 108.48 172.44 108.48 172.47Z" id="a3Kmi8Ocah"></path><path d="M108.48 172.47C102.15 203.57 98.63 220.85 97.93 224.31C96.92 229.3 92.78 232.91 87.95 232.91C87.92 232.91 87.89 232.91 87.86 232.91C87.84 232.91 87.81 232.91 87.78 232.91C82.95 232.91 78.81 229.3 77.8 224.31C77.1 220.85 73.59 203.57 67.27 172.47C67.26 172.44 67.23 172.3 67.18 172.04L108.55 172.04C108.51 172.3 108.48 172.44 108.48 172.47Z" id="cr9Jbj5Ln"></path><path d="M87.86 186.45L72 195.79L67.18 172.04L77.03 165.9" id="a33xg66rXd"></path><path d="M87.86 186.45L72 195.79L67.18 172.04L77.03 165.9" id="cdyeCbadh"></path><path d="M87.86 186.45L103.72 195.79L108.55 172.04L98.7 165.9" id="a1RkNkZIi1"></path><path d="M87.86 186.45L103.72 195.79L108.55 172.04L98.7 165.9" id="beRDYWNbq"></path><path d="M40.5 162.22C40.5 128.5 40.5 109.78 40.5 106.03C40.5 100.32 41.41 94.73 43.19 89.4C49.83 69.4 67.79 55.95 87.86 55.95C90.35 55.95 92.83 56.15 95.25 56.56C106.28 58.38 116.39 64.33 123.73 73.31C131.15 82.4 135.24 94.02 135.24 106.03C135.24 109.78 135.24 128.5 135.24 162.22" id="c3neiyc56"></path><path d="M40.5 162.22C40.5 128.5 40.5 109.78 40.5 106.03C40.5 100.32 41.41 94.73 43.19 89.4C49.83 69.4 67.79 55.95 87.86 55.95C90.35 55.95 92.83 56.15 95.25 56.56C106.28 58.38 116.39 64.33 123.73 73.31C131.15 82.4 135.24 94.02 135.24 106.03C135.24 109.78 135.24 128.5 135.24 162.22" id="dTgV2WK7Y"></path><path d="M40.5 162.22C40.5 128.5 40.5 109.78 40.5 106.03C40.5 100.32 41.41 94.73 43.17 89.4C49.79 69.51 67.58 56.09 87.52 55.95C72.96 56.34 59.99 81.04 59.99 108.22C59.99 128.1 70.99 151.09 77.05 162.22C74.6 162.22 62.43 162.22 40.5 162.22Z" id="bCd4fUW2a"></path><path d="M40.5 162.22C40.5 128.5 40.5 109.78 40.5 106.03C40.5 100.32 41.41 94.73 43.17 89.4C49.79 69.51 67.58 56.09 87.52 55.95C72.96 56.34 59.99 81.04 59.99 108.22C59.99 128.1 70.99 151.09 77.05 162.22C74.6 162.22 62.43 162.22 40.5 162.22Z" id="a4j8BjMxVt"></path><path d="M100.45 173.17C100.45 179.15 96.72 184.19 91.59 185.86C90.41 186.25 89.16 186.45 87.86 186.45C80.93 186.45 75.3 180.5 75.3 173.17C75.3 172.08 75.3 166.64 75.3 156.86C76.97 156.86 85.36 156.86 100.45 156.86C100.45 167.01 100.45 172.44 100.45 173.17Z" id="b4klG9E2P"></path><path d="M100.45 173.17C100.45 179.15 96.72 184.19 91.59 185.86C90.41 186.25 89.16 186.45 87.86 186.45C80.93 186.45 75.3 180.5 75.3 173.17C75.3 172.08 75.3 166.64 75.3 156.86C76.97 156.86 85.36 156.86 100.45 156.86C100.45 167.01 100.45 172.44 100.45 173.17Z" id="aGX2WH6Pl"></path><path d="M91.59 185.86C86.95 184.36 83.47 180.1 82.84 174.9C83.68 174.96 84.53 174.99 85.37 174.99C87.75 174.99 90.07 174.78 92.34 174.38C95.14 173.9 97.86 173.15 100.45 172.13C100.45 172.13 100.45 173.06 100.45 173.17C100.45 179.15 96.72 184.19 91.59 185.86Z" id="a34ehLpUC"></path><path d="M91.59 185.86C86.95 184.36 83.47 180.1 82.84 174.9C83.68 174.96 84.53 174.99 85.37 174.99C87.75 174.99 90.07 174.78 92.34 174.38C95.14 173.9 97.86 173.15 100.45 172.13C100.45 172.13 100.45 173.06 100.45 173.17C100.45 179.15 96.72 184.19 91.59 185.86Z" id="k1pPVmtvXa"></path><path d="M41.7 142.49C35.24 142.49 30 136.94 30 130.12C30 123.29 35.24 117.76 41.7 117.76C42.34 117.76 42.96 117.81 43.56 117.92C49.14 118.85 53.39 123.97 53.39 130.12C53.39 136.27 49.14 141.37 43.56 142.31C42.96 142.43 42.34 142.49 41.7 142.49Z" id="c3lQncz1YN"></path><path d="M41.7 142.49C35.24 142.49 30 136.94 30 130.12C30 123.29 35.24 117.76 41.7 117.76C42.34 117.76 42.96 117.81 43.56 117.92C49.14 118.85 53.39 123.97 53.39 130.12C53.39 136.27 49.14 141.37 43.56 142.31C42.96 142.43 42.34 142.49 41.7 142.49Z" id="f11rzxY219"></path><path d="M42.02 130.12C42.02 125.89 42.55 121.8 43.56 117.92C49.14 118.85 53.39 123.97 53.39 130.12C53.39 136.27 49.14 141.37 43.56 142.31C42.55 138.43 42.02 134.34 42.02 130.12Z" id="aCjO9hOEC"></path><path d="M42.02 130.12C42.02 125.89 42.55 121.8 43.56 117.92C49.14 118.85 53.39 123.97 53.39 130.12C53.39 136.27 49.14 141.37 43.56 142.31C42.55 138.43 42.02 134.34 42.02 130.12Z" id="c4wjqAL6j"></path><path d="M37.51 130.12C37.51 127.68 39.39 125.7 41.7 125.7C44 125.7 45.87 127.68 45.87 130.12C45.87 132.56 44 134.54 41.7 134.54C39.39 134.54 37.51 132.56 37.51 130.12Z" id="ed6Pc26PT"></path><path d="M37.51 130.12C37.51 127.68 39.39 125.7 41.7 125.7C44 125.7 45.87 127.68 45.87 130.12C45.87 132.56 44 134.54 41.7 134.54C39.39 134.54 37.51 132.56 37.51 130.12Z" id="b26KXnoGv2"></path><path d="M94.86 168.95C94.78 168.96 94.71 168.98 94.64 168.99C92.43 169.35 90.18 169.54 87.86 169.54C63.84 169.54 44.37 148.94 44.37 123.55C44.37 121.8 44.37 107.79 44.37 106.03C44.37 103.79 44.53 101.58 44.82 99.43C55.16 107.3 70.01 106.52 79.46 97.07C82.59 93.94 84.76 90.23 86 86.27C86.68 93.19 89.67 99.92 94.97 105.22C101.28 111.52 109.62 114.56 117.88 114.33C117.88 114.33 117.88 152.57 117.88 156.83C111.67 163.1 103.71 167.43 94.86 168.95Z" id="e6G18UWYC9"></path><path d="M94.86 168.95C94.78 168.96 94.71 168.98 94.64 168.99C92.43 169.35 90.18 169.54 87.86 169.54C63.84 169.54 44.37 148.94 44.37 123.55C44.37 121.8 44.37 107.79 44.37 106.03C44.37 103.79 44.53 101.58 44.82 99.43C55.16 107.3 70.01 106.52 79.46 97.07C82.59 93.94 84.76 90.23 86 86.27C86.68 93.19 89.67 99.92 94.97 105.22C101.28 111.52 109.62 114.56 117.88 114.33C117.88 114.33 117.88 152.57 117.88 156.83C111.67 163.1 103.71 167.43 94.86 168.95Z" id="klU70vDG7"></path><path d="M94.86 168.95C94.78 168.96 94.71 168.98 94.64 168.99C73.82 165.54 57.92 146.5 57.92 123.55C57.92 121.8 57.92 107.79 57.92 106.03C57.92 105.57 57.92 105.1 57.94 104.64C65.61 105.48 73.58 102.95 79.46 97.07C82.59 93.94 84.76 90.23 86 86.27C86.68 93.19 89.67 99.92 94.97 105.22C101.28 111.52 109.62 114.56 117.88 114.33C117.88 122.83 117.88 152.57 117.88 156.83C111.67 163.1 103.71 167.43 94.86 168.95Z" id="b36nX8QqHe"></path><path d="M94.86 168.95C94.78 168.96 94.71 168.98 94.64 168.99C73.82 165.54 57.92 146.5 57.92 123.55C57.92 121.8 57.92 107.79 57.92 106.03C57.92 105.57 57.92 105.1 57.94 104.64C65.61 105.48 73.58 102.95 79.46 97.07C82.59 93.94 84.76 90.23 86 86.27C86.68 93.19 89.67 99.92 94.97 105.22C101.28 111.52 109.62 114.56 117.88 114.33C117.88 122.83 117.88 152.57 117.88 156.83C111.67 163.1 103.71 167.43 94.86 168.95Z" id="b50qSVVWto"></path><path d="M111.24 119.66C111.24 115.45 108 112.02 104 112.02C100.01 112.02 96.78 115.45 96.78 119.66" id="a1hOKDbHD0"></path><path d="M111.24 119.66C111.24 115.45 108 112.02 104 112.02C100.01 112.02 96.78 115.45 96.78 119.66" id="a1cHkhqz5D"></path><path d="M78.97 119.66C78.97 115.45 75.73 112.02 71.74 112.02C67.74 112.02 64.52 115.45 64.52 119.66" id="bdoEFvKtQ"></path><path d="M78.97 119.66C78.97 115.45 75.73 112.02 71.74 112.02C67.74 112.02 64.52 115.45 64.52 119.66" id="dCbhk80GM"></path><path d="M66.8 122.91C66.8 120.04 69.01 117.7 71.74 117.7C74.46 117.7 76.67 120.04 76.67 122.91C76.67 125.8 74.46 128.13 71.74 128.13C69.01 128.13 66.8 125.8 66.8 122.91Z" id="hrFpzZRyb"></path><path d="M66.8 122.91C66.8 120.04 69.01 117.7 71.74 117.7C74.46 117.7 76.67 120.04 76.67 122.91C76.67 125.8 74.46 128.13 71.74 128.13C69.01 128.13 66.8 125.8 66.8 122.91Z" id="b17fXjAO8r"></path><path d="M99.07 122.91C99.07 120.04 101.28 117.7 104 117.7C106.73 117.7 108.94 120.04 108.94 122.91C108.94 125.8 106.73 128.13 104 128.13C101.28 128.13 99.07 125.8 99.07 122.91Z" id="c3pCvTKQDR"></path><path d="M99.07 122.91C99.07 120.04 101.28 117.7 104 117.7C106.73 117.7 108.94 120.04 108.94 122.91C108.94 125.8 106.73 128.13 104 128.13C101.28 128.13 99.07 125.8 99.07 122.91Z" id="b5SOzFWdYK"></path><path d="M80.82 133.8C80.82 132.56 81.77 131.55 82.94 131.55C83.92 131.55 91.82 131.55 92.8 131.55C93.97 131.55 94.93 132.56 94.93 133.8C94.93 135.05 93.97 136.06 92.8 136.06C90.84 136.06 83.92 136.06 82.94 136.06C81.77 136.06 80.82 135.05 80.82 133.8Z" id="a5gprvWALt"></path><path d="M80.82 133.8C80.82 132.56 81.77 131.55 82.94 131.55C83.92 131.55 91.82 131.55 92.8 131.55C93.97 131.55 94.93 132.56 94.93 133.8C94.93 135.05 93.97 136.06 92.8 136.06C90.84 136.06 83.92 136.06 82.94 136.06C81.77 136.06 80.82 135.05 80.82 133.8Z" id="d6BoMTzvr8"></path><path d="M76.5 144.62C77.02 143.63 78.2 143.27 79.13 143.81C84.6 146.99 91.14 146.99 96.62 143.81C97.54 143.27 98.73 143.63 99.25 144.62C99.75 145.61 99.41 146.85 98.48 147.4C95.16 149.33 91.52 150.29 87.88 150.29C84.22 150.29 80.58 149.33 77.26 147.4C76.34 146.85 75.99 145.61 76.5 144.62Z" id="br23cnaZz"></path><path d="M76.5 144.62C77.02 143.63 78.2 143.27 79.13 143.81C84.6 146.99 91.14 146.99 96.62 143.81C97.54 143.27 98.73 143.63 99.25 144.62C99.75 145.61 99.41 146.85 98.48 147.4C95.16 149.33 91.52 150.29 87.88 150.29C84.22 150.29 80.58 149.33 77.26 147.4C76.34 146.85 75.99 145.61 76.5 144.62Z" id="aVjQLhWOH"></path><path d="M71.44 121.99C71.44 120.76 72.38 119.76 73.55 119.76C74.72 119.76 75.67 120.76 75.67 121.99C75.67 123.23 74.72 124.23 73.55 124.23C72.38 124.23 71.44 123.23 71.44 121.99Z" id="dR7YvIZ2h"></path><path d="M71.44 121.99C71.44 120.76 72.38 119.76 73.55 119.76C74.72 119.76 75.67 120.76 75.67 121.99C75.67 123.23 74.72 124.23 73.55 124.23C72.38 124.23 71.44 123.23 71.44 121.99Z" id="d2IYesY1v"></path><path d="M103.94 121.99C103.94 120.76 104.89 119.76 106.06 119.76C107.23 119.76 108.17 120.76 108.17 121.99C108.17 123.23 107.23 124.23 106.06 124.23C104.89 124.23 103.94 123.23 103.94 121.99Z" id="l2iY9M7Gxf"></path><path d="M103.94 121.99C103.94 120.76 104.89 119.76 106.06 119.76C107.23 119.76 108.17 120.76 108.17 121.99C108.17 123.23 107.23 124.23 106.06 124.23C104.89 124.23 103.94 123.23 103.94 121.99Z" id="idM1cn4FK"></path><path d="M106.64 135.62C106.64 132.46 109.07 129.89 112.06 129.89C115.05 129.89 117.48 132.46 117.48 135.62C117.48 138.79 115.05 141.36 112.06 141.36C109.07 141.36 106.64 138.79 106.64 135.62Z" id="asPS7SmVb"></path><path d="M106.64 135.62C106.64 132.46 109.07 129.89 112.06 129.89C115.05 129.89 117.48 132.46 117.48 135.62C117.48 138.79 115.05 141.36 112.06 141.36C109.07 141.36 106.64 138.79 106.64 135.62Z" id="a2JmFxqVyS"></path><path d="M58.27 135.62C58.27 132.46 60.69 129.89 63.68 129.89C66.67 129.89 69.1 132.46 69.1 135.62C69.1 138.79 66.67 141.36 63.68 141.36C60.69 141.36 58.27 138.79 58.27 135.62Z" id="e5eAFQgDqG"></path><path d="M58.27 135.62C58.27 132.46 60.69 129.89 63.68 129.89C66.67 129.89 69.1 132.46 69.1 135.62C69.1 138.79 66.67 141.36 63.68 141.36C60.69 141.36 58.27 138.79 58.27 135.62Z" id="c3HMe2BWMw"></path><path d="M215.11 292.09C210.05 294.59 204.82 296.75 199.42 298.56C193.37 300.61 187.1 302.18 180.68 303.27C180.66 303.28 180.63 303.28 180.6 303.28C180.6 293.69 180.6 216.92 180.6 207.33C180.6 186.87 195.49 170.1 214.44 168.49C215.44 168.4 216.45 168.36 217.46 168.36C219.86 168.36 239.07 168.36 241.47 168.36C244.3 168.36 247.07 168.69 249.71 169.32C266.11 173.3 278.34 188.81 278.34 207.33C278.34 210.76 278.34 222.81 278.34 224.53C265.53 254.23 243.03 278.25 215.11 292.09Z" id="a4cLSLwDi5"></path><path d="M215.11 292.09C210.05 294.59 204.82 296.75 199.42 298.56C193.37 300.61 187.1 302.18 180.68 303.27C180.66 303.28 180.63 303.28 180.6 303.28C180.6 293.69 180.6 216.92 180.6 207.33C180.6 186.87 195.49 170.1 214.44 168.49C215.44 168.4 216.45 168.36 217.46 168.36C219.86 168.36 239.07 168.36 241.47 168.36C244.3 168.36 247.07 168.69 249.71 169.32C266.11 173.3 278.34 188.81 278.34 207.33C278.34 210.76 278.34 222.81 278.34 224.53C265.53 254.23 243.03 278.25 215.11 292.09Z" id="b3A8jLzwnZ"></path><path d="M215.11 292.09C210.05 294.59 204.82 296.75 199.42 298.56C199.42 289.44 199.42 216.46 199.42 207.33C199.42 185.8 215.93 168.36 236.3 168.36C236.82 168.36 240.95 168.36 241.47 168.36C261.83 168.36 278.34 185.8 278.34 207.33C278.34 210.76 278.34 222.81 278.34 224.53C265.53 254.23 243.03 278.25 215.11 292.09Z" id="c6k7IX4Db"></path><path d="M215.11 292.09C210.05 294.59 204.82 296.75 199.42 298.56C199.42 289.44 199.42 216.46 199.42 207.33C199.42 185.8 215.93 168.36 236.3 168.36C236.82 168.36 240.95 168.36 241.47 168.36C261.83 168.36 278.34 185.8 278.34 207.33C278.34 210.76 278.34 222.81 278.34 224.53C265.53 254.23 243.03 278.25 215.11 292.09Z" id="bUiTydF26"></path><path d="M181.16 138.3C174.4 138.3 168.93 132.5 168.93 125.37C168.93 118.22 174.4 112.43 181.16 112.43C181.83 112.43 182.48 112.48 183.11 112.6C188.93 113.58 193.38 118.93 193.38 125.37C193.38 131.8 188.93 137.14 183.11 138.12C182.48 138.24 181.83 138.3 181.16 138.3Z" id="cmStsZCqp"></path><path d="M181.16 138.3C174.4 138.3 168.93 132.5 168.93 125.37C168.93 118.22 174.4 112.43 181.16 112.43C181.83 112.43 182.48 112.48 183.11 112.6C188.93 113.58 193.38 118.93 193.38 125.37C193.38 131.8 188.93 137.14 183.11 138.12C182.48 138.24 181.83 138.3 181.16 138.3Z" id="jre2dYmaX"></path><path d="M239.36 182.41L229.46 199.19L219.57 182.41" id="b68c1H13pg"></path><path d="M239.36 182.41L229.46 199.19L219.57 182.41" id="atOkBawpc"></path><path d="M229.46 264.38L216.15 246.62L229.46 194.83L242.78 246.62L229.46 264.38Z" id="b105QKL5ij"></path><path d="M229.46 264.38L216.15 246.62L229.46 194.83L242.78 246.62L229.46 264.38Z" id="eqzx1YIqW"></path><path d="M181.49 125.37C181.49 120.95 182.06 116.66 183.11 112.6C188.93 113.58 193.38 118.93 193.38 125.37C193.38 131.8 188.93 137.14 183.11 138.12C182.06 134.06 181.49 129.79 181.49 125.37Z" id="b2B3V8fgZ9"></path><path d="M181.49 125.37C181.49 120.95 182.06 116.66 183.11 112.6C188.93 113.58 193.38 118.93 193.38 125.37C193.38 131.8 188.93 137.14 183.11 138.12C182.06 134.06 181.49 129.79 181.49 125.37Z" id="aCBGQ7rPg"></path><path d="M176.78 125.37C176.78 122.81 178.73 120.75 181.16 120.75C183.57 120.75 185.52 122.81 185.52 125.37C185.52 127.91 183.57 129.99 181.16 129.99C178.73 129.99 176.78 127.91 176.78 125.37Z" id="c3Soby5ZH"></path><path d="M176.78 125.37C176.78 122.81 178.73 120.75 181.16 120.75C183.57 120.75 185.52 122.81 185.52 125.37C185.52 127.91 183.57 129.99 181.16 129.99C178.73 129.99 176.78 127.91 176.78 125.37Z" id="e1mWD36AHH"></path><path d="M229.46 184.3L212.87 194.07L207.83 169.24L218.12 162.81" id="bdMMM0pxL"></path><path d="M229.46 184.3L212.87 194.07L207.83 169.24L218.12 162.81" id="b4fvr8plO"></path><path d="M229.46 184.3L246.06 194.07L251.1 169.24L240.79 162.81" id="b7NyhMjT4b"></path><path d="M229.46 184.3L246.06 194.07L251.1 169.24L240.79 162.81" id="b11ZiXz8r7"></path><path d="M277.78 138.3C284.53 138.3 290 132.5 290 125.37C290 118.22 284.53 112.43 277.78 112.43C277.1 112.43 276.45 112.48 275.82 112.6C269.99 113.58 265.55 118.93 265.55 125.37C265.55 131.8 269.99 137.14 275.82 138.12C276.45 138.24 277.1 138.3 277.78 138.3Z" id="cfO9DWGx5"></path><path d="M277.78 138.3C284.53 138.3 290 132.5 290 125.37C290 118.22 284.53 112.43 277.78 112.43C277.1 112.43 276.45 112.48 275.82 112.6C269.99 113.58 265.55 118.93 265.55 125.37C265.55 131.8 269.99 137.14 275.82 138.12C276.45 138.24 277.1 138.3 277.78 138.3Z" id="a7srCIRh1f"></path><path d="M277.43 125.37C277.43 120.95 276.87 116.66 275.82 112.6C269.99 113.58 265.55 118.93 265.55 125.37C265.55 131.8 269.99 137.14 275.82 138.12C276.87 134.06 277.43 129.79 277.43 125.37Z" id="b1EauxNTq6"></path><path d="M277.43 125.37C277.43 120.95 276.87 116.66 275.82 112.6C269.99 113.58 265.55 118.93 265.55 125.37C265.55 131.8 269.99 137.14 275.82 138.12C276.87 134.06 277.43 129.79 277.43 125.37Z" id="b2rpBXQXMl"></path><path d="M273.4 125.37C273.4 122.81 275.35 120.75 277.78 120.75C280.19 120.75 282.14 122.81 282.14 125.37C282.14 127.91 280.19 129.99 277.78 129.99C275.35 129.99 273.4 127.91 273.4 125.37Z" id="e3SRevQRH"></path><path d="M273.4 125.37C273.4 122.81 275.35 120.75 277.78 120.75C280.19 120.75 282.14 122.81 282.14 125.37C282.14 127.91 280.19 129.99 277.78 129.99C275.35 129.99 273.4 127.91 273.4 125.37Z" id="g1AGnQ8n7v"></path><path d="M229.46 166.61C204.33 166.61 183.96 145.07 183.96 118.49C183.96 105.91 188.09 87.03 195.56 78.47C203.87 68.92 216.22 70.36 229.46 70.36C231.95 70.36 234.39 70.58 236.77 70.99C258.42 74.67 274.98 94.54 274.98 118.49C274.98 142.43 258.42 162.3 236.77 165.99C234.39 166.41 231.95 166.61 229.46 166.61Z" id="agNH5haUs"></path><path d="M229.46 166.61C204.33 166.61 183.96 145.07 183.96 118.49C183.96 105.91 188.09 87.03 195.56 78.47C203.87 68.92 216.22 70.36 229.46 70.36C231.95 70.36 234.39 70.58 236.77 70.99C258.42 74.67 274.98 94.54 274.98 118.49C274.98 142.43 258.42 162.3 236.77 165.99C234.39 166.41 231.95 166.61 229.46 166.61Z" id="g14CUFFjw"></path><path d="M242.62 170.41C242.62 176.65 238.72 181.93 233.35 183.68C232.12 184.09 230.82 184.3 229.46 184.3C222.2 184.3 216.32 178.08 216.32 170.41C216.32 169.27 216.32 163.57 216.32 153.33C218.07 153.33 226.84 153.33 242.62 153.33C242.62 163.95 242.62 169.65 242.62 170.41Z" id="as9ZoYpTq"></path><path d="M242.62 170.41C242.62 176.65 238.72 181.93 233.35 183.68C232.12 184.09 230.82 184.3 229.46 184.3C222.2 184.3 216.32 178.08 216.32 170.41C216.32 169.27 216.32 163.57 216.32 153.33C218.07 153.33 226.84 153.33 242.62 153.33C242.62 163.95 242.62 169.65 242.62 170.41Z" id="c1VNMyimkh"></path><path d="M233.35 183.68C228.51 182.12 224.87 177.66 224.21 172.21C225.07 172.27 225.97 172.3 226.85 172.3C229.33 172.3 231.77 172.1 234.16 171.68C237.08 171.19 239.91 170.39 242.62 169.32C242.62 169.54 242.62 170.29 242.62 170.41C242.62 176.65 238.72 181.93 233.35 183.68Z" id="b1iB1xbTvi"></path><path d="M233.35 183.68C228.51 182.12 224.87 177.66 224.21 172.21C225.07 172.27 225.97 172.3 226.85 172.3C229.33 172.3 231.77 172.1 234.16 171.68C237.08 171.19 239.91 170.39 242.62 169.32C242.62 169.54 242.62 170.29 242.62 170.41C242.62 176.65 238.72 181.93 233.35 183.68Z" id="h86GU5eUg"></path><path d="M198.57 118.49C198.57 103.75 204.84 90.54 214.72 81.72C220.88 76.2 228.45 72.4 236.77 70.99C256.97 74.42 272.71 91.93 274.75 113.68C274.89 115.27 274.98 116.88 274.98 118.49C274.98 142.43 258.42 162.3 236.77 165.99C215.11 162.3 198.57 142.43 198.57 118.49Z" id="dlRr5kkpH"></path><path d="M198.57 118.49C198.57 103.75 204.84 90.54 214.72 81.72C220.88 76.2 228.45 72.4 236.77 70.99C256.97 74.42 272.71 91.93 274.75 113.68C274.89 115.27 274.98 116.88 274.98 118.49C274.98 142.43 258.42 162.3 236.77 165.99C215.11 162.3 198.57 142.43 198.57 118.49Z" id="b5WGbruLMt"></path><path d="M217.58 136.26C218.11 135.22 219.34 134.84 220.32 135.41C226.04 138.73 232.89 138.73 238.61 135.41C239.59 134.84 240.82 135.22 241.35 136.26C241.9 137.29 241.54 138.59 240.56 139.16C237.09 141.19 233.28 142.18 229.46 142.18C225.65 142.18 221.85 141.19 218.37 139.16C217.39 138.59 217.03 137.29 217.58 136.26Z" id="d6lequoS2"></path><path d="M217.58 136.26C218.11 135.22 219.34 134.84 220.32 135.41C226.04 138.73 232.89 138.73 238.61 135.41C239.59 134.84 240.82 135.22 241.35 136.26C241.9 137.29 241.54 138.59 240.56 139.16C237.09 141.19 233.28 142.18 229.46 142.18C225.65 142.18 221.85 141.19 218.37 139.16C217.39 138.59 217.03 137.29 217.58 136.26Z" id="agdbY2G2I"></path><path d="M209.44 115.69C209.44 112.67 211.75 110.23 214.61 110.23C217.46 110.23 219.77 112.67 219.77 115.69C219.77 118.7 217.46 121.15 214.61 121.15C211.75 121.15 209.44 118.7 209.44 115.69Z" id="aMjjblRPK"></path><path d="M209.44 115.69C209.44 112.67 211.75 110.23 214.61 110.23C217.46 110.23 219.77 112.67 219.77 115.69C219.77 118.7 217.46 121.15 214.61 121.15C211.75 121.15 209.44 118.7 209.44 115.69Z" id="a1nX1ISiyp"></path><path d="M239.16 115.69C239.16 112.67 241.47 110.23 244.33 110.23C247.17 110.23 249.48 112.67 249.48 115.69C249.48 118.7 247.17 121.15 244.33 121.15C241.47 121.15 239.16 118.7 239.16 115.69Z" id="b2kRo1rVJ"></path><path d="M239.16 115.69C239.16 112.67 241.47 110.23 244.33 110.23C247.17 110.23 249.48 112.67 249.48 115.69C249.48 118.7 247.17 121.15 244.33 121.15C241.47 121.15 239.16 118.7 239.16 115.69Z" id="ad3ASJx7O"></path><path d="M214.3 114.72C214.3 113.44 215.29 112.38 216.51 112.38C217.73 112.38 218.72 113.44 218.72 114.72C218.72 116.01 217.73 117.06 216.51 117.06C215.29 117.06 214.3 116.01 214.3 114.72Z" id="a2xlKghDMr"></path><path d="M214.3 114.72C214.3 113.44 215.29 112.38 216.51 112.38C217.73 112.38 218.72 113.44 218.72 114.72C218.72 116.01 217.73 117.06 216.51 117.06C215.29 117.06 214.3 116.01 214.3 114.72Z" id="b6ypAIvaJw"></path><path d="M244.25 114.72C244.25 113.44 245.25 112.38 246.46 112.38C247.69 112.38 248.69 113.44 248.69 114.72C248.69 116.01 247.69 117.06 246.46 117.06C245.25 117.06 244.25 116.01 244.25 114.72Z" id="d5irtBU7EF"></path><path d="M244.25 114.72C244.25 113.44 245.25 112.38 246.46 112.38C247.69 112.38 248.69 113.44 248.69 114.72C248.69 116.01 247.69 117.06 246.46 117.06C245.25 117.06 244.25 116.01 244.25 114.72Z" id="cswW7wrQk"></path><path d="M222.08 127.07C222.08 125.77 223.08 124.72 224.31 124.72C225.33 124.72 233.59 124.72 234.63 124.72C235.86 124.72 236.86 125.77 236.86 127.07C236.86 128.37 235.86 129.43 234.63 129.43C232.57 129.43 225.33 129.43 224.31 129.43C223.08 129.43 222.08 128.37 222.08 127.07Z" id="c2lmf9Rvz4"></path><path d="M222.08 127.07C222.08 125.77 223.08 124.72 224.31 124.72C225.33 124.72 233.59 124.72 234.63 124.72C235.86 124.72 236.86 125.77 236.86 127.07C236.86 128.37 235.86 129.43 234.63 129.43C232.57 129.43 225.33 129.43 224.31 129.43C223.08 129.43 222.08 128.37 222.08 127.07Z" id="f1gqAnI1sl"></path><path d="M264.29 206.06L264.29 212.47L244.44 212.47L244.44 206.06L264.29 206.06Z" id="dO9la2lkC"></path><path d="M264.29 206.06L264.29 212.47L244.44 212.47L244.44 206.06L264.29 206.06Z" id="hOCzU8OtD"></path><path d="M252.36 84.26C252.37 84.45 252.42 85.37 252.49 87.05C253.02 87.05 255.66 87.05 260.42 87.05L264.69 117.08C270.9 115.05 274.35 113.92 275.04 113.7C274.2 96.03 273.74 86.22 273.65 84.26C272.91 68.69 260.74 56.48 245.99 56.54C242.16 56.56 230.63 56.6 226.81 56.61C240.59 57.65 251.66 69.44 252.36 84.26Z" id="e4Ef9U7pyk"></path><path d="M252.36 84.26C252.37 84.45 252.42 85.37 252.49 87.05C253.02 87.05 255.66 87.05 260.42 87.05L264.69 117.08C270.9 115.05 274.35 113.92 275.04 113.7C274.2 96.03 273.74 86.22 273.65 84.26C272.91 68.69 260.74 56.48 245.99 56.54C242.16 56.56 230.63 56.6 226.81 56.61C240.59 57.65 251.66 69.44 252.36 84.26Z" id="cFyPjqX3v"></path><path d="M272.77 87.05C261.79 98.65 243.99 98.65 233.02 87.05C240.96 78.63 264.82 53.41 272.77 45C283.75 56.61 283.75 75.43 272.77 87.05Z" id="eRTYWxY2p"></path><path d="M272.77 87.05C261.79 98.65 243.99 98.65 233.02 87.05C240.96 78.63 264.82 53.41 272.77 45C283.75 56.61 283.75 75.43 272.77 87.05Z" id="brjBrysgc"></path><path d="M233.02 87.05L198.51 87.05L194.25 117.08C188.03 115.05 184.58 113.92 183.89 113.7C184.73 96.03 185.19 86.22 185.28 84.26C186.01 68.69 198.19 56.48 212.94 56.54C216.26 56.56 232.87 56.63 262.77 56.74C263.21 57.58 265.41 61.76 269.36 69.28" id="faNHgDCPN"></path><path d="M233.02 87.05L198.51 87.05L194.25 117.08C188.03 115.05 184.58 113.92 183.89 113.7C184.73 96.03 185.19 86.22 185.28 84.26C186.01 68.69 198.19 56.48 212.94 56.54C216.26 56.56 232.87 56.63 262.77 56.74C263.21 57.58 265.41 61.76 269.36 69.28" id="d67YmMQYr"></path><path d="M206.57 84.26C206.57 84.45 206.53 85.37 206.44 87.05C205.91 87.05 203.27 87.05 198.51 87.05L194.25 117.08C188.03 115.05 184.58 113.92 183.89 113.7C184.73 96.03 185.19 86.22 185.28 84.26C186.01 68.69 198.19 56.48 212.94 56.54C216.78 56.56 228.29 56.6 232.12 56.61C218.34 57.65 207.28 69.44 206.57 84.26Z" id="aO0wU7NP3"></path><path d="M206.57 84.26C206.57 84.45 206.53 85.37 206.44 87.05C205.91 87.05 203.27 87.05 198.51 87.05L194.25 117.08C188.03 115.05 184.58 113.92 183.89 113.7C184.73 96.03 185.19 86.22 185.28 84.26C186.01 68.69 198.19 56.48 212.94 56.54C216.78 56.56 228.29 56.6 232.12 56.61C218.34 57.65 207.28 69.44 206.57 84.26Z" id="am7YOxevL"></path><path d="M160 305C140.3 305 121.62 300.36 104.89 292.07C104.89 291.05 104.89 282.8 104.89 281.77C104.89 261.44 117.95 244.32 135.69 239.31C136.34 239.12 136.99 238.96 137.65 238.8C139.42 238.4 141.22 238.12 143.06 237.96C144.18 237.86 145.32 237.82 146.47 237.82C149.17 237.82 170.83 237.82 173.53 237.82C176.57 237.82 179.51 238.15 182.36 238.8C182.52 238.84 182.68 238.87 182.84 238.92C183.33 239.03 183.79 239.16 184.27 239.29C184.28 239.29 184.3 239.29 184.31 239.31C188.99 240.62 193.34 242.79 197.21 245.63C208.03 253.58 215.11 266.79 215.11 281.77C215.11 283.84 215.11 291.05 215.11 292.09C198.38 300.36 179.7 305 160 305Z" id="a9Cp8Z7tc"></path><path d="M160 305C140.3 305 121.62 300.36 104.89 292.07C104.89 291.05 104.89 282.8 104.89 281.77C104.89 261.44 117.95 244.32 135.69 239.31C136.34 239.12 136.99 238.96 137.65 238.8C139.42 238.4 141.22 238.12 143.06 237.96C144.18 237.86 145.32 237.82 146.47 237.82C149.17 237.82 170.83 237.82 173.53 237.82C176.57 237.82 179.51 238.15 182.36 238.8C182.52 238.84 182.68 238.87 182.84 238.92C183.33 239.03 183.79 239.16 184.27 239.29C184.28 239.29 184.3 239.29 184.31 239.31C188.99 240.62 193.34 242.79 197.21 245.63C208.03 253.58 215.11 266.79 215.11 281.77C215.11 283.84 215.11 291.05 215.11 292.09C198.38 300.36 179.7 305 160 305Z" id="h8F1kmLhT"></path><path d="M184.31 239.31C176.35 278.42 171.93 300.16 171.05 304.51C170.36 304.57 169.68 304.62 168.98 304.68C168.02 304.74 167.03 304.81 166.05 304.86C164.04 304.96 162.04 305 160 305C157.92 305 155.85 304.96 153.8 304.84C152.88 304.8 151.95 304.74 151.02 304.67C150.32 304.62 149.64 304.57 148.95 304.51C148.07 300.16 143.65 278.44 135.69 239.31C135.68 239.27 135.65 239.1 135.59 238.8L184.41 238.8C184.35 239.1 184.32 239.27 184.31 239.31Z" id="aKbWJITh4"></path><path d="M184.31 239.31C176.35 278.42 171.93 300.16 171.05 304.51C170.36 304.57 169.68 304.62 168.98 304.68C168.02 304.74 167.03 304.81 166.05 304.86C164.04 304.96 162.04 305 160 305C157.92 305 155.85 304.96 153.8 304.84C152.88 304.8 151.95 304.74 151.02 304.67C150.32 304.62 149.64 304.57 148.95 304.51C148.07 300.16 143.65 278.44 135.69 239.31C135.68 239.27 135.65 239.1 135.59 238.8L184.41 238.8C184.35 239.1 184.32 239.27 184.31 239.31Z" id="a3futU8m6F"></path><path d="M171.17 253.68L160 272.6L148.85 253.68" id="a49MbFlt63"></path><path d="M171.17 253.68L160 272.6L148.85 253.68" id="f1zz0QbVxR"></path><path d="M166.05 304.86C164.04 304.96 162.04 305 160 305C157.92 305 155.85 304.96 153.8 304.84C152.88 304.8 151.95 304.74 151.02 304.67C151.62 302.21 154.61 289.88 160 267.68C164.8 287.41 167.79 299.74 168.98 304.68C168.02 304.74 167.03 304.81 166.05 304.86Z" id="b2slroHaJd"></path><path d="M166.05 304.86C164.04 304.96 162.04 305 160 305C157.92 305 155.85 304.96 153.8 304.84C152.88 304.8 151.95 304.74 151.02 304.67C151.62 302.21 154.61 289.88 160 267.68C164.8 287.41 167.79 299.74 168.98 304.68C168.02 304.74 167.03 304.81 166.05 304.86Z" id="g2mttvjgDI"></path><path d="M160 255.82L141.28 266.81L135.59 238.82L147.22 231.56" id="aAbzLy1M"></path><path d="M160 255.82L141.28 266.81L135.59 238.82L147.22 231.56" id="d3eNizXjyT"></path><path d="M160 255.82L178.71 266.81L184.41 238.82L172.78 231.56" id="d18fWWBT5V"></path><path d="M160 255.82L178.71 266.81L184.41 238.82L172.78 231.56" id="byTochdy"></path><path d="M191.06 276.6C184.83 292.59 181.38 301.49 180.68 303.27C175.89 304.08 171.01 304.61 166.05 304.86C167.27 300.48 173.35 278.62 184.27 239.29C184.28 239.26 184.32 239.1 184.41 238.8L197.21 243.22L185.12 276.6C188.68 276.6 190.66 276.6 191.06 276.6Z" id="dvlIjuFvR"></path><path d="M191.06 276.6C184.83 292.59 181.38 301.49 180.68 303.27C175.89 304.08 171.01 304.61 166.05 304.86C167.27 300.48 173.35 278.62 184.27 239.29C184.28 239.26 184.32 239.1 184.41 238.8L197.21 243.22L185.12 276.6C188.68 276.6 190.66 276.6 191.06 276.6Z" id="bmkxosDnW"></path><path d="M139.17 303.24C138.48 301.46 135.03 292.58 128.81 276.6C129.21 276.6 131.19 276.6 134.75 276.6L122.65 243.22L135.46 238.8C135.54 239.1 135.58 239.26 135.59 239.29C145.31 274.25 151.38 296.1 153.8 304.84C148.85 304.61 143.97 304.06 139.17 303.24Z" id="a1WWJgZnL3"></path><path d="M139.17 303.24C138.48 301.46 135.03 292.58 128.81 276.6C129.21 276.6 131.19 276.6 134.75 276.6L122.65 243.22L135.46 238.8C135.54 239.1 135.58 239.26 135.59 239.29C145.31 274.25 151.38 296.1 153.8 304.84C148.85 304.61 143.97 304.06 139.17 303.24Z" id="k2aNR4ppkK"></path><path d="M174.83 240.13C174.83 247.18 170.44 253.13 164.39 255.11C163 255.57 161.53 255.82 160 255.82C151.81 255.82 145.17 248.8 145.17 240.13C145.17 238.84 145.17 232.43 145.17 220.89C147.14 220.89 157.03 220.89 174.83 220.89C174.83 232.86 174.83 239.27 174.83 240.13Z" id="b7aLYK7lU6"></path><path d="M174.83 240.13C174.83 247.18 170.44 253.13 164.39 255.11C163 255.57 161.53 255.82 160 255.82C151.81 255.82 145.17 248.8 145.17 240.13C145.17 238.84 145.17 232.43 145.17 220.89C147.14 220.89 157.03 220.89 174.83 220.89C174.83 232.86 174.83 239.27 174.83 240.13Z" id="c2Mo5NaFAD"></path><path d="M164.39 255.11C158.93 253.33 154.81 248.32 154.06 242.17C155.06 242.24 156.06 242.27 157.05 242.27C159.86 242.27 162.61 242.04 165.29 241.57C168.59 241.01 171.77 240.12 174.83 238.92C174.83 239.16 174.83 240.01 174.83 240.13C174.83 247.18 170.44 253.13 164.39 255.11Z" id="bujjM1sjm"></path><path d="M164.39 255.11C158.93 253.33 154.81 248.32 154.06 242.17C155.06 242.24 156.06 242.27 157.05 242.27C159.86 242.27 162.61 242.04 165.29 241.57C168.59 241.01 171.77 240.12 174.83 238.92C174.83 239.16 174.83 240.01 174.83 240.13C174.83 247.18 170.44 253.13 164.39 255.11Z" id="b3I5CpwVWn"></path><path d="M105.53 203.93C97.9 203.93 91.74 197.4 91.74 189.34C91.74 181.28 97.9 174.75 105.53 174.75C106.28 174.75 107.02 174.83 107.73 174.94C114.3 176.05 119.31 182.08 119.31 189.34C119.31 196.59 114.3 202.62 107.73 203.74C107.02 203.86 106.28 203.93 105.53 203.93Z" id="bdve4JBfT"></path><path d="M105.53 203.93C97.9 203.93 91.74 197.4 91.74 189.34C91.74 181.28 97.9 174.75 105.53 174.75C106.28 174.75 107.02 174.83 107.73 174.94C114.3 176.05 119.31 182.08 119.31 189.34C119.31 196.59 114.3 202.62 107.73 203.74C107.02 203.86 106.28 203.93 105.53 203.93Z" id="b28WR0Vrnm"></path><path d="M105.91 189.34C105.91 184.36 106.54 179.54 107.73 174.94C114.3 176.05 119.31 182.08 119.31 189.34C119.31 196.59 114.3 202.62 107.73 203.74C106.54 199.15 105.91 194.33 105.91 189.34Z" id="b7A1w79oMa"></path><path d="M105.91 189.34C105.91 184.36 106.54 179.54 107.73 174.94C114.3 176.05 119.31 182.08 119.31 189.34C119.31 196.59 114.3 202.62 107.73 203.74C106.54 199.15 105.91 194.33 105.91 189.34Z" id="abJB8Idw2"></path><path d="M100.59 189.34C100.59 186.45 102.8 184.13 105.53 184.13C108.25 184.13 110.46 186.45 110.46 189.34C110.46 192.22 108.25 194.56 105.53 194.56C102.8 194.56 100.59 192.22 100.59 189.34Z" id="c1AnfMgfwp"></path><path d="M100.59 189.34C100.59 186.45 102.8 184.13 105.53 184.13C108.25 184.13 110.46 186.45 110.46 189.34C110.46 192.22 108.25 194.56 105.53 194.56C102.8 194.56 100.59 192.22 100.59 189.34Z" id="a38qWcYSp"></path><path d="M214.47 203.93C222.1 203.93 228.26 197.4 228.26 189.34C228.26 181.28 222.1 174.75 214.47 174.75C213.72 174.75 212.98 174.83 212.27 174.94C205.7 176.05 200.69 182.08 200.69 189.34C200.69 196.59 205.7 202.62 212.27 203.74C212.98 203.86 213.72 203.93 214.47 203.93Z" id="a1DAhQJ534"></path><path d="M214.47 203.93C222.1 203.93 228.26 197.4 228.26 189.34C228.26 181.28 222.1 174.75 214.47 174.75C213.72 174.75 212.98 174.83 212.27 174.94C205.7 176.05 200.69 182.08 200.69 189.34C200.69 196.59 205.7 202.62 212.27 203.74C212.98 203.86 213.72 203.93 214.47 203.93Z" id="dePzTHCbL"></path><path d="M214.09 189.34C214.09 184.36 213.46 179.54 212.27 174.94C205.7 176.05 200.69 182.08 200.69 189.34C200.69 196.59 205.7 202.62 212.27 203.74C213.46 199.15 214.09 194.33 214.09 189.34Z" id="abKLxypEp"></path><path d="M214.09 189.34C214.09 184.36 213.46 179.54 212.27 174.94C205.7 176.05 200.69 182.08 200.69 189.34C200.69 196.59 205.7 202.62 212.27 203.74C213.46 199.15 214.09 194.33 214.09 189.34Z" id="i5t4zsmwH"></path><path d="M168.23 235.15C168.15 235.16 168.06 235.18 167.99 235.19C165.39 235.64 162.72 235.85 160 235.85C131.66 235.85 108.69 211.56 108.69 181.59C108.69 179.52 108.69 163 108.69 160.93C108.69 154.62 109.7 148.55 111.58 142.92C118.6 121.8 137.63 106.66 160 106.66C160 106.66 160 106.66 160 106.66C162.72 106.66 165.39 106.88 167.99 107.31C192.54 111.37 211.32 133.83 211.32 160.93C211.32 165.06 211.32 179.52 211.32 181.59C211.32 208.6 192.66 231 168.23 235.15Z" id="a9QfmV4eC"></path><path d="M168.23 235.15C168.15 235.16 168.06 235.18 167.99 235.19C165.39 235.64 162.72 235.85 160 235.85C131.66 235.85 108.69 211.56 108.69 181.59C108.69 179.52 108.69 163 108.69 160.93C108.69 154.62 109.7 148.55 111.58 142.92C118.6 121.8 137.63 106.66 160 106.66C160 106.66 160 106.66 160 106.66C162.72 106.66 165.39 106.88 167.99 107.31C192.54 111.37 211.32 133.83 211.32 160.93C211.32 165.06 211.32 179.52 211.32 181.59C211.32 208.6 192.66 231 168.23 235.15Z" id="bcnra1jgD"></path><path d="M209.54 189.34C209.54 186.45 211.75 184.13 214.47 184.13C217.2 184.13 219.41 186.45 219.41 189.34C219.41 192.22 217.2 194.56 214.47 194.56C211.75 194.56 209.54 192.22 209.54 189.34Z" id="d9cf3Mh4X"></path><path d="M209.54 189.34C209.54 186.45 211.75 184.13 214.47 184.13C217.2 184.13 219.41 186.45 219.41 189.34C219.41 192.22 217.2 194.56 214.47 194.56C211.75 194.56 209.54 192.22 209.54 189.34Z" id="b14wxTEFJp"></path><path d="M168.23 235.15C168.15 235.16 168.06 235.18 167.99 235.19C143.45 231.15 124.67 208.68 124.67 181.59C124.67 179.52 124.67 163 124.67 160.93C124.67 133.83 143.45 111.37 167.99 107.31C192.54 111.37 211.32 133.83 211.32 160.93C211.32 165.06 211.32 179.52 211.32 181.59C211.32 208.6 192.66 231 168.23 235.15Z" id="b46pNMhCBU"></path><path d="M168.23 235.15C168.15 235.16 168.06 235.18 167.99 235.19C143.45 231.15 124.67 208.68 124.67 181.59C124.67 179.52 124.67 163 124.67 160.93C124.67 133.83 143.45 111.37 167.99 107.31C192.54 111.37 211.32 133.83 211.32 160.93C211.32 165.06 211.32 179.52 211.32 181.59C211.32 208.6 192.66 231 168.23 235.15Z" id="bPxNtt11O"></path><path d="M137.42 178.42C137.42 175.03 140.04 172.27 143.24 172.27C146.47 172.27 149.07 175.03 149.07 178.42C149.07 181.83 146.47 184.59 143.24 184.59C140.04 184.59 137.42 181.83 137.42 178.42Z" id="ezrt2tgTD"></path><path d="M137.42 178.42C137.42 175.03 140.04 172.27 143.24 172.27C146.47 172.27 149.07 175.03 149.07 178.42C149.07 181.83 146.47 184.59 143.24 184.59C140.04 184.59 137.42 181.83 137.42 178.42Z" id="aQYxCnych"></path><path d="M170.93 178.42C170.93 175.03 173.53 172.27 176.76 172.27C179.96 172.27 182.58 175.03 182.58 178.42C182.58 181.83 179.96 184.59 176.76 184.59C173.53 184.59 170.93 181.83 170.93 178.42Z" id="dLDJelnJP"></path><path d="M170.93 178.42C170.93 175.03 173.53 172.27 176.76 172.27C179.96 172.27 182.58 175.03 182.58 178.42C182.58 181.83 179.96 184.59 176.76 184.59C173.53 184.59 170.93 181.83 170.93 178.42Z" id="b5hJmkbx54"></path><path d="M142.9 177.34C142.9 175.88 144.01 174.71 145.4 174.71C146.77 174.71 147.88 175.88 147.88 177.34C147.88 178.8 146.77 179.98 145.4 179.98C144.01 179.98 142.9 178.8 142.9 177.34Z" id="aahSiJS9S"></path><path d="M142.9 177.34C142.9 175.88 144.01 174.71 145.4 174.71C146.77 174.71 147.88 175.88 147.88 177.34C147.88 178.8 146.77 179.98 145.4 179.98C144.01 179.98 142.9 178.8 142.9 177.34Z" id="b1I1rIOL7"></path><path d="M176.68 177.34C176.68 175.88 177.8 174.71 179.18 174.71C180.55 174.71 181.67 175.88 181.67 177.34C181.67 178.8 180.55 179.98 179.18 179.98C177.8 179.98 176.68 178.8 176.68 177.34Z" id="d4CaTdEdJj"></path><path d="M176.68 177.34C176.68 175.88 177.8 174.71 179.18 174.71C180.55 174.71 181.67 175.88 181.67 177.34C181.67 178.8 180.55 179.98 179.18 179.98C177.8 179.98 176.68 178.8 176.68 177.34Z" id="d5aZqlOa8w"></path><path d="M151.67 188.87C151.67 187.39 152.79 186.21 154.18 186.21C155.35 186.21 164.67 186.21 165.82 186.21C167.21 186.21 168.33 187.39 168.33 188.87C168.33 190.33 167.21 191.51 165.82 191.51C163.5 191.51 155.35 191.51 154.18 191.51C152.79 191.51 151.67 190.33 151.67 188.87Z" id="abHtjxEGY3"></path><path d="M151.67 188.87C151.67 187.39 152.79 186.21 154.18 186.21C155.35 186.21 164.67 186.21 165.82 186.21C167.21 186.21 168.33 187.39 168.33 188.87C168.33 190.33 167.21 191.51 165.82 191.51C163.5 191.51 155.35 191.51 154.18 191.51C152.79 191.51 151.67 190.33 151.67 188.87Z" id="e2QIUxzrpS"></path><path d="M146.6 201.62C147.2 200.45 148.59 200.03 149.69 200.67C156.14 204.42 163.86 204.42 170.31 200.67C171.41 200.03 172.81 200.45 173.42 201.62C174.03 202.79 173.62 204.26 172.51 204.9C168.59 207.18 164.3 208.32 160 208.32C155.71 208.32 151.41 207.18 147.49 204.9C146.38 204.26 145.97 202.79 146.6 201.62Z" id="e1wem6Rau"></path><path d="M146.6 201.62C147.2 200.45 148.59 200.03 149.69 200.67C156.14 204.42 163.86 204.42 170.31 200.67C171.41 200.03 172.81 200.45 173.42 201.62C174.03 202.79 173.62 204.26 172.51 204.9C168.59 207.18 164.3 208.32 160 208.32C155.71 208.32 151.41 207.18 147.49 204.9C146.38 204.26 145.97 202.79 146.6 201.62Z" id="c20A0dYiET"></path><path d="M201.77 163.34L201.77 146.76L132.83 133.21L118.24 130.35L118.24 163.34C112.5 163.34 109.32 163.34 108.68 163.34C108.68 150.65 108.68 143.58 108.68 142.17C108.68 118.05 127.18 98.49 149.99 98.49C152 98.49 168 98.49 170.01 98.49C170.54 98.49 171.09 98.49 171.64 98.52C193.7 99.43 211.32 118.62 211.32 142.17C211.32 145 211.32 152.05 211.32 163.34C210.05 163.34 206.87 163.34 201.77 163.34Z" id="fEI3Geemb"></path><path d="M201.77 163.34L201.77 146.76L132.83 133.21L118.24 130.35L118.24 163.34C112.5 163.34 109.32 163.34 108.68 163.34C108.68 150.65 108.68 143.58 108.68 142.17C108.68 118.05 127.18 98.49 149.99 98.49C152 98.49 168 98.49 170.01 98.49C170.54 98.49 171.09 98.49 171.64 98.52C193.7 99.43 211.32 118.62 211.32 142.17C211.32 145 211.32 152.05 211.32 163.34C210.05 163.34 206.87 163.34 201.77 163.34Z" id="agq2fYllu"></path><path d="M201.77 163.34C201.77 153.39 201.77 147.87 201.77 146.76C160.4 138.64 137.42 134.12 132.83 133.21C136.63 113.93 152.45 99.31 171.64 98.52C193.7 99.43 211.32 118.62 211.32 142.17C211.32 145 211.32 152.05 211.32 163.34C210.05 163.34 206.87 163.34 201.77 163.34Z" id="b16FyaH98u"></path><path d="M201.77 163.34C201.77 153.39 201.77 147.87 201.77 146.76C160.4 138.64 137.42 134.12 132.83 133.21C136.63 113.93 152.45 99.31 171.64 98.52C193.7 99.43 211.32 118.62 211.32 142.17C211.32 145 211.32 152.05 211.32 163.34C210.05 163.34 206.87 163.34 201.77 163.34Z" id="amNoRYQAg"></path></defs><g><g><g><use xlink:href="#c39Qe5Halw" opacity="1" fill="#2ba1cf" fill-opacity="1"></use><g><use xlink:href="#c39Qe5Halw" opacity="1" fill-opacity="0" stroke="#000000" stroke-width="1" stroke-opacity="0"></use></g></g><g><use xlink:href="#aTQQ4f1UV" opacity="1" fill="#000000" fill-opacity="0"></use><g><use xlink:href="#aTQQ4f1UV" opacity="1" fill-opacity="0" stroke="#000000" stroke-width="1" stroke-opacity="0"></use></g></g><g><use xlink:href="#b2qEqsex34" opacity="1" fill="#66baed" fill-opacity="1"></use><g><use xlink:href="#b2qEqsex34" opacity="1" fill-opacity="0" stroke="#000000" stroke-width="1" stroke-opacity="0"></use></g></g><g><use xlink:href="#fYRvRinHb" opacity="1" fill="#000000" fill-opacity="0"></use><g><use xlink:href="#fYRvRinHb" opacity="1" fill-opacity="0" stroke="#000000" stroke-width="1" stroke-opacity="0"></use></g></g><g><use xlink:href="#a3Kmi8Ocah" opacity="1" fill="#f2f0ec" fill-opacity="1"></use><g><use xlink:href="#a3Kmi8Ocah" opacity="1" fill-opacity="0" stroke="#000000" stroke-width="1" stroke-opacity="0"></use></g></g><g><use xlink:href="#cr9Jbj5Ln" opacity="1" fill="#000000" fill-opacity="0"></use><g><use xlink:href="#cr9Jbj5Ln" opacity="1" fill-opacity="0" stroke="#000000" stroke-width="1" stroke-opacity="0"></use></g></g><g><use xlink:href="#a33xg66rXd" opacity="1" fill="#d8d5d0" fill-opacity="1"></use><g><use xlink:href="#a33xg66rXd" opacity="1" fill-opacity="0" stroke="#000000" stroke-width="1" stroke-opacity="0"></use></g></g><g><use xlink:href="#cdyeCbadh" opacity="1" fill="#000000" fill-opacity="0"></use><g><use xlink:href="#cdyeCbadh" opacity="1" fill-opacity="0" stroke="#000000" stroke-width="1" stroke-opacity="0"></use></g></g><g><use xlink:href="#a1RkNkZIi1" opacity="1" fill="#d8d5d0" fill-opacity="1"></use><g><use xlink:href="#a1RkNkZIi1" opacity="1" fill-opacity="0" stroke="#000000" stroke-width="1" stroke-opacity="0"></use></g></g><g><use xlink:href="#beRDYWNbq" opacity="1" fill="#000000" fill-opacity="0"></use><g><use xlink:href="#beRDYWNbq" opacity="1" fill-opacity="0" stroke="#000000" stroke-width="1" stroke-opacity="0"></use></g></g><g><use xlink:href="#c3neiyc56" opacity="1" fill="#cc7a3b" fill-opacity="1"></use><g><use xlink:href="#c3neiyc56" opacity="1" fill-opacity="0" stroke="#000000" stroke-width="1" stroke-opacity="0"></use></g></g><g><use xlink:href="#dTgV2WK7Y" opacity="1" fill="#000000" fill-opacity="0"></use><g><use xlink:href="#dTgV2WK7Y" opacity="1" fill-opacity="0" stroke="#000000" stroke-width="1" stroke-opacity="0"></use></g></g><g><use xlink:href="#bCd4fUW2a" opacity="1" fill="#a35418" fill-opacity="1"></use><g><use xlink:href="#bCd4fUW2a" opacity="1" fill-opacity="0" stroke="#000000" stroke-width="1" stroke-opacity="0"></use></g></g><g><use xlink:href="#a4j8BjMxVt" opacity="1" fill="#000000" fill-opacity="0"></use><g><use xlink:href="#a4j8BjMxVt" opacity="1" fill-opacity="0" stroke="#000000" stroke-width="1" stroke-opacity="0"></use></g></g><g><use xlink:href="#b4klG9E2P" opacity="1" fill="#eab599" fill-opacity="1"></use><g><use xlink:href="#b4klG9E2P" opacity="1" fill-opacity="0" stroke="#000000" stroke-width="1" stroke-opacity="0"></use></g></g><g><use xlink:href="#aGX2WH6Pl" opacity="1" fill="#000000" fill-opacity="0"></use><g><use xlink:href="#aGX2WH6Pl" opacity="1" fill-opacity="0" stroke="#000000" stroke-width="1" stroke-opacity="0"></use></g></g><g><use xlink:href="#a34ehLpUC" opacity="1" fill="#f6caae" fill-opacity="1"></use><g><use xlink:href="#a34ehLpUC" opacity="1" fill-opacity="0" stroke="#000000" stroke-width="1" stroke-opacity="0"></use></g></g><g><use xlink:href="#k1pPVmtvXa" opacity="1" fill="#000000" fill-opacity="0"></use><g><use xlink:href="#k1pPVmtvXa" opacity="1" fill-opacity="0" stroke="#000000" stroke-width="1" stroke-opacity="0"></use></g></g><g><use xlink:href="#c3lQncz1YN" opacity="1" fill="#f6caae" fill-opacity="1"></use><g><use xlink:href="#c3lQncz1YN" opacity="1" fill-opacity="0" stroke="#000000" stroke-width="1" stroke-opacity="0"></use></g></g><g><use xlink:href="#f11rzxY219" opacity="1" fill="#000000" fill-opacity="0"></use><g><use xlink:href="#f11rzxY219" opacity="1" fill-opacity="0" stroke="#000000" stroke-width="1" stroke-opacity="0"></use></g></g><g><use xlink:href="#aCjO9hOEC" opacity="1" fill="#eab599" fill-opacity="1"></use><g><use xlink:href="#aCjO9hOEC" opacity="1" fill-opacity="0" stroke="#000000" stroke-width="1" stroke-opacity="0"></use></g></g><g><use xlink:href="#c4wjqAL6j" opacity="1" fill="#000000" fill-opacity="0"></use><g><use xlink:href="#c4wjqAL6j" opacity="1" fill-opacity="0" stroke="#000000" stroke-width="1" stroke-opacity="0"></use></g></g><g><use xlink:href="#ed6Pc26PT" opacity="1" fill="#eab599" fill-opacity="1"></use><g><use xlink:href="#ed6Pc26PT" opacity="1" fill-opacity="0" stroke="#000000" stroke-width="1" stroke-opacity="0"></use></g></g><g><use xlink:href="#b26KXnoGv2" opacity="1" fill="#000000" fill-opacity="0"></use><g><use xlink:href="#b26KXnoGv2" opacity="1" fill-opacity="0" stroke="#000000" stroke-width="1" stroke-opacity="0"></use></g></g><g><use xlink:href="#e6G18UWYC9" opacity="1" fill="#eab599" fill-opacity="1"></use><g><use xlink:href="#e6G18UWYC9" opacity="1" fill-opacity="0" stroke="#000000" stroke-width="1" stroke-opacity="0"></use></g></g><g><use xlink:href="#klU70vDG7" opacity="1" fill="#000000" fill-opacity="0"></use><g><use xlink:href="#klU70vDG7" opacity="1" fill-opacity="0" stroke="#000000" stroke-width="1" stroke-opacity="0"></use></g></g><g><use xlink:href="#b36nX8QqHe" opacity="1" fill="#f6caae" fill-opacity="1"></use><g><use xlink:href="#b36nX8QqHe" opacity="1" fill-opacity="0" stroke="#000000" stroke-width="1" stroke-opacity="0"></use></g></g><g><use xlink:href="#b50qSVVWto" opacity="1" fill="#000000" fill-opacity="0"></use><g><use xlink:href="#b50qSVVWto" opacity="1" fill-opacity="0" stroke="#000000" stroke-width="1" stroke-opacity="0"></use></g></g><g><use xlink:href="#a1hOKDbHD0" opacity="1" fill="#eab599" fill-opacity="1"></use><g><use xlink:href="#a1hOKDbHD0" opacity="1" fill-opacity="0" stroke="#000000" stroke-width="1" stroke-opacity="0"></use></g></g><g><use xlink:href="#a1cHkhqz5D" opacity="1" fill="#000000" fill-opacity="0"></use><g><use xlink:href="#a1cHkhqz5D" opacity="1" fill-opacity="0" stroke="#000000" stroke-width="1" stroke-opacity="0"></use></g></g><g><use xlink:href="#bdoEFvKtQ" opacity="1" fill="#eab599" fill-opacity="1"></use><g><use xlink:href="#bdoEFvKtQ" opacity="1" fill-opacity="0" stroke="#000000" stroke-width="1" stroke-opacity="0"></use></g></g><g><use xlink:href="#dCbhk80GM" opacity="1" fill="#000000" fill-opacity="0"></use><g><use xlink:href="#dCbhk80GM" opacity="1" fill-opacity="0" stroke="#000000" stroke-width="1" stroke-opacity="0"></use></g></g><g><use xlink:href="#hrFpzZRyb" opacity="1" fill="#3d4159" fill-opacity="1"></use><g><use xlink:href="#hrFpzZRyb" opacity="1" fill-opacity="0" stroke="#000000" stroke-width="1" stroke-opacity="0"></use></g></g><g><use xlink:href="#b17fXjAO8r" opacity="1" fill="#000000" fill-opacity="0"></use><g><use xlink:href="#b17fXjAO8r" opacity="1" fill-opacity="0" stroke="#000000" stroke-width="1" stroke-opacity="0"></use></g></g><g><use xlink:href="#c3pCvTKQDR" opacity="1" fill="#3d4159" fill-opacity="1"></use><g><use xlink:href="#c3pCvTKQDR" opacity="1" fill-opacity="0" stroke="#000000" stroke-width="1" stroke-opacity="0"></use></g></g><g><use xlink:href="#b5SOzFWdYK" opacity="1" fill="#000000" fill-opacity="0"></use><g><use xlink:href="#b5SOzFWdYK" opacity="1" fill-opacity="0" stroke="#000000" stroke-width="1" stroke-opacity="0"></use></g></g><g><use xlink:href="#a5gprvWALt" opacity="1" fill="#eab599" fill-opacity="1"></use><g><use xlink:href="#a5gprvWALt" opacity="1" fill-opacity="0" stroke="#000000" stroke-width="1" stroke-opacity="0"></use></g></g><g><use xlink:href="#d6BoMTzvr8" opacity="1" fill="#000000" fill-opacity="0"></use><g><use xlink:href="#d6BoMTzvr8" opacity="1" fill-opacity="0" stroke="#000000" stroke-width="1" stroke-opacity="0"></use></g></g><g><use xlink:href="#br23cnaZz" opacity="1" fill="#eab599" fill-opacity="1"></use><g><use xlink:href="#br23cnaZz" opacity="1" fill-opacity="0" stroke="#000000" stroke-width="1" stroke-opacity="0"></use></g></g><g><use xlink:href="#aVjQLhWOH" opacity="1" fill="#000000" fill-opacity="0"></use><g><use xlink:href="#aVjQLhWOH" opacity="1" fill-opacity="0" stroke="#000000" stroke-width="1" stroke-opacity="0"></use></g></g><g><use xlink:href="#dR7YvIZ2h" opacity="1" fill="#ffffff" fill-opacity="1"></use><g><use xlink:href="#dR7YvIZ2h" opacity="1" fill-opacity="0" stroke="#000000" stroke-width="1" stroke-opacity="0"></use></g></g><g><use xlink:href="#d2IYesY1v" opacity="1" fill="#000000" fill-opacity="0"></use><g><use xlink:href="#d2IYesY1v" opacity="1" fill-opacity="0" stroke="#000000" stroke-width="1" stroke-opacity="0"></use></g></g><g><use xlink:href="#l2iY9M7Gxf" opacity="1" fill="#ffffff" fill-opacity="1"></use><g><use xlink:href="#l2iY9M7Gxf" opacity="1" fill-opacity="0" stroke="#000000" stroke-width="1" stroke-opacity="0"></use></g></g><g><use xlink:href="#idM1cn4FK" opacity="1" fill="#000000" fill-opacity="0"></use><g><use xlink:href="#idM1cn4FK" opacity="1" fill-opacity="0" stroke="#000000" stroke-width="1" stroke-opacity="0"></use></g></g><g><use xlink:href="#asPS7SmVb" opacity="1" fill="#eab599" fill-opacity="1"></use><g><use xlink:href="#asPS7SmVb" opacity="1" fill-opacity="0" stroke="#000000" stroke-width="1" stroke-opacity="0"></use></g></g><g><use xlink:href="#a2JmFxqVyS" opacity="1" fill="#000000" fill-opacity="0"></use><g><use xlink:href="#a2JmFxqVyS" opacity="1" fill-opacity="0" stroke="#000000" stroke-width="1" stroke-opacity="0"></use></g></g><g><use xlink:href="#e5eAFQgDqG" opacity="1" fill="#eab599" fill-opacity="1"></use><g><use xlink:href="#e5eAFQgDqG" opacity="1" fill-opacity="0" stroke="#000000" stroke-width="1" stroke-opacity="0"></use></g></g><g><use xlink:href="#c3HMe2BWMw" opacity="1" fill="#000000" fill-opacity="0"></use><g><use xlink:href="#c3HMe2BWMw" opacity="1" fill-opacity="0" stroke="#000000" stroke-width="1" stroke-opacity="0"></use></g></g><g><use xlink:href="#a4cLSLwDi5" opacity="1" fill="#bfd5de" fill-opacity="1"></use><g><use xlink:href="#a4cLSLwDi5" opacity="1" fill-opacity="0" stroke="#000000" stroke-width="1" stroke-opacity="0"></use></g></g><g><use xlink:href="#b3A8jLzwnZ" opacity="1" fill="#000000" fill-opacity="0"></use><g><use xlink:href="#b3A8jLzwnZ" opacity="1" fill-opacity="0" stroke="#000000" stroke-width="1" stroke-opacity="0"></use></g></g><g><use xlink:href="#c6k7IX4Db" opacity="1" fill="#dde8ed" fill-opacity="1"></use><g><use xlink:href="#c6k7IX4Db" opacity="1" fill-opacity="0" stroke="#000000" stroke-width="1" stroke-opacity="0"></use></g></g><g><use xlink:href="#bUiTydF26" opacity="1" fill="#000000" fill-opacity="0"></use><g><use xlink:href="#bUiTydF26" opacity="1" fill-opacity="0" stroke="#000000" stroke-width="1" stroke-opacity="0"></use></g></g><g><use xlink:href="#cmStsZCqp" opacity="1" fill="#d3a489" fill-opacity="1"></use><g><use xlink:href="#cmStsZCqp" opacity="1" fill-opacity="0" stroke="#000000" stroke-width="1" stroke-opacity="0"></use></g></g><g><use xlink:href="#jre2dYmaX" opacity="1" fill="#000000" fill-opacity="0"></use><g><use xlink:href="#jre2dYmaX" opacity="1" fill-opacity="0" stroke="#000000" stroke-width="1" stroke-opacity="0"></use></g></g><g><use xlink:href="#b68c1H13pg" opacity="1" fill="#f74f4f" fill-opacity="1"></use><g><use xlink:href="#b68c1H13pg" opacity="1" fill-opacity="0" stroke="#000000" stroke-width="1" stroke-opacity="0"></use></g></g><g><use xlink:href="#atOkBawpc" opacity="1" fill="#000000" fill-opacity="0"></use><g><use xlink:href="#atOkBawpc" opacity="1" fill-opacity="0" stroke="#000000" stroke-width="1" stroke-opacity="0"></use></g></g><g><use xlink:href="#b105QKL5ij" opacity="1" fill="#f74f4f" fill-opacity="1"></use><g><use xlink:href="#b105QKL5ij" opacity="1" fill-opacity="0" stroke="#000000" stroke-width="1" stroke-opacity="0"></use></g></g><g><use xlink:href="#eqzx1YIqW" opacity="1" fill="#000000" fill-opacity="0"></use><g><use xlink:href="#eqzx1YIqW" opacity="1" fill-opacity="0" stroke="#000000" stroke-width="1" stroke-opacity="0"></use></g></g><g><use xlink:href="#b2B3V8fgZ9" opacity="1" fill="#bf8e75" fill-opacity="1"></use><g><use xlink:href="#b2B3V8fgZ9" opacity="1" fill-opacity="0" stroke="#000000" stroke-width="1" stroke-opacity="0"></use></g></g><g><use xlink:href="#aCBGQ7rPg" opacity="1" fill="#000000" fill-opacity="0"></use><g><use xlink:href="#aCBGQ7rPg" opacity="1" fill-opacity="0" stroke="#000000" stroke-width="1" stroke-opacity="0"></use></g></g><g><use xlink:href="#c3Soby5ZH" opacity="1" fill="#bf8e75" fill-opacity="1"></use><g><use xlink:href="#c3Soby5ZH" opacity="1" fill-opacity="0" stroke="#000000" stroke-width="1" stroke-opacity="0"></use></g></g><g><use xlink:href="#e1mWD36AHH" opacity="1" fill="#000000" fill-opacity="0"></use><g><use xlink:href="#e1mWD36AHH" opacity="1" fill-opacity="0" stroke="#000000" stroke-width="1" stroke-opacity="0"></use></g></g><g><use xlink:href="#bdMMM0pxL" opacity="1" fill="#bfd5de" fill-opacity="1"></use><g><use xlink:href="#bdMMM0pxL" opacity="1" fill-opacity="0" stroke="#000000" stroke-width="1" stroke-opacity="0"></use></g></g><g><use xlink:href="#b4fvr8plO" opacity="1" fill="#000000" fill-opacity="0"></use><g><use xlink:href="#b4fvr8plO" opacity="1" fill-opacity="0" stroke="#000000" stroke-width="1" stroke-opacity="0"></use></g></g><g><use xlink:href="#b7NyhMjT4b" opacity="1" fill="#bfd5de" fill-opacity="1"></use><g><use xlink:href="#b7NyhMjT4b" opacity="1" fill-opacity="0" stroke="#000000" stroke-width="1" stroke-opacity="0"></use></g></g><g><use xlink:href="#b11ZiXz8r7" opacity="1" fill="#000000" fill-opacity="0"></use><g><use xlink:href="#b11ZiXz8r7" opacity="1" fill-opacity="0" stroke="#000000" stroke-width="1" stroke-opacity="0"></use></g></g><g><use xlink:href="#cfO9DWGx5" opacity="1" fill="#d3a489" fill-opacity="1"></use><g><use xlink:href="#cfO9DWGx5" opacity="1" fill-opacity="0" stroke="#000000" stroke-width="1" stroke-opacity="0"></use></g></g><g><use xlink:href="#a7srCIRh1f" opacity="1" fill="#000000" fill-opacity="0"></use><g><use xlink:href="#a7srCIRh1f" opacity="1" fill-opacity="0" stroke="#000000" stroke-width="1" stroke-opacity="0"></use></g></g><g><use xlink:href="#b1EauxNTq6" opacity="1" fill="#bf8e75" fill-opacity="1"></use><g><use xlink:href="#b1EauxNTq6" opacity="1" fill-opacity="0" stroke="#000000" stroke-width="1" stroke-opacity="0"></use></g></g><g><use xlink:href="#b2rpBXQXMl" opacity="1" fill="#000000" fill-opacity="0"></use><g><use xlink:href="#b2rpBXQXMl" opacity="1" fill-opacity="0" stroke="#000000" stroke-width="1" stroke-opacity="0"></use></g></g><g><use xlink:href="#e3SRevQRH" opacity="1" fill="#bf8e75" fill-opacity="1"></use><g><use xlink:href="#e3SRevQRH" opacity="1" fill-opacity="0" stroke="#000000" stroke-width="1" stroke-opacity="0"></use></g></g><g><use xlink:href="#g1AGnQ8n7v" opacity="1" fill="#000000" fill-opacity="0"></use><g><use xlink:href="#g1AGnQ8n7v" opacity="1" fill-opacity="0" stroke="#000000" stroke-width="1" stroke-opacity="0"></use></g></g><g><use xlink:href="#agNH5haUs" opacity="1" fill="#bf8e75" fill-opacity="1"></use><g><use xlink:href="#agNH5haUs" opacity="1" fill-opacity="0" stroke="#000000" stroke-width="1" stroke-opacity="0"></use></g></g><g><use xlink:href="#g14CUFFjw" opacity="1" fill="#000000" fill-opacity="0"></use><g><use xlink:href="#g14CUFFjw" opacity="1" fill-opacity="0" stroke="#000000" stroke-width="1" stroke-opacity="0"></use></g></g><g><use xlink:href="#as9ZoYpTq" opacity="1" fill="#bf8e75" fill-opacity="1"></use><g><use xlink:href="#as9ZoYpTq" opacity="1" fill-opacity="0" stroke="#000000" stroke-width="1" stroke-opacity="0"></use></g></g><g><use xlink:href="#c1VNMyimkh" opacity="1" fill="#000000" fill-opacity="0"></use><g><use xlink:href="#c1VNMyimkh" opacity="1" fill-opacity="0" stroke="#000000" stroke-width="1" stroke-opacity="0"></use></g></g><g><use xlink:href="#b1iB1xbTvi" opacity="1" fill="#d3a489" fill-opacity="1"></use><g><use xlink:href="#b1iB1xbTvi" opacity="1" fill-opacity="0" stroke="#000000" stroke-width="1" stroke-opacity="0"></use></g></g><g><use xlink:href="#h86GU5eUg" opacity="1" fill="#000000" fill-opacity="0"></use><g><use xlink:href="#h86GU5eUg" opacity="1" fill-opacity="0" stroke="#000000" stroke-width="1" stroke-opacity="0"></use></g></g><g><use xlink:href="#dlRr5kkpH" opacity="1" fill="#d3a489" fill-opacity="1"></use><g><use xlink:href="#dlRr5kkpH" opacity="1" fill-opacity="0" stroke="#000000" stroke-width="1" stroke-opacity="0"></use></g></g><g><use xlink:href="#b5WGbruLMt" opacity="1" fill="#000000" fill-opacity="0"></use><g><use xlink:href="#b5WGbruLMt" opacity="1" fill-opacity="0" stroke="#000000" stroke-width="1" stroke-opacity="0"></use></g></g><g><use xlink:href="#d6lequoS2" opacity="1" fill="#bf8e75" fill-opacity="1"></use><g><use xlink:href="#d6lequoS2" opacity="1" fill-opacity="0" stroke="#000000" stroke-width="1" stroke-opacity="0"></use></g></g><g><use xlink:href="#agdbY2G2I" opacity="1" fill="#000000" fill-opacity="0"></use><g><use xlink:href="#agdbY2G2I" opacity="1" fill-opacity="0" stroke="#000000" stroke-width="1" stroke-opacity="0"></use></g></g><g><use xlink:href="#aMjjblRPK" opacity="1" fill="#3d4159" fill-opacity="1"></use><g><use xlink:href="#aMjjblRPK" opacity="1" fill-opacity="0" stroke="#000000" stroke-width="1" stroke-opacity="0"></use></g></g><g><use xlink:href="#a1nX1ISiyp" opacity="1" fill="#000000" fill-opacity="0"></use><g><use xlink:href="#a1nX1ISiyp" opacity="1" fill-opacity="0" stroke="#000000" stroke-width="1" stroke-opacity="0"></use></g></g><g><use xlink:href="#b2kRo1rVJ" opacity="1" fill="#3d4159" fill-opacity="1"></use><g><use xlink:href="#b2kRo1rVJ" opacity="1" fill-opacity="0" stroke="#000000" stroke-width="1" stroke-opacity="0"></use></g></g><g><use xlink:href="#ad3ASJx7O" opacity="1" fill="#000000" fill-opacity="0"></use><g><use xlink:href="#ad3ASJx7O" opacity="1" fill-opacity="0" stroke="#000000" stroke-width="1" stroke-opacity="0"></use></g></g><g><use xlink:href="#a2xlKghDMr" opacity="1" fill="#ffffff" fill-opacity="1"></use><g><use xlink:href="#a2xlKghDMr" opacity="1" fill-opacity="0" stroke="#000000" stroke-width="1" stroke-opacity="0"></use></g></g><g><use xlink:href="#b6ypAIvaJw" opacity="1" fill="#000000" fill-opacity="0"></use><g><use xlink:href="#b6ypAIvaJw" opacity="1" fill-opacity="0" stroke="#000000" stroke-width="1" stroke-opacity="0"></use></g></g><g><use xlink:href="#d5irtBU7EF" opacity="1" fill="#ffffff" fill-opacity="1"></use><g><use xlink:href="#d5irtBU7EF" opacity="1" fill-opacity="0" stroke="#000000" stroke-width="1" stroke-opacity="0"></use></g></g><g><use xlink:href="#cswW7wrQk" opacity="1" fill="#000000" fill-opacity="0"></use><g><use xlink:href="#cswW7wrQk" opacity="1" fill-opacity="0" stroke="#000000" stroke-width="1" stroke-opacity="0"></use></g></g><g><use xlink:href="#c2lmf9Rvz4" opacity="1" fill="#bf8e75" fill-opacity="1"></use><g><use xlink:href="#c2lmf9Rvz4" opacity="1" fill-opacity="0" stroke="#000000" stroke-width="1" stroke-opacity="0"></use></g></g><g><use xlink:href="#f1gqAnI1sl" opacity="1" fill="#000000" fill-opacity="0"></use><g><use xlink:href="#f1gqAnI1sl" opacity="1" fill-opacity="0" stroke="#000000" stroke-width="1" stroke-opacity="0"></use></g></g><g><use xlink:href="#dO9la2lkC" opacity="1" fill="#bfd5de" fill-opacity="1"></use><g><use xlink:href="#dO9la2lkC" opacity="1" fill-opacity="0" stroke="#000000" stroke-width="1" stroke-opacity="0"></use></g></g><g><use xlink:href="#hOCzU8OtD" opacity="1" fill="#000000" fill-opacity="0"></use><g><use xlink:href="#hOCzU8OtD" opacity="1" fill-opacity="0" stroke="#000000" stroke-width="1" stroke-opacity="0"></use></g></g><g><use xlink:href="#e4Ef9U7pyk" opacity="1" fill="#2a2f4f" fill-opacity="1"></use><g><use xlink:href="#e4Ef9U7pyk" opacity="1" fill-opacity="0" stroke="#000000" stroke-width="1" stroke-opacity="0"></use></g></g><g><use xlink:href="#cFyPjqX3v" opacity="1" fill="#000000" fill-opacity="0"></use><g><use xlink:href="#cFyPjqX3v" opacity="1" fill-opacity="0" stroke="#000000" stroke-width="1" stroke-opacity="0"></use></g></g><g><use xlink:href="#eRTYWxY2p" opacity="1" fill="#3d4159" fill-opacity="1"></use><g><use xlink:href="#eRTYWxY2p" opacity="1" fill-opacity="0" stroke="#000000" stroke-width="1" stroke-opacity="0"></use></g></g><g><use xlink:href="#brjBrysgc" opacity="1" fill="#000000" fill-opacity="0"></use><g><use xlink:href="#brjBrysgc" opacity="1" fill-opacity="0" stroke="#000000" stroke-width="1" stroke-opacity="0"></use></g></g><g><use xlink:href="#faNHgDCPN" opacity="1" fill="#3d4159" fill-opacity="1"></use><g><use xlink:href="#faNHgDCPN" opacity="1" fill-opacity="0" stroke="#000000" stroke-width="1" stroke-opacity="0"></use></g></g><g><use xlink:href="#d67YmMQYr" opacity="1" fill="#000000" fill-opacity="0"></use><g><use xlink:href="#d67YmMQYr" opacity="1" fill-opacity="0" stroke="#000000" stroke-width="1" stroke-opacity="0"></use></g></g><g><use xlink:href="#aO0wU7NP3" opacity="1" fill="#2a2f4f" fill-opacity="1"></use><g><use xlink:href="#aO0wU7NP3" opacity="1" fill-opacity="0" stroke="#000000" stroke-width="1" stroke-opacity="0"></use></g></g><g><use xlink:href="#am7YOxevL" opacity="1" fill="#000000" fill-opacity="0"></use><g><use xlink:href="#am7YOxevL" opacity="1" fill-opacity="0" stroke="#000000" stroke-width="1" stroke-opacity="0"></use></g></g><g><use xlink:href="#a9Cp8Z7tc" opacity="1" fill="#3d4159" fill-opacity="1"></use><g><use xlink:href="#a9Cp8Z7tc" opacity="1" fill-opacity="0" stroke="#000000" stroke-width="1" stroke-opacity="0"></use></g></g><g><use xlink:href="#h8F1kmLhT" opacity="1" fill="#000000" fill-opacity="0"></use><g><use xlink:href="#h8F1kmLhT" opacity="1" fill-opacity="0" stroke="#000000" stroke-width="1" stroke-opacity="0"></use></g></g><g><use xlink:href="#aKbWJITh4" opacity="1" fill="#66baed" fill-opacity="1"></use><g><use xlink:href="#aKbWJITh4" opacity="1" fill-opacity="0" stroke="#000000" stroke-width="1" stroke-opacity="0"></use></g></g><g><use xlink:href="#a3futU8m6F" opacity="1" fill="#000000" fill-opacity="0"></use><g><use xlink:href="#a3futU8m6F" opacity="1" fill-opacity="0" stroke="#000000" stroke-width="1" stroke-opacity="0"></use></g></g><g><use xlink:href="#a49MbFlt63" opacity="1" fill="#3d4159" fill-opacity="1"></use><g><use xlink:href="#a49MbFlt63" opacity="1" fill-opacity="0" stroke="#000000" stroke-width="1" stroke-opacity="0"></use></g></g><g><use xlink:href="#f1zz0QbVxR" opacity="1" fill="#000000" fill-opacity="0"></use><g><use xlink:href="#f1zz0QbVxR" opacity="1" fill-opacity="0" stroke="#000000" stroke-width="1" stroke-opacity="0"></use></g></g><g><use xlink:href="#b2slroHaJd" opacity="1" fill="#3d4159" fill-opacity="1"></use><g><use xlink:href="#b2slroHaJd" opacity="1" fill-opacity="0" stroke="#000000" stroke-width="1" stroke-opacity="0"></use></g></g><g><use xlink:href="#g2mttvjgDI" opacity="1" fill="#000000" fill-opacity="0"></use><g><use xlink:href="#g2mttvjgDI" opacity="1" fill-opacity="0" stroke="#000000" stroke-width="1" stroke-opacity="0"></use></g></g><g><use xlink:href="#aAbzLy1M" opacity="1" fill="#2ba1cf" fill-opacity="1"></use><g><use xlink:href="#aAbzLy1M" opacity="1" fill-opacity="0" stroke="#000000" stroke-width="1" stroke-opacity="0"></use></g></g><g><use xlink:href="#d3eNizXjyT" opacity="1" fill="#000000" fill-opacity="0"></use><g><use xlink:href="#d3eNizXjyT" opacity="1" fill-opacity="0" stroke="#000000" stroke-width="1" stroke-opacity="0"></use></g></g><g><use xlink:href="#d18fWWBT5V" opacity="1" fill="#2ba1cf" fill-opacity="1"></use><g><use xlink:href="#d18fWWBT5V" opacity="1" fill-opacity="0" stroke="#000000" stroke-width="1" stroke-opacity="0"></use></g></g><g><use xlink:href="#byTochdy" opacity="1" fill="#000000" fill-opacity="0"></use><g><use xlink:href="#byTochdy" opacity="1" fill-opacity="0" stroke="#000000" stroke-width="1" stroke-opacity="0"></use></g></g><g><use xlink:href="#dvlIjuFvR" opacity="1" fill="#2a2f4f" fill-opacity="1"></use><g><use xlink:href="#dvlIjuFvR" opacity="1" fill-opacity="0" stroke="#000000" stroke-width="1" stroke-opacity="0"></use></g></g><g><use xlink:href="#bmkxosDnW" opacity="1" fill="#000000" fill-opacity="0"></use><g><use xlink:href="#bmkxosDnW" opacity="1" fill-opacity="0" stroke="#000000" stroke-width="1" stroke-opacity="0"></use></g></g><g><use xlink:href="#a1WWJgZnL3" opacity="1" fill="#2a2f4f" fill-opacity="1"></use><g><use xlink:href="#a1WWJgZnL3" opacity="1" fill-opacity="0" stroke="#000000" stroke-width="1" stroke-opacity="0"></use></g></g><g><use xlink:href="#k2aNR4ppkK" opacity="1" fill="#000000" fill-opacity="0"></use><g><use xlink:href="#k2aNR4ppkK" opacity="1" fill-opacity="0" stroke="#000000" stroke-width="1" stroke-opacity="0"></use></g></g><g><use xlink:href="#b7aLYK7lU6" opacity="1" fill="#eab599" fill-opacity="1"></use><g><use xlink:href="#b7aLYK7lU6" opacity="1" fill-opacity="0" stroke="#000000" stroke-width="1" stroke-opacity="0"></use></g></g><g><use xlink:href="#c2Mo5NaFAD" opacity="1" fill="#000000" fill-opacity="0"></use><g><use xlink:href="#c2Mo5NaFAD" opacity="1" fill-opacity="0" stroke="#000000" stroke-width="1" stroke-opacity="0"></use></g></g><g><use xlink:href="#bujjM1sjm" opacity="1" fill="#f6caae" fill-opacity="1"></use><g><use xlink:href="#bujjM1sjm" opacity="1" fill-opacity="0" stroke="#000000" stroke-width="1" stroke-opacity="0"></use></g></g><g><use xlink:href="#b3I5CpwVWn" opacity="1" fill="#000000" fill-opacity="0"></use><g><use xlink:href="#b3I5CpwVWn" opacity="1" fill-opacity="0" stroke="#000000" stroke-width="1" stroke-opacity="0"></use></g></g><g><use xlink:href="#bdve4JBfT" opacity="1" fill="#f6caae" fill-opacity="1"></use><g><use xlink:href="#bdve4JBfT" opacity="1" fill-opacity="0" stroke="#000000" stroke-width="1" stroke-opacity="0"></use></g></g><g><use xlink:href="#b28WR0Vrnm" opacity="1" fill="#000000" fill-opacity="0"></use><g><use xlink:href="#b28WR0Vrnm" opacity="1" fill-opacity="0" stroke="#000000" stroke-width="1" stroke-opacity="0"></use></g></g><g><use xlink:href="#b7A1w79oMa" opacity="1" fill="#eab599" fill-opacity="1"></use><g><use xlink:href="#b7A1w79oMa" opacity="1" fill-opacity="0" stroke="#000000" stroke-width="1" stroke-opacity="0"></use></g></g><g><use xlink:href="#abJB8Idw2" opacity="1" fill="#000000" fill-opacity="0"></use><g><use xlink:href="#abJB8Idw2" opacity="1" fill-opacity="0" stroke="#000000" stroke-width="1" stroke-opacity="0"></use></g></g><g><use xlink:href="#c1AnfMgfwp" opacity="1" fill="#eab599" fill-opacity="1"></use><g><use xlink:href="#c1AnfMgfwp" opacity="1" fill-opacity="0" stroke="#000000" stroke-width="1" stroke-opacity="0"></use></g></g><g><use xlink:href="#a38qWcYSp" opacity="1" fill="#000000" fill-opacity="0"></use><g><use xlink:href="#a38qWcYSp" opacity="1" fill-opacity="0" stroke="#000000" stroke-width="1" stroke-opacity="0"></use></g></g><g><use xlink:href="#a1DAhQJ534" opacity="1" fill="#f6caae" fill-opacity="1"></use><g><use xlink:href="#a1DAhQJ534" opacity="1" fill-opacity="0" stroke="#000000" stroke-width="1" stroke-opacity="0"></use></g></g><g><use xlink:href="#dePzTHCbL" opacity="1" fill="#000000" fill-opacity="0"></use><g><use xlink:href="#dePzTHCbL" opacity="1" fill-opacity="0" stroke="#000000" stroke-width="1" stroke-opacity="0"></use></g></g><g><use xlink:href="#abKLxypEp" opacity="1" fill="#eab599" fill-opacity="1"></use><g><use xlink:href="#abKLxypEp" opacity="1" fill-opacity="0" stroke="#000000" stroke-width="1" stroke-opacity="0"></use></g></g><g><use xlink:href="#i5t4zsmwH" opacity="1" fill="#000000" fill-opacity="0"></use><g><use xlink:href="#i5t4zsmwH" opacity="1" fill-opacity="0" stroke="#000000" stroke-width="1" stroke-opacity="0"></use></g></g><g><use xlink:href="#a9QfmV4eC" opacity="1" fill="#eab599" fill-opacity="1"></use><g><use xlink:href="#a9QfmV4eC" opacity="1" fill-opacity="0" stroke="#000000" stroke-width="1" stroke-opacity="0"></use></g></g><g><use xlink:href="#bcnra1jgD" opacity="1" fill="#000000" fill-opacity="0"></use><g><use xlink:href="#bcnra1jgD" opacity="1" fill-opacity="0" stroke="#000000" stroke-width="1" stroke-opacity="0"></use></g></g><g><use xlink:href="#d9cf3Mh4X" opacity="1" fill="#eab599" fill-opacity="1"></use><g><use xlink:href="#d9cf3Mh4X" opacity="1" fill-opacity="0" stroke="#000000" stroke-width="1" stroke-opacity="0"></use></g></g><g><use xlink:href="#b14wxTEFJp" opacity="1" fill="#000000" fill-opacity="0"></use><g><use xlink:href="#b14wxTEFJp" opacity="1" fill-opacity="0" stroke="#000000" stroke-width="1" stroke-opacity="0"></use></g></g><g><use xlink:href="#b46pNMhCBU" opacity="1" fill="#f6caae" fill-opacity="1"></use><g><use xlink:href="#b46pNMhCBU" opacity="1" fill-opacity="0" stroke="#000000" stroke-width="1" stroke-opacity="0"></use></g></g><g><use xlink:href="#bPxNtt11O" opacity="1" fill="#000000" fill-opacity="0"></use><g><use xlink:href="#bPxNtt11O" opacity="1" fill-opacity="0" stroke="#000000" stroke-width="1" stroke-opacity="0"></use></g></g><g><use xlink:href="#ezrt2tgTD" opacity="1" fill="#3d4159" fill-opacity="1"></use><g><use xlink:href="#ezrt2tgTD" opacity="1" fill-opacity="0" stroke="#000000" stroke-width="1" stroke-opacity="0"></use></g></g><g><use xlink:href="#aQYxCnych" opacity="1" fill="#000000" fill-opacity="0"></use><g><use xlink:href="#aQYxCnych" opacity="1" fill-opacity="0" stroke="#000000" stroke-width="1" stroke-opacity="0"></use></g></g><g><use xlink:href="#dLDJelnJP" opacity="1" fill="#3d4159" fill-opacity="1"></use><g><use xlink:href="#dLDJelnJP" opacity="1" fill-opacity="0" stroke="#000000" stroke-width="1" stroke-opacity="0"></use></g></g><g><use xlink:href="#b5hJmkbx54" opacity="1" fill="#000000" fill-opacity="0"></use><g><use xlink:href="#b5hJmkbx54" opacity="1" fill-opacity="0" stroke="#000000" stroke-width="1" stroke-opacity="0"></use></g></g><g><use xlink:href="#aahSiJS9S" opacity="1" fill="#ffffff" fill-opacity="1"></use><g><use xlink:href="#aahSiJS9S" opacity="1" fill-opacity="0" stroke="#000000" stroke-width="1" stroke-opacity="0"></use></g></g><g><use xlink:href="#b1I1rIOL7" opacity="1" fill="#000000" fill-opacity="0"></use><g><use xlink:href="#b1I1rIOL7" opacity="1" fill-opacity="0" stroke="#000000" stroke-width="1" stroke-opacity="0"></use></g></g><g><use xlink:href="#d4CaTdEdJj" opacity="1" fill="#ffffff" fill-opacity="1"></use><g><use xlink:href="#d4CaTdEdJj" opacity="1" fill-opacity="0" stroke="#000000" stroke-width="1" stroke-opacity="0"></use></g></g><g><use xlink:href="#d5aZqlOa8w" opacity="1" fill="#000000" fill-opacity="0"></use><g><use xlink:href="#d5aZqlOa8w" opacity="1" fill-opacity="0" stroke="#000000" stroke-width="1" stroke-opacity="0"></use></g></g><g><use xlink:href="#abHtjxEGY3" opacity="1" fill="#eab599" fill-opacity="1"></use><g><use xlink:href="#abHtjxEGY3" opacity="1" fill-opacity="0" stroke="#000000" stroke-width="1" stroke-opacity="0"></use></g></g><g><use xlink:href="#e2QIUxzrpS" opacity="1" fill="#000000" fill-opacity="0"></use><g><use xlink:href="#e2QIUxzrpS" opacity="1" fill-opacity="0" stroke="#000000" stroke-width="1" stroke-opacity="0"></use></g></g><g><use xlink:href="#e1wem6Rau" opacity="1" fill="#eab599" fill-opacity="1"></use><g><use xlink:href="#e1wem6Rau" opacity="1" fill-opacity="0" stroke="#000000" stroke-width="1" stroke-opacity="0"></use></g></g><g><use xlink:href="#c20A0dYiET" opacity="1" fill="#000000" fill-opacity="0"></use><g><use xlink:href="#c20A0dYiET" opacity="1" fill-opacity="0" stroke="#000000" stroke-width="1" stroke-opacity="0"></use></g></g><g><use xlink:href="#fEI3Geemb" opacity="1" fill="#2a2f4f" fill-opacity="1"></use><g><use xlink:href="#fEI3Geemb" opacity="1" fill-opacity="0" stroke="#000000" stroke-width="1" stroke-opacity="0"></use></g></g><g><use xlink:href="#agq2fYllu" opacity="1" fill="#000000" fill-opacity="0"></use><g><use xlink:href="#agq2fYllu" opacity="1" fill-opacity="0" stroke="#000000" stroke-width="1" stroke-opacity="0"></use></g></g><g><use xlink:href="#b16FyaH98u" opacity="1" fill="#3d4159" fill-opacity="1"></use><g><use xlink:href="#b16FyaH98u" opacity="1" fill-opacity="0" stroke="#000000" stroke-width="1" stroke-opacity="0"></use></g></g><g><use xlink:href="#amNoRYQAg" opacity="1" fill="#000000" fill-opacity="0"></use><g><use xlink:href="#amNoRYQAg" opacity="1" fill-opacity="0" stroke="#000000" stroke-width="1" stroke-opacity="0"></use></g></g></g></g></svg>