<?xml version="1.0" encoding="UTF-8" standalone="no"?>
<!DOCTYPE svg PUBLIC "-//W3C//DTD SVG 1.1//EN" "http://www.w3.org/Graphics/SVG/1.1/DTD/svg11.dtd">
<svg version="1.1" xmlns="http://www.w3.org/2000/svg" xmlns:xlink="http://www.w3.org/1999/xlink" preserveAspectRatio="xMidYMid meet" viewBox="0 0 320 320" width="320" height="320"><defs><path d="M181.64 148.22C189.65 140.74 194.79 129.23 194.79 116.32C194.79 115.24 194.79 106.61 194.79 105.53C197.43 103.82 199.17 100.52 199.17 96.82C199.17 96.72 199.17 95.88 199.17 95.78C199.17 73.29 183.57 55 164.38 55C163.51 55 156.5 55 155.62 55C136.44 55 120.84 73.29 120.84 95.78C120.84 96.73 120.84 104.33 120.84 105.28C120.84 108.53 122.03 111.48 124.11 113.36C124.46 113.68 124.83 113.96 125.22 114.2C125.22 114.42 125.22 116.11 125.22 116.32C125.22 129.23 130.36 140.74 138.37 148.22C138.37 148.99 138.37 155.12 138.37 155.89C138.37 158.05 137.28 160.01 135.59 160.89C133.22 162.13 114.14 172.06 111.76 173.3C103.96 177.37 98.92 186.47 98.92 196.48C98.92 202.85 98.92 253.82 98.92 260.19C98.92 262.85 100.75 265 103.01 265C105.28 265 107.12 262.85 107.12 260.19C107.12 253.82 107.12 202.85 107.12 196.48C107.12 195.92 107.15 195.37 107.2 194.82C108.3 196.11 117.08 206.41 118.18 207.7C119.89 209.7 120.84 212.36 120.84 215.2C120.84 219.7 120.84 255.69 120.84 260.19C120.84 262.85 122.66 265 124.93 265C127.2 265 129.03 262.85 129.03 260.19C129.03 255.69 129.03 219.7 129.03 215.2C129.03 209.8 127.24 204.72 123.99 200.9C122.67 199.36 112.2 187.08 110.89 185.55C112.07 184.12 113.49 182.93 115.1 182.09C116.65 181.27 124.47 177.21 138.53 169.88C140.26 171.92 154.16 188.21 155.91 190.25C155.91 232.21 155.91 255.53 155.91 260.19C155.91 262.85 157.74 265 160 265C162.27 265 164.1 262.85 164.1 260.19C164.1 255.53 164.1 232.21 164.1 190.25C165.85 188.22 179.74 171.92 181.48 169.88C195.54 177.21 203.36 181.27 204.91 182.09C206.52 182.93 207.94 184.12 209.12 185.55C207.81 187.08 197.34 199.36 196.02 200.9C192.77 204.72 190.98 209.8 190.98 215.2C190.98 219.7 190.98 255.69 190.98 260.19C190.98 262.85 192.81 265 195.08 265C197.34 265 199.17 262.85 199.17 260.19C199.17 255.69 199.17 219.7 199.17 215.2C199.17 212.36 200.12 209.7 201.83 207.7C202.93 206.41 211.71 196.11 212.81 194.82C212.86 195.37 212.89 195.92 212.89 196.48C212.89 202.85 212.89 253.82 212.89 260.19C212.89 262.85 214.73 265 217 265C219.26 265 221.09 262.85 221.09 260.19C221.09 253.82 221.09 202.85 221.09 196.48C221.09 186.47 216.05 177.37 208.25 173.3C203.48 170.82 186.79 162.13 184.41 160.89C182.72 160.01 181.64 158.05 181.64 155.89C181.64 155.12 181.64 148.99 181.64 148.22ZM146.57 153.93C150.71 155.97 155.24 157.1 160 157.1C164.76 157.1 169.3 155.97 173.44 153.93C173.44 154.13 173.44 155.7 173.44 155.89C173.44 158.66 174.09 161.3 175.25 163.59C174.24 164.78 169.15 170.74 160 181.46C150.85 170.74 145.77 164.78 144.75 163.59C145.91 161.3 146.57 158.66 146.57 155.89C146.57 155.7 146.57 154.13 146.57 153.93ZM140.86 108.5C142.54 106.7 142.63 103.65 141.1 101.71C139.56 99.75 136.97 99.63 135.3 101.43C133.25 103.65 131.2 105.08 129.21 105.69C129.17 105.71 129.13 105.71 129.1 105.72C129.08 105.65 129.03 105.51 129.03 105.28C129.03 104.33 129.03 96.73 129.03 95.78C129.03 78.6 140.96 64.62 155.62 64.62C156.5 64.62 163.51 64.62 164.38 64.62C179.05 64.62 190.98 78.6 190.98 95.78C190.98 95.88 190.98 96.72 190.98 96.82C190.98 96.98 190.9 97.11 190.79 97.14C166.23 102.83 153.91 92.11 149.75 87.24C148.15 85.36 145.55 85.36 143.95 87.24C142.34 89.12 142.34 92.16 143.95 94.03C156.68 108.97 175.28 109.23 186.59 107.64C186.59 108.51 186.59 115.45 186.59 116.32C186.59 133.5 174.67 147.48 160 147.48C145.34 147.49 133.42 133.51 133.42 116.32C133.42 116.11 133.42 114.38 133.42 114.17C135.97 112.98 138.48 111.08 140.86 108.5Z" id="bgc43Dt96"></path><path d="M181.64 148.22C189.65 140.74 194.79 129.23 194.79 116.32C194.79 115.24 194.79 106.61 194.79 105.53C197.43 103.82 199.17 100.52 199.17 96.82C199.17 96.72 199.17 95.88 199.17 95.78C199.17 73.29 183.57 55 164.38 55C163.51 55 156.5 55 155.62 55C136.44 55 120.84 73.29 120.84 95.78C120.84 96.73 120.84 104.33 120.84 105.28C120.84 108.53 122.03 111.48 124.11 113.36C124.46 113.68 124.83 113.96 125.22 114.2C125.22 114.42 125.22 116.11 125.22 116.32C125.22 129.23 130.36 140.74 138.37 148.22C138.37 148.99 138.37 155.12 138.37 155.89C138.37 158.05 137.28 160.01 135.59 160.89C133.22 162.13 114.14 172.06 111.76 173.3C103.96 177.37 98.92 186.47 98.92 196.48C98.92 202.85 98.92 253.82 98.92 260.19C98.92 262.85 100.75 265 103.01 265C105.28 265 107.12 262.85 107.12 260.19C107.12 253.82 107.12 202.85 107.12 196.48C107.12 195.92 107.15 195.37 107.2 194.82C108.3 196.11 117.08 206.41 118.18 207.7C119.89 209.7 120.84 212.36 120.84 215.2C120.84 219.7 120.84 255.69 120.84 260.19C120.84 262.85 122.66 265 124.93 265C127.2 265 129.03 262.85 129.03 260.19C129.03 255.69 129.03 219.7 129.03 215.2C129.03 209.8 127.24 204.72 123.99 200.9C122.67 199.36 112.2 187.08 110.89 185.55C112.07 184.12 113.49 182.93 115.1 182.09C116.65 181.27 124.47 177.21 138.53 169.88C140.26 171.92 154.16 188.21 155.91 190.25C155.91 232.21 155.91 255.53 155.91 260.19C155.91 262.85 157.74 265 160 265C162.27 265 164.1 262.85 164.1 260.19C164.1 255.53 164.1 232.21 164.1 190.25C165.85 188.22 179.74 171.92 181.48 169.88C195.54 177.21 203.36 181.27 204.91 182.09C206.52 182.93 207.94 184.12 209.12 185.55C207.81 187.08 197.34 199.36 196.02 200.9C192.77 204.72 190.98 209.8 190.98 215.2C190.98 219.7 190.98 255.69 190.98 260.19C190.98 262.85 192.81 265 195.08 265C197.34 265 199.17 262.85 199.17 260.19C199.17 255.69 199.17 219.7 199.17 215.2C199.17 212.36 200.12 209.7 201.83 207.7C202.93 206.41 211.71 196.11 212.81 194.82C212.86 195.37 212.89 195.92 212.89 196.48C212.89 202.85 212.89 253.82 212.89 260.19C212.89 262.85 214.73 265 217 265C219.26 265 221.09 262.85 221.09 260.19C221.09 253.82 221.09 202.85 221.09 196.48C221.09 186.47 216.05 177.37 208.25 173.3C203.48 170.82 186.79 162.13 184.41 160.89C182.72 160.01 181.64 158.05 181.64 155.89C181.64 155.12 181.64 148.99 181.64 148.22ZM146.57 153.93C150.71 155.97 155.24 157.1 160 157.1C164.76 157.1 169.3 155.97 173.44 153.93C173.44 154.13 173.44 155.7 173.44 155.89C173.44 158.66 174.09 161.3 175.25 163.59C174.24 164.78 169.15 170.74 160 181.46C150.85 170.74 145.77 164.78 144.75 163.59C145.91 161.3 146.57 158.66 146.57 155.89C146.57 155.7 146.57 154.13 146.57 153.93ZM140.86 108.5C142.54 106.7 142.63 103.65 141.1 101.71C139.56 99.75 136.97 99.63 135.3 101.43C133.25 103.65 131.2 105.08 129.21 105.69C129.17 105.71 129.13 105.71 129.1 105.72C129.08 105.65 129.03 105.51 129.03 105.28C129.03 104.33 129.03 96.73 129.03 95.78C129.03 78.6 140.96 64.62 155.62 64.62C156.5 64.62 163.51 64.62 164.38 64.62C179.05 64.62 190.98 78.6 190.98 95.78C190.98 95.88 190.98 96.72 190.98 96.82C190.98 96.98 190.9 97.11 190.79 97.14C166.23 102.83 153.91 92.11 149.75 87.24C148.15 85.36 145.55 85.36 143.95 87.24C142.34 89.12 142.34 92.16 143.95 94.03C156.68 108.97 175.28 109.23 186.59 107.64C186.59 108.51 186.59 115.45 186.59 116.32C186.59 133.5 174.67 147.48 160 147.48C145.34 147.49 133.42 133.51 133.42 116.32C133.42 116.11 133.42 114.38 133.42 114.17C135.97 112.98 138.48 111.08 140.86 108.5Z" id="aHAXR6GwO"></path><path d="M181.64 148.22C189.65 140.74 194.79 129.23 194.79 116.32C194.79 115.24 194.79 106.61 194.79 105.53C197.43 103.82 199.17 100.52 199.17 96.82C199.17 96.72 199.17 95.88 199.17 95.78C199.17 73.29 183.57 55 164.38 55C163.51 55 156.5 55 155.62 55C136.44 55 120.84 73.29 120.84 95.78C120.84 96.73 120.84 104.33 120.84 105.28C120.84 108.53 122.03 111.48 124.11 113.36C124.46 113.68 124.83 113.96 125.22 114.2C125.22 114.42 125.22 116.11 125.22 116.32C125.22 129.23 130.36 140.74 138.37 148.22C138.37 148.99 138.37 155.12 138.37 155.89C138.37 158.05 137.28 160.01 135.59 160.89C133.22 162.13 114.14 172.06 111.76 173.3C103.96 177.37 98.92 186.47 98.92 196.48C98.92 202.85 98.92 253.82 98.92 260.19C98.92 262.85 100.75 265 103.01 265C105.28 265 107.12 262.85 107.12 260.19C107.12 253.82 107.12 202.85 107.12 196.48C107.12 195.92 107.15 195.37 107.2 194.82C108.3 196.11 117.08 206.41 118.18 207.7C119.89 209.7 120.84 212.36 120.84 215.2C120.84 219.7 120.84 255.69 120.84 260.19C120.84 262.85 122.66 265 124.93 265C127.2 265 129.03 262.85 129.03 260.19C129.03 255.69 129.03 219.7 129.03 215.2C129.03 209.8 127.24 204.72 123.99 200.9C122.67 199.36 112.2 187.08 110.89 185.55C112.07 184.12 113.49 182.93 115.1 182.09C116.65 181.27 124.47 177.21 138.53 169.88C140.26 171.92 154.16 188.21 155.91 190.25C155.91 232.21 155.91 255.53 155.91 260.19C155.91 262.85 157.74 265 160 265C162.27 265 164.1 262.85 164.1 260.19C164.1 255.53 164.1 232.21 164.1 190.25C165.85 188.22 179.74 171.92 181.48 169.88C195.54 177.21 203.36 181.27 204.91 182.09C206.52 182.93 207.94 184.12 209.12 185.55C207.81 187.08 197.34 199.36 196.02 200.9C192.77 204.72 190.98 209.8 190.98 215.2C190.98 219.7 190.98 255.69 190.98 260.19C190.98 262.85 192.81 265 195.08 265C197.34 265 199.17 262.85 199.17 260.19C199.17 255.69 199.17 219.7 199.17 215.2C199.17 212.36 200.12 209.7 201.83 207.7C202.93 206.41 211.71 196.11 212.81 194.82C212.86 195.37 212.89 195.92 212.89 196.48C212.89 202.85 212.89 253.82 212.89 260.19C212.89 262.85 214.73 265 217 265C219.26 265 221.09 262.85 221.09 260.19C221.09 253.82 221.09 202.85 221.09 196.48C221.09 186.47 216.05 177.37 208.25 173.3C203.48 170.82 186.79 162.13 184.41 160.89C182.72 160.01 181.64 158.05 181.64 155.89C181.64 155.12 181.64 148.99 181.64 148.22ZM146.57 153.93C150.71 155.97 155.24 157.1 160 157.1C164.76 157.1 169.3 155.97 173.44 153.93C173.44 154.13 173.44 155.7 173.44 155.89C173.44 158.66 174.09 161.3 175.25 163.59C174.24 164.78 169.15 170.74 160 181.46C150.85 170.74 145.77 164.78 144.75 163.59C145.91 161.3 146.57 158.66 146.57 155.89C146.57 155.7 146.57 154.13 146.57 153.93ZM140.86 108.5C142.54 106.7 142.63 103.65 141.1 101.71C139.56 99.75 136.97 99.63 135.3 101.43C133.25 103.65 131.2 105.08 129.21 105.69C129.17 105.71 129.13 105.71 129.1 105.72C129.08 105.65 129.03 105.51 129.03 105.28C129.03 104.33 129.03 96.73 129.03 95.78C129.03 78.6 140.96 64.62 155.62 64.62C156.5 64.62 163.51 64.62 164.38 64.62C179.05 64.62 190.98 78.6 190.98 95.78C190.98 95.88 190.98 96.72 190.98 96.82C190.98 96.98 190.9 97.11 190.79 97.14C166.23 102.83 153.91 92.11 149.75 87.24C148.15 85.36 145.55 85.36 143.95 87.24C142.34 89.12 142.34 92.16 143.95 94.03C156.68 108.97 175.28 109.23 186.59 107.64C186.59 108.51 186.59 115.45 186.59 116.32C186.59 133.5 174.67 147.48 160 147.48C145.34 147.49 133.42 133.51 133.42 116.32C133.42 116.11 133.42 114.38 133.42 114.17C135.97 112.98 138.48 111.08 140.86 108.5Z" id="a4NEswGrqQ"></path><path d="M181.64 148.22C189.65 140.74 194.79 129.23 194.79 116.32C194.79 115.24 194.79 106.61 194.79 105.53C197.43 103.82 199.17 100.52 199.17 96.82C199.17 96.72 199.17 95.88 199.17 95.78C199.17 73.29 183.57 55 164.38 55C163.51 55 156.5 55 155.62 55C136.44 55 120.84 73.29 120.84 95.78C120.84 96.73 120.84 104.33 120.84 105.28C120.84 108.53 122.03 111.48 124.11 113.36C124.46 113.68 124.83 113.96 125.22 114.2C125.22 114.42 125.22 116.11 125.22 116.32C125.22 129.23 130.36 140.74 138.37 148.22C138.37 148.99 138.37 155.12 138.37 155.89C138.37 158.05 137.28 160.01 135.59 160.89C133.22 162.13 114.14 172.06 111.76 173.3C103.96 177.37 98.92 186.47 98.92 196.48C98.92 202.85 98.92 253.82 98.92 260.19C98.92 262.85 100.75 265 103.01 265C105.28 265 107.12 262.85 107.12 260.19C107.12 253.82 107.12 202.85 107.12 196.48C107.12 195.92 107.15 195.37 107.2 194.82C108.3 196.11 117.08 206.41 118.18 207.7C119.89 209.7 120.84 212.36 120.84 215.2C120.84 219.7 120.84 255.69 120.84 260.19C120.84 262.85 122.66 265 124.93 265C127.2 265 129.03 262.85 129.03 260.19C129.03 255.69 129.03 219.7 129.03 215.2C129.03 209.8 127.24 204.72 123.99 200.9C122.67 199.36 112.2 187.08 110.89 185.55C112.07 184.12 113.49 182.93 115.1 182.09C116.65 181.27 124.47 177.21 138.53 169.88C140.26 171.92 154.16 188.21 155.91 190.25C155.91 232.21 155.91 255.53 155.91 260.19C155.91 262.85 157.74 265 160 265C162.27 265 164.1 262.85 164.1 260.19C164.1 255.53 164.1 232.21 164.1 190.25C165.85 188.22 179.74 171.92 181.48 169.88C195.54 177.21 203.36 181.27 204.91 182.09C206.52 182.93 207.94 184.12 209.12 185.55C207.81 187.08 197.34 199.36 196.02 200.9C192.77 204.72 190.98 209.8 190.98 215.2C190.98 219.7 190.98 255.69 190.98 260.19C190.98 262.85 192.81 265 195.08 265C197.34 265 199.17 262.85 199.17 260.19C199.17 255.69 199.17 219.7 199.17 215.2C199.17 212.36 200.12 209.7 201.83 207.7C202.93 206.41 211.71 196.11 212.81 194.82C212.86 195.37 212.89 195.92 212.89 196.48C212.89 202.85 212.89 253.82 212.89 260.19C212.89 262.85 214.73 265 217 265C219.26 265 221.09 262.85 221.09 260.19C221.09 253.82 221.09 202.85 221.09 196.48C221.09 186.47 216.05 177.37 208.25 173.3C203.48 170.82 186.79 162.13 184.41 160.89C182.72 160.01 181.64 158.05 181.64 155.89C181.64 155.12 181.64 148.99 181.64 148.22ZM146.57 153.93C150.71 155.97 155.24 157.1 160 157.1C164.76 157.1 169.3 155.97 173.44 153.93C173.44 154.13 173.44 155.7 173.44 155.89C173.44 158.66 174.09 161.3 175.25 163.59C174.24 164.78 169.15 170.74 160 181.46C150.85 170.74 145.77 164.78 144.75 163.59C145.91 161.3 146.57 158.66 146.57 155.89C146.57 155.7 146.57 154.13 146.57 153.93ZM140.86 108.5C142.54 106.7 142.63 103.65 141.1 101.71C139.56 99.75 136.97 99.63 135.3 101.43C133.25 103.65 131.2 105.08 129.21 105.69C129.17 105.71 129.13 105.71 129.1 105.72C129.08 105.65 129.03 105.51 129.03 105.28C129.03 104.33 129.03 96.73 129.03 95.78C129.03 78.6 140.96 64.62 155.62 64.62C156.5 64.62 163.51 64.62 164.38 64.62C179.05 64.62 190.98 78.6 190.98 95.78C190.98 95.88 190.98 96.72 190.98 96.82C190.98 96.98 190.9 97.11 190.79 97.14C166.23 102.83 153.91 92.11 149.75 87.24C148.15 85.36 145.55 85.36 143.95 87.24C142.34 89.12 142.34 92.16 143.95 94.03C156.68 108.97 175.28 109.23 186.59 107.64C186.59 108.51 186.59 115.45 186.59 116.32C186.59 133.5 174.67 147.48 160 147.48C145.34 147.49 133.42 133.51 133.42 116.32C133.42 116.11 133.42 114.38 133.42 114.17C135.97 112.98 138.48 111.08 140.86 108.5Z" id="b23yAAdnrW"></path><path d="M80.81 100.91C80.81 89.76 73.07 80.69 63.56 80.69C54.05 80.69 46.3 89.76 46.3 100.91C46.3 102.99 46.57 105 47.09 106.95C38.72 113.3 33.15 124.34 33.15 136.88C33.15 137.91 33.15 146.13 33.15 147.15C33.15 159.3 38.37 170.04 46.3 176.47C46.3 177.53 46.3 185.99 46.3 187.04C46.3 189.13 45.31 191.01 43.73 191.94C42.3 192.77 30.96 199.42 29.54 200.25C23.66 203.7 20 210.63 20 218.34C20 222.53 20 256.01 20 260.19C20 262.85 21.84 265 24.1 265C26.37 265 28.21 262.85 28.21 260.19C28.21 257.54 28.21 244.28 28.21 220.42C32.22 225.12 34.44 227.73 34.88 228.25C36.6 230.25 37.53 232.92 37.53 235.75C37.53 238.19 37.53 257.75 37.53 260.19C37.53 262.85 39.37 265 41.64 265C43.91 265 45.74 262.85 45.74 260.19C45.74 257.75 45.74 238.19 45.74 235.75C45.74 230.35 43.95 225.27 40.69 221.45C39.76 220.36 32.32 211.64 31.39 210.55C31.34 210.5 31.3 210.45 31.25 210.41C31.83 209.8 32.49 209.28 33.21 208.85C34.63 208.02 45.98 201.37 47.4 200.54C48.12 200.11 48.8 199.61 49.43 199.05C50.1 199.83 53.44 203.75 59.45 210.81C59.45 240.44 59.45 256.9 59.45 260.19C59.45 262.85 61.29 265 63.56 265C65.82 265 67.66 262.85 67.66 260.19C67.66 256.9 67.66 240.44 67.66 210.81C73.67 203.75 77.02 199.83 77.69 199.05C78.32 199.61 78.99 200.11 79.72 200.54C80.11 200.77 83.25 202.6 83.63 202.83C84.23 203.18 84.85 203.34 85.47 203.34C86.97 203.34 88.42 202.36 89.13 200.68C90.15 198.31 89.33 195.42 87.31 194.23C86.91 194 83.78 192.17 83.39 191.94C81.8 191.01 80.81 189.13 80.81 187.04C80.81 185.99 80.81 177.53 80.81 176.47C88.75 170.04 93.96 159.3 93.96 147.16C93.96 145.1 93.96 137.91 93.96 136.88C93.96 124.34 88.4 113.3 80.02 106.94C80.54 105 80.81 102.96 80.81 100.91ZM63.56 101.24C60.47 101.24 57.48 101.79 54.67 102.8C54.57 102.18 54.51 101.56 54.51 100.91C54.51 95.06 58.57 90.31 63.56 90.31C68.54 90.31 72.6 95.06 72.6 100.91C72.6 101.56 72.56 102.19 72.47 102.81C69.65 101.79 66.66 101.24 63.56 101.24ZM58.07 128.86C57.36 127.74 56.27 127.04 55.08 126.95C53.9 126.85 52.73 127.35 51.89 128.34C47.97 132.93 44.14 135.14 41.37 136.21C41.67 122.17 51.51 110.86 63.56 110.86C75.8 110.86 85.76 122.53 85.76 136.88C85.76 137.05 85.76 138.45 85.76 138.62C68.69 144.75 58.51 129.52 58.07 128.86ZM54.51 181.18C57.37 182.22 60.41 182.79 63.56 182.79C66.71 182.79 69.75 182.22 72.6 181.18C72.6 181.76 72.6 186.46 72.6 187.04C72.6 188.37 72.76 189.66 73.03 190.9C72.4 191.65 69.25 195.35 63.56 202.01C57.87 195.35 54.71 191.65 54.08 190.9C54.36 189.66 54.51 188.37 54.51 187.04C54.51 186.46 54.51 181.76 54.51 181.18ZM54.54 138.46C56.33 140.44 58.89 142.87 62.14 144.95C66 147.41 71.32 149.7 77.82 149.7C80.29 149.7 82.93 149.36 85.72 148.58C85.09 162.27 75.39 173.18 63.56 173.18C51.32 173.18 41.36 161.5 41.36 147.15C41.36 147.05 41.36 146.26 41.36 146.16C44.63 145.28 49.48 143.23 54.54 138.46Z" id="bjxIUXXFF"></path><path d="M80.81 100.91C80.81 89.76 73.07 80.69 63.56 80.69C54.05 80.69 46.3 89.76 46.3 100.91C46.3 102.99 46.57 105 47.09 106.95C38.72 113.3 33.15 124.34 33.15 136.88C33.15 137.91 33.15 146.13 33.15 147.15C33.15 159.3 38.37 170.04 46.3 176.47C46.3 177.53 46.3 185.99 46.3 187.04C46.3 189.13 45.31 191.01 43.73 191.94C42.3 192.77 30.96 199.42 29.54 200.25C23.66 203.7 20 210.63 20 218.34C20 222.53 20 256.01 20 260.19C20 262.85 21.84 265 24.1 265C26.37 265 28.21 262.85 28.21 260.19C28.21 257.54 28.21 244.28 28.21 220.42C32.22 225.12 34.44 227.73 34.88 228.25C36.6 230.25 37.53 232.92 37.53 235.75C37.53 238.19 37.53 257.75 37.53 260.19C37.53 262.85 39.37 265 41.64 265C43.91 265 45.74 262.85 45.74 260.19C45.74 257.75 45.74 238.19 45.74 235.75C45.74 230.35 43.95 225.27 40.69 221.45C39.76 220.36 32.32 211.64 31.39 210.55C31.34 210.5 31.3 210.45 31.25 210.41C31.83 209.8 32.49 209.28 33.21 208.85C34.63 208.02 45.98 201.37 47.4 200.54C48.12 200.11 48.8 199.61 49.43 199.05C50.1 199.83 53.44 203.75 59.45 210.81C59.45 240.44 59.45 256.9 59.45 260.19C59.45 262.85 61.29 265 63.56 265C65.82 265 67.66 262.85 67.66 260.19C67.66 256.9 67.66 240.44 67.66 210.81C73.67 203.75 77.02 199.83 77.69 199.05C78.32 199.61 78.99 200.11 79.72 200.54C80.11 200.77 83.25 202.6 83.63 202.83C84.23 203.18 84.85 203.34 85.47 203.34C86.97 203.34 88.42 202.36 89.13 200.68C90.15 198.31 89.33 195.42 87.31 194.23C86.91 194 83.78 192.17 83.39 191.94C81.8 191.01 80.81 189.13 80.81 187.04C80.81 185.99 80.81 177.53 80.81 176.47C88.75 170.04 93.96 159.3 93.96 147.16C93.96 145.1 93.96 137.91 93.96 136.88C93.96 124.34 88.4 113.3 80.02 106.94C80.54 105 80.81 102.96 80.81 100.91ZM63.56 101.24C60.47 101.24 57.48 101.79 54.67 102.8C54.57 102.18 54.51 101.56 54.51 100.91C54.51 95.06 58.57 90.31 63.56 90.31C68.54 90.31 72.6 95.06 72.6 100.91C72.6 101.56 72.56 102.19 72.47 102.81C69.65 101.79 66.66 101.24 63.56 101.24ZM58.07 128.86C57.36 127.74 56.27 127.04 55.08 126.95C53.9 126.85 52.73 127.35 51.89 128.34C47.97 132.93 44.14 135.14 41.37 136.21C41.67 122.17 51.51 110.86 63.56 110.86C75.8 110.86 85.76 122.53 85.76 136.88C85.76 137.05 85.76 138.45 85.76 138.62C68.69 144.75 58.51 129.52 58.07 128.86ZM54.51 181.18C57.37 182.22 60.41 182.79 63.56 182.79C66.71 182.79 69.75 182.22 72.6 181.18C72.6 181.76 72.6 186.46 72.6 187.04C72.6 188.37 72.76 189.66 73.03 190.9C72.4 191.65 69.25 195.35 63.56 202.01C57.87 195.35 54.71 191.65 54.08 190.9C54.36 189.66 54.51 188.37 54.51 187.04C54.51 186.46 54.51 181.76 54.51 181.18ZM54.54 138.46C56.33 140.44 58.89 142.87 62.14 144.95C66 147.41 71.32 149.7 77.82 149.7C80.29 149.7 82.93 149.36 85.72 148.58C85.09 162.27 75.39 173.18 63.56 173.18C51.32 173.18 41.36 161.5 41.36 147.15C41.36 147.05 41.36 146.26 41.36 146.16C44.63 145.28 49.48 143.23 54.54 138.46Z" id="c15wfDr00c"></path><path d="M80.81 100.91C80.81 89.76 73.07 80.69 63.56 80.69C54.05 80.69 46.3 89.76 46.3 100.91C46.3 102.99 46.57 105 47.09 106.95C38.72 113.3 33.15 124.34 33.15 136.88C33.15 137.91 33.15 146.13 33.15 147.15C33.15 159.3 38.37 170.04 46.3 176.47C46.3 177.53 46.3 185.99 46.3 187.04C46.3 189.13 45.31 191.01 43.73 191.94C42.3 192.77 30.96 199.42 29.54 200.25C23.66 203.7 20 210.63 20 218.34C20 222.53 20 256.01 20 260.19C20 262.85 21.84 265 24.1 265C26.37 265 28.21 262.85 28.21 260.19C28.21 257.54 28.21 244.28 28.21 220.42C32.22 225.12 34.44 227.73 34.88 228.25C36.6 230.25 37.53 232.92 37.53 235.75C37.53 238.19 37.53 257.75 37.53 260.19C37.53 262.85 39.37 265 41.64 265C43.91 265 45.74 262.85 45.74 260.19C45.74 257.75 45.74 238.19 45.74 235.75C45.74 230.35 43.95 225.27 40.69 221.45C39.76 220.36 32.32 211.64 31.39 210.55C31.34 210.5 31.3 210.45 31.25 210.41C31.83 209.8 32.49 209.28 33.21 208.85C34.63 208.02 45.98 201.37 47.4 200.54C48.12 200.11 48.8 199.61 49.43 199.05C50.1 199.83 53.44 203.75 59.45 210.81C59.45 240.44 59.45 256.9 59.45 260.19C59.45 262.85 61.29 265 63.56 265C65.82 265 67.66 262.85 67.66 260.19C67.66 256.9 67.66 240.44 67.66 210.81C73.67 203.75 77.02 199.83 77.69 199.05C78.32 199.61 78.99 200.11 79.72 200.54C80.11 200.77 83.25 202.6 83.63 202.83C84.23 203.18 84.85 203.34 85.47 203.34C86.97 203.34 88.42 202.36 89.13 200.68C90.15 198.31 89.33 195.42 87.31 194.23C86.91 194 83.78 192.17 83.39 191.94C81.8 191.01 80.81 189.13 80.81 187.04C80.81 185.99 80.81 177.53 80.81 176.47C88.75 170.04 93.96 159.3 93.96 147.16C93.96 145.1 93.96 137.91 93.96 136.88C93.96 124.34 88.4 113.3 80.02 106.94C80.54 105 80.81 102.96 80.81 100.91ZM63.56 101.24C60.47 101.24 57.48 101.79 54.67 102.8C54.57 102.18 54.51 101.56 54.51 100.91C54.51 95.06 58.57 90.31 63.56 90.31C68.54 90.31 72.6 95.06 72.6 100.91C72.6 101.56 72.56 102.19 72.47 102.81C69.65 101.79 66.66 101.24 63.56 101.24ZM58.07 128.86C57.36 127.74 56.27 127.04 55.08 126.95C53.9 126.85 52.73 127.35 51.89 128.34C47.97 132.93 44.14 135.14 41.37 136.21C41.67 122.17 51.51 110.86 63.56 110.86C75.8 110.86 85.76 122.53 85.76 136.88C85.76 137.05 85.76 138.45 85.76 138.62C68.69 144.75 58.51 129.52 58.07 128.86ZM54.51 181.18C57.37 182.22 60.41 182.79 63.56 182.79C66.71 182.79 69.75 182.22 72.6 181.18C72.6 181.76 72.6 186.46 72.6 187.04C72.6 188.37 72.76 189.66 73.03 190.9C72.4 191.65 69.25 195.35 63.56 202.01C57.87 195.35 54.71 191.65 54.08 190.9C54.36 189.66 54.51 188.37 54.51 187.04C54.51 186.46 54.51 181.76 54.51 181.18ZM54.54 138.46C56.33 140.44 58.89 142.87 62.14 144.95C66 147.41 71.32 149.7 77.82 149.7C80.29 149.7 82.93 149.36 85.72 148.58C85.09 162.27 75.39 173.18 63.56 173.18C51.32 173.18 41.36 161.5 41.36 147.15C41.36 147.05 41.36 146.26 41.36 146.16C44.63 145.28 49.48 143.23 54.54 138.46Z" id="c1lTbjgQO0"></path><path d="M80.81 100.91C80.81 89.76 73.07 80.69 63.56 80.69C54.05 80.69 46.3 89.76 46.3 100.91C46.3 102.99 46.57 105 47.09 106.95C38.72 113.3 33.15 124.34 33.15 136.88C33.15 137.91 33.15 146.13 33.15 147.15C33.15 159.3 38.37 170.04 46.3 176.47C46.3 177.53 46.3 185.99 46.3 187.04C46.3 189.13 45.31 191.01 43.73 191.94C42.3 192.77 30.96 199.42 29.54 200.25C23.66 203.7 20 210.63 20 218.34C20 222.53 20 256.01 20 260.19C20 262.85 21.84 265 24.1 265C26.37 265 28.21 262.85 28.21 260.19C28.21 257.54 28.21 244.28 28.21 220.42C32.22 225.12 34.44 227.73 34.88 228.25C36.6 230.25 37.53 232.92 37.53 235.75C37.53 238.19 37.53 257.75 37.53 260.19C37.53 262.85 39.37 265 41.64 265C43.91 265 45.74 262.85 45.74 260.19C45.74 257.75 45.74 238.19 45.74 235.75C45.74 230.35 43.95 225.27 40.69 221.45C39.76 220.36 32.32 211.64 31.39 210.55C31.34 210.5 31.3 210.45 31.25 210.41C31.83 209.8 32.49 209.28 33.21 208.85C34.63 208.02 45.98 201.37 47.4 200.54C48.12 200.11 48.8 199.61 49.43 199.05C50.1 199.83 53.44 203.75 59.45 210.81C59.45 240.44 59.45 256.9 59.45 260.19C59.45 262.85 61.29 265 63.56 265C65.82 265 67.66 262.85 67.66 260.19C67.66 256.9 67.66 240.44 67.66 210.81C73.67 203.75 77.02 199.83 77.69 199.05C78.32 199.61 78.99 200.11 79.72 200.54C80.11 200.77 83.25 202.6 83.63 202.83C84.23 203.18 84.85 203.34 85.47 203.34C86.97 203.34 88.42 202.36 89.13 200.68C90.15 198.31 89.33 195.42 87.31 194.23C86.91 194 83.78 192.17 83.39 191.94C81.8 191.01 80.81 189.13 80.81 187.04C80.81 185.99 80.81 177.53 80.81 176.47C88.75 170.04 93.96 159.3 93.96 147.16C93.96 145.1 93.96 137.91 93.96 136.88C93.96 124.34 88.4 113.3 80.02 106.94C80.54 105 80.81 102.96 80.81 100.91ZM63.56 101.24C60.47 101.24 57.48 101.79 54.67 102.8C54.57 102.18 54.51 101.56 54.51 100.91C54.51 95.06 58.57 90.31 63.56 90.31C68.54 90.31 72.6 95.06 72.6 100.91C72.6 101.56 72.56 102.19 72.47 102.81C69.65 101.79 66.66 101.24 63.56 101.24ZM58.07 128.86C57.36 127.74 56.27 127.04 55.08 126.95C53.9 126.85 52.73 127.35 51.89 128.34C47.97 132.93 44.14 135.14 41.37 136.21C41.67 122.17 51.51 110.86 63.56 110.86C75.8 110.86 85.76 122.53 85.76 136.88C85.76 137.05 85.76 138.45 85.76 138.62C68.69 144.75 58.51 129.52 58.07 128.86ZM54.51 181.18C57.37 182.22 60.41 182.79 63.56 182.79C66.71 182.79 69.75 182.22 72.6 181.18C72.6 181.76 72.6 186.46 72.6 187.04C72.6 188.37 72.76 189.66 73.03 190.9C72.4 191.65 69.25 195.35 63.56 202.01C57.87 195.35 54.71 191.65 54.08 190.9C54.36 189.66 54.51 188.37 54.51 187.04C54.51 186.46 54.51 181.76 54.51 181.18ZM54.54 138.46C56.33 140.44 58.89 142.87 62.14 144.95C66 147.41 71.32 149.7 77.82 149.7C80.29 149.7 82.93 149.36 85.72 148.58C85.09 162.27 75.39 173.18 63.56 173.18C51.32 173.18 41.36 161.5 41.36 147.15C41.36 147.05 41.36 146.26 41.36 146.16C44.63 145.28 49.48 143.23 54.54 138.46Z" id="b1YVntfqrL"></path><path d="M264.93 164.82C270.3 159.23 273.7 151.08 273.7 142.02C273.7 141.47 273.7 137.09 273.7 136.55C273.79 136.55 273.88 136.55 273.99 136.55C276.24 136.55 278.08 134.39 278.08 131.74C278.08 130.71 278.08 122.49 278.08 121.46C278.08 104.65 266.41 90.97 252.06 90.97C251.18 90.97 244.18 90.97 243.29 90.97C228.95 90.97 217.28 104.65 217.28 121.46C217.28 122.49 217.28 130.71 217.28 131.74C217.28 134.39 219.12 136.55 221.37 136.55C221.41 136.55 221.51 136.55 221.66 136.54C221.66 137.09 221.66 141.47 221.66 142.02C221.66 151.08 225.06 159.23 230.43 164.82C230.43 165.5 230.43 170.95 230.43 171.63C230.43 173.72 229.44 175.59 227.85 176.52C225.82 177.71 225 180.6 226.01 182.97C226.73 184.66 228.18 185.63 229.69 185.63C230.3 185.63 230.93 185.47 231.51 185.12C232.24 184.7 232.92 184.19 233.55 183.64C234.22 184.42 237.56 188.34 243.58 195.39C243.58 234.27 243.58 255.87 243.58 260.19C243.58 262.85 245.42 265 247.68 265C249.94 265 251.78 262.85 251.78 260.19C251.78 255.87 251.78 234.27 251.78 195.39C257.8 188.33 261.13 184.42 261.81 183.63C262.44 184.19 263.12 184.7 263.85 185.12C265.32 185.99 272.73 190.33 286.05 198.14C282.01 202.88 279.77 205.51 279.32 206.03C276.06 209.86 274.26 214.93 274.26 220.33C274.26 224.32 274.26 256.21 274.26 260.19C274.26 262.85 276.1 265 278.36 265C280.63 265 282.46 262.85 282.46 260.19C282.46 256.21 282.46 224.32 282.46 220.33C282.46 217.5 283.41 214.84 285.12 212.83C285.76 212.08 290.87 206.1 291.5 205.35C291.7 206.22 291.8 207.13 291.8 208.06C291.8 213.27 291.8 254.98 291.8 260.19C291.8 262.85 293.64 265 295.9 265C298.16 265 300 262.85 300 260.19C300 254.98 300 213.27 300 208.06C300 200.35 296.35 193.42 290.46 189.98C285.88 187.28 269.8 177.87 267.51 176.52C265.92 175.59 264.93 173.72 264.93 171.63C264.93 170.95 264.93 165.5 264.93 164.82ZM243.29 100.58C244.18 100.58 251.18 100.58 252.06 100.58C261.89 100.58 269.88 109.95 269.88 121.46C269.88 122 269.88 126.27 269.88 126.81C252.05 125.68 241.29 117.54 241.18 117.46C240.49 116.92 239.7 116.66 238.92 116.66C237.86 116.66 236.81 117.14 236.01 118.07C232.08 122.66 228.24 124.88 225.48 125.95C225.48 125.35 225.48 123.85 225.48 121.46C225.48 121.46 225.48 121.46 225.48 121.46C225.48 109.95 233.47 100.58 243.29 100.58ZM238.63 170.61C241.45 171.84 244.5 172.51 247.68 172.51C250.86 172.51 253.91 171.84 256.73 170.61C256.73 170.71 256.73 171.53 256.73 171.63C256.73 172.96 256.87 174.25 257.16 175.49C256.52 176.23 253.36 179.94 247.68 186.6C242 179.94 238.84 176.23 238.2 175.49C238.48 174.25 238.63 172.96 238.63 171.63C238.63 171.53 238.63 170.71 238.63 170.61ZM229.86 134.27C232.73 132.92 236.08 130.78 239.49 127.38C243.79 130.01 252.8 134.55 265.5 136.05C265.5 136.65 265.5 141.42 265.5 142.02C265.5 153.53 257.5 162.9 247.68 162.9C237.86 162.9 229.86 153.53 229.86 142.02C229.86 141.5 229.86 138.92 229.86 134.27C229.86 134.27 229.86 134.27 229.86 134.27Z" id="a3H7y9gIlB"></path><path d="M264.93 164.82C270.3 159.23 273.7 151.08 273.7 142.02C273.7 141.47 273.7 137.09 273.7 136.55C273.79 136.55 273.88 136.55 273.99 136.55C276.24 136.55 278.08 134.39 278.08 131.74C278.08 130.71 278.08 122.49 278.08 121.46C278.08 104.65 266.41 90.97 252.06 90.97C251.18 90.97 244.18 90.97 243.29 90.97C228.95 90.97 217.28 104.65 217.28 121.46C217.28 122.49 217.28 130.71 217.28 131.74C217.28 134.39 219.12 136.55 221.37 136.55C221.41 136.55 221.51 136.55 221.66 136.54C221.66 137.09 221.66 141.47 221.66 142.02C221.66 151.08 225.06 159.23 230.43 164.82C230.43 165.5 230.43 170.95 230.43 171.63C230.43 173.72 229.44 175.59 227.85 176.52C225.82 177.71 225 180.6 226.01 182.97C226.73 184.66 228.18 185.63 229.69 185.63C230.3 185.63 230.93 185.47 231.51 185.12C232.24 184.7 232.92 184.19 233.55 183.64C234.22 184.42 237.56 188.34 243.58 195.39C243.58 234.27 243.58 255.87 243.58 260.19C243.58 262.85 245.42 265 247.68 265C249.94 265 251.78 262.85 251.78 260.19C251.78 255.87 251.78 234.27 251.78 195.39C257.8 188.33 261.13 184.42 261.81 183.63C262.44 184.19 263.12 184.7 263.85 185.12C265.32 185.99 272.73 190.33 286.05 198.14C282.01 202.88 279.77 205.51 279.32 206.03C276.06 209.86 274.26 214.93 274.26 220.33C274.26 224.32 274.26 256.21 274.26 260.19C274.26 262.85 276.1 265 278.36 265C280.63 265 282.46 262.85 282.46 260.19C282.46 256.21 282.46 224.32 282.46 220.33C282.46 217.5 283.41 214.84 285.12 212.83C285.76 212.08 290.87 206.1 291.5 205.35C291.7 206.22 291.8 207.13 291.8 208.06C291.8 213.27 291.8 254.98 291.8 260.19C291.8 262.85 293.64 265 295.9 265C298.16 265 300 262.85 300 260.19C300 254.98 300 213.27 300 208.06C300 200.35 296.35 193.42 290.46 189.98C285.88 187.28 269.8 177.87 267.51 176.52C265.92 175.59 264.93 173.72 264.93 171.63C264.93 170.95 264.93 165.5 264.93 164.82ZM243.29 100.58C244.18 100.58 251.18 100.58 252.06 100.58C261.89 100.58 269.88 109.95 269.88 121.46C269.88 122 269.88 126.27 269.88 126.81C252.05 125.68 241.29 117.54 241.18 117.46C240.49 116.92 239.7 116.66 238.92 116.66C237.86 116.66 236.81 117.14 236.01 118.07C232.08 122.66 228.24 124.88 225.48 125.95C225.48 125.35 225.48 123.85 225.48 121.46C225.48 121.46 225.48 121.46 225.48 121.46C225.48 109.95 233.47 100.58 243.29 100.58ZM238.63 170.61C241.45 171.84 244.5 172.51 247.68 172.51C250.86 172.51 253.91 171.84 256.73 170.61C256.73 170.71 256.73 171.53 256.73 171.63C256.73 172.96 256.87 174.25 257.16 175.49C256.52 176.23 253.36 179.94 247.68 186.6C242 179.94 238.84 176.23 238.2 175.49C238.48 174.25 238.63 172.96 238.63 171.63C238.63 171.53 238.63 170.71 238.63 170.61ZM229.86 134.27C232.73 132.92 236.08 130.78 239.49 127.38C243.79 130.01 252.8 134.55 265.5 136.05C265.5 136.65 265.5 141.42 265.5 142.02C265.5 153.53 257.5 162.9 247.68 162.9C237.86 162.9 229.86 153.53 229.86 142.02C229.86 141.5 229.86 138.92 229.86 134.27C229.86 134.27 229.86 134.27 229.86 134.27Z" id="aDJTvRk1"></path><path d="M264.93 164.82C270.3 159.23 273.7 151.08 273.7 142.02C273.7 141.47 273.7 137.09 273.7 136.55C273.79 136.55 273.88 136.55 273.99 136.55C276.24 136.55 278.08 134.39 278.08 131.74C278.08 130.71 278.08 122.49 278.08 121.46C278.08 104.65 266.41 90.97 252.06 90.97C251.18 90.97 244.18 90.97 243.29 90.97C228.95 90.97 217.28 104.65 217.28 121.46C217.28 122.49 217.28 130.71 217.28 131.74C217.28 134.39 219.12 136.55 221.37 136.55C221.41 136.55 221.51 136.55 221.66 136.54C221.66 137.09 221.66 141.47 221.66 142.02C221.66 151.08 225.06 159.23 230.43 164.82C230.43 165.5 230.43 170.95 230.43 171.63C230.43 173.72 229.44 175.59 227.85 176.52C225.82 177.71 225 180.6 226.01 182.97C226.73 184.66 228.18 185.63 229.69 185.63C230.3 185.63 230.93 185.47 231.51 185.12C232.24 184.7 232.92 184.19 233.55 183.64C234.22 184.42 237.56 188.34 243.58 195.39C243.58 234.27 243.58 255.87 243.58 260.19C243.58 262.85 245.42 265 247.68 265C249.94 265 251.78 262.85 251.78 260.19C251.78 255.87 251.78 234.27 251.78 195.39C257.8 188.33 261.13 184.42 261.81 183.63C262.44 184.19 263.12 184.7 263.85 185.12C265.32 185.99 272.73 190.33 286.05 198.14C282.01 202.88 279.77 205.51 279.32 206.03C276.06 209.86 274.26 214.93 274.26 220.33C274.26 224.32 274.26 256.21 274.26 260.19C274.26 262.85 276.1 265 278.36 265C280.63 265 282.46 262.85 282.46 260.19C282.46 256.21 282.46 224.32 282.46 220.33C282.46 217.5 283.41 214.84 285.12 212.83C285.76 212.08 290.87 206.1 291.5 205.35C291.7 206.22 291.8 207.13 291.8 208.06C291.8 213.27 291.8 254.98 291.8 260.19C291.8 262.85 293.64 265 295.9 265C298.16 265 300 262.85 300 260.19C300 254.98 300 213.27 300 208.06C300 200.35 296.35 193.42 290.46 189.98C285.88 187.28 269.8 177.87 267.51 176.52C265.92 175.59 264.93 173.72 264.93 171.63C264.93 170.95 264.93 165.5 264.93 164.82ZM243.29 100.58C244.18 100.58 251.18 100.58 252.06 100.58C261.89 100.58 269.88 109.95 269.88 121.46C269.88 122 269.88 126.27 269.88 126.81C252.05 125.68 241.29 117.54 241.18 117.46C240.49 116.92 239.7 116.66 238.92 116.66C237.86 116.66 236.81 117.14 236.01 118.07C232.08 122.66 228.24 124.88 225.48 125.95C225.48 125.35 225.48 123.85 225.48 121.46C225.48 121.46 225.48 121.46 225.48 121.46C225.48 109.95 233.47 100.58 243.29 100.58ZM238.63 170.61C241.45 171.84 244.5 172.51 247.68 172.51C250.86 172.51 253.91 171.84 256.73 170.61C256.73 170.71 256.73 171.53 256.73 171.63C256.73 172.96 256.87 174.25 257.16 175.49C256.52 176.23 253.36 179.94 247.68 186.6C242 179.94 238.84 176.23 238.2 175.49C238.48 174.25 238.63 172.96 238.63 171.63C238.63 171.53 238.63 170.71 238.63 170.61ZM229.86 134.27C232.73 132.92 236.08 130.78 239.49 127.38C243.79 130.01 252.8 134.55 265.5 136.05C265.5 136.65 265.5 141.42 265.5 142.02C265.5 153.53 257.5 162.9 247.68 162.9C237.86 162.9 229.86 153.53 229.86 142.02C229.86 141.5 229.86 138.92 229.86 134.27C229.86 134.27 229.86 134.27 229.86 134.27Z" id="b1ZEKQJ9eb"></path><path d="M264.93 164.82C270.3 159.23 273.7 151.08 273.7 142.02C273.7 141.47 273.7 137.09 273.7 136.55C273.79 136.55 273.88 136.55 273.99 136.55C276.24 136.55 278.08 134.39 278.08 131.74C278.08 130.71 278.08 122.49 278.08 121.46C278.08 104.65 266.41 90.97 252.06 90.97C251.18 90.97 244.18 90.97 243.29 90.97C228.95 90.97 217.28 104.65 217.28 121.46C217.28 122.49 217.28 130.71 217.28 131.74C217.28 134.39 219.12 136.55 221.37 136.55C221.41 136.55 221.51 136.55 221.66 136.54C221.66 137.09 221.66 141.47 221.66 142.02C221.66 151.08 225.06 159.23 230.43 164.82C230.43 165.5 230.43 170.95 230.43 171.63C230.43 173.72 229.44 175.59 227.85 176.52C225.82 177.71 225 180.6 226.01 182.97C226.73 184.66 228.18 185.63 229.69 185.63C230.3 185.63 230.93 185.47 231.51 185.12C232.24 184.7 232.92 184.19 233.55 183.64C234.22 184.42 237.56 188.34 243.58 195.39C243.58 234.27 243.58 255.87 243.58 260.19C243.58 262.85 245.42 265 247.68 265C249.94 265 251.78 262.85 251.78 260.19C251.78 255.87 251.78 234.27 251.78 195.39C257.8 188.33 261.13 184.42 261.81 183.63C262.44 184.19 263.12 184.7 263.85 185.12C265.32 185.99 272.73 190.33 286.05 198.14C282.01 202.88 279.77 205.51 279.32 206.03C276.06 209.86 274.26 214.93 274.26 220.33C274.26 224.32 274.26 256.21 274.26 260.19C274.26 262.85 276.1 265 278.36 265C280.63 265 282.46 262.85 282.46 260.19C282.46 256.21 282.46 224.32 282.46 220.33C282.46 217.5 283.41 214.84 285.12 212.83C285.76 212.08 290.87 206.1 291.5 205.35C291.7 206.22 291.8 207.13 291.8 208.06C291.8 213.27 291.8 254.98 291.8 260.19C291.8 262.85 293.64 265 295.9 265C298.16 265 300 262.85 300 260.19C300 254.98 300 213.27 300 208.06C300 200.35 296.35 193.42 290.46 189.98C285.88 187.28 269.8 177.87 267.51 176.52C265.92 175.59 264.93 173.72 264.93 171.63C264.93 170.95 264.93 165.5 264.93 164.82ZM243.29 100.58C244.18 100.58 251.18 100.58 252.06 100.58C261.89 100.58 269.88 109.95 269.88 121.46C269.88 122 269.88 126.27 269.88 126.81C252.05 125.68 241.29 117.54 241.18 117.46C240.49 116.92 239.7 116.66 238.92 116.66C237.86 116.66 236.81 117.14 236.01 118.07C232.08 122.66 228.24 124.88 225.48 125.95C225.48 125.35 225.48 123.85 225.48 121.46C225.48 121.46 225.48 121.46 225.48 121.46C225.48 109.95 233.47 100.58 243.29 100.58ZM238.63 170.61C241.45 171.84 244.5 172.51 247.68 172.51C250.86 172.51 253.91 171.84 256.73 170.61C256.73 170.71 256.73 171.53 256.73 171.63C256.73 172.96 256.87 174.25 257.16 175.49C256.52 176.23 253.36 179.94 247.68 186.6C242 179.94 238.84 176.23 238.2 175.49C238.48 174.25 238.63 172.96 238.63 171.63C238.63 171.53 238.63 170.71 238.63 170.61ZM229.86 134.27C232.73 132.92 236.08 130.78 239.49 127.38C243.79 130.01 252.8 134.55 265.5 136.05C265.5 136.65 265.5 141.42 265.5 142.02C265.5 153.53 257.5 162.9 247.68 162.9C237.86 162.9 229.86 153.53 229.86 142.02C229.86 141.5 229.86 138.92 229.86 134.27C229.86 134.27 229.86 134.27 229.86 134.27Z" id="eup9D2ymS"></path></defs><g><g><g><use xlink:href="#bgc43Dt96" opacity="1" fill="#4953b8" fill-opacity="1"></use><g><use xlink:href="#bgc43Dt96" opacity="1" fill-opacity="0" stroke="#000000" stroke-width="1" stroke-opacity="0"></use></g></g><g><use xlink:href="#aHAXR6GwO" opacity="1" fill="#000000" fill-opacity="0"></use><g><use xlink:href="#aHAXR6GwO" opacity="1" fill-opacity="0" stroke="#000000" stroke-width="1" stroke-opacity="0"></use></g></g><g><use xlink:href="#a4NEswGrqQ" opacity="1" fill="#000000" fill-opacity="0"></use><g><use xlink:href="#a4NEswGrqQ" opacity="1" fill-opacity="0" stroke="#000000" stroke-width="1" stroke-opacity="0"></use></g></g><g><use xlink:href="#b23yAAdnrW" opacity="1" fill="#000000" fill-opacity="0"></use><g><use xlink:href="#b23yAAdnrW" opacity="1" fill-opacity="0" stroke="#000000" stroke-width="1" stroke-opacity="0"></use></g></g><g><use xlink:href="#bjxIUXXFF" opacity="1" fill="#4953b8" fill-opacity="1"></use><g><use xlink:href="#bjxIUXXFF" opacity="1" fill-opacity="0" stroke="#000000" stroke-width="1" stroke-opacity="0"></use></g></g><g><use xlink:href="#c15wfDr00c" opacity="1" fill="#000000" fill-opacity="0"></use><g><use xlink:href="#c15wfDr00c" opacity="1" fill-opacity="0" stroke="#000000" stroke-width="1" stroke-opacity="0"></use></g></g><g><use xlink:href="#c1lTbjgQO0" opacity="1" fill="#000000" fill-opacity="0"></use><g><use xlink:href="#c1lTbjgQO0" opacity="1" fill-opacity="0" stroke="#000000" stroke-width="1" stroke-opacity="0"></use></g></g><g><use xlink:href="#b1YVntfqrL" opacity="1" fill="#000000" fill-opacity="0"></use><g><use xlink:href="#b1YVntfqrL" opacity="1" fill-opacity="0" stroke="#000000" stroke-width="1" stroke-opacity="0"></use></g></g><g><use xlink:href="#a3H7y9gIlB" opacity="1" fill="#4953b8" fill-opacity="1"></use><g><use xlink:href="#a3H7y9gIlB" opacity="1" fill-opacity="0" stroke="#000000" stroke-width="1" stroke-opacity="0"></use></g></g><g><use xlink:href="#aDJTvRk1" opacity="1" fill="#000000" fill-opacity="0"></use><g><use xlink:href="#aDJTvRk1" opacity="1" fill-opacity="0" stroke="#000000" stroke-width="1" stroke-opacity="0"></use></g></g><g><use xlink:href="#b1ZEKQJ9eb" opacity="1" fill="#000000" fill-opacity="0"></use><g><use xlink:href="#b1ZEKQJ9eb" opacity="1" fill-opacity="0" stroke="#000000" stroke-width="1" stroke-opacity="0"></use></g></g><g><use xlink:href="#eup9D2ymS" opacity="1" fill="#000000" fill-opacity="0"></use><g><use xlink:href="#eup9D2ymS" opacity="1" fill-opacity="0" stroke="#000000" stroke-width="1" stroke-opacity="0"></use></g></g></g></g></svg>