<?xml version="1.0" encoding="UTF-8" standalone="no"?>
<!DOCTYPE svg PUBLIC "-//W3C//DTD SVG 1.1//EN" "http://www.w3.org/Graphics/SVG/1.1/DTD/svg11.dtd">
<svg version="1.1" xmlns="http://www.w3.org/2000/svg" xmlns:xlink="http://www.w3.org/1999/xlink" preserveAspectRatio="xMidYMid meet" viewBox="0 0 640 640" width="640" height="640"><defs><path d="M320 3C306.32 3 295.23 14.09 295.23 27.77C295.23 45.6 295.23 134.75 295.23 295.23C134.75 295.23 45.6 295.23 27.77 295.23C14.09 295.23 3 306.32 3 320C3 333.68 14.09 344.77 27.77 344.77C45.6 344.77 134.75 344.77 295.23 344.77C295.23 505.25 295.23 594.4 295.23 612.23C295.23 625.91 306.32 637 320 637C333.68 637 344.77 625.91 344.77 612.23C344.77 594.4 344.77 505.25 344.77 344.77C505.25 344.77 594.4 344.77 612.23 344.77C625.91 344.77 637 333.68 637 320C637 306.32 625.91 295.23 612.23 295.23C576.57 295.23 487.42 295.23 344.77 295.23C344.77 134.75 344.77 45.6 344.77 27.77C344.77 14.09 333.68 3 320 3Z" id="a32HcRrUCG"></path><path d="M320 3C306.32 3 295.23 14.09 295.23 27.77C295.23 45.6 295.23 134.75 295.23 295.23C134.75 295.23 45.6 295.23 27.77 295.23C14.09 295.23 3 306.32 3 320C3 333.68 14.09 344.77 27.77 344.77C45.6 344.77 134.75 344.77 295.23 344.77C295.23 505.25 295.23 594.4 295.23 612.23C295.23 625.91 306.32 637 320 637C333.68 637 344.77 625.91 344.77 612.23C344.77 594.4 344.77 505.25 344.77 344.77C505.25 344.77 594.4 344.77 612.23 344.77C625.91 344.77 637 333.68 637 320C637 306.32 625.91 295.23 612.23 295.23C576.57 295.23 487.42 295.23 344.77 295.23C344.77 134.75 344.77 45.6 344.77 27.77C344.77 14.09 333.68 3 320 3Z" id="f3ln8xnyS"></path><path d="M320 3C306.32 3 295.23 14.09 295.23 27.77C295.23 45.6 295.23 134.75 295.23 295.23C134.75 295.23 45.6 295.23 27.77 295.23C14.09 295.23 3 306.32 3 320C3 333.68 14.09 344.77 27.77 344.77C45.6 344.77 134.75 344.77 295.23 344.77C295.23 505.25 295.23 594.4 295.23 612.23C295.23 625.91 306.32 637 320 637C333.68 637 344.77 625.91 344.77 612.23C344.77 594.4 344.77 505.25 344.77 344.77C505.25 344.77 594.4 344.77 612.23 344.77C625.91 344.77 637 333.68 637 320C637 306.32 625.91 295.23 612.23 295.23C576.57 295.23 487.42 295.23 344.77 295.23C344.77 134.75 344.77 45.6 344.77 27.77C344.77 14.09 333.68 3 320 3Z" id="eDoNkMIHv"></path><path d="M320 3C306.32 3 295.23 14.09 295.23 27.77C295.23 45.6 295.23 134.75 295.23 295.23C134.75 295.23 45.6 295.23 27.77 295.23C14.09 295.23 3 306.32 3 320C3 333.68 14.09 344.77 27.77 344.77C45.6 344.77 134.75 344.77 295.23 344.77C295.23 505.25 295.23 594.4 295.23 612.23C295.23 625.91 306.32 637 320 637C333.68 637 344.77 625.91 344.77 612.23C344.77 594.4 344.77 505.25 344.77 344.77C505.25 344.77 594.4 344.77 612.23 344.77C625.91 344.77 637 333.68 637 320C637 306.32 625.91 295.23 612.23 295.23C576.57 295.23 487.42 295.23 344.77 295.23C344.77 134.75 344.77 45.6 344.77 27.77C344.77 14.09 333.68 3 320 3Z" id="bTFo8h2Cw"></path></defs><g><g><g><use xlink:href="#a32HcRrUCG" opacity="1" fill="#000000" fill-opacity="1"></use><g><use xlink:href="#a32HcRrUCG" opacity="1" fill-opacity="0" stroke="#000000" stroke-width="1" stroke-opacity="0"></use></g></g><g><use xlink:href="#f3ln8xnyS" opacity="1" fill="#000000" fill-opacity="0"></use><g><use xlink:href="#f3ln8xnyS" opacity="1" fill-opacity="0" stroke="#000000" stroke-width="8" stroke-opacity="0"></use></g></g><g><use xlink:href="#eDoNkMIHv" opacity="1" fill="#000000" fill-opacity="0"></use><g><use xlink:href="#eDoNkMIHv" opacity="1" fill-opacity="0" stroke="#000000" stroke-width="1" stroke-opacity="0"></use></g></g><g><use xlink:href="#bTFo8h2Cw" opacity="1" fill="#000000" fill-opacity="0"></use><g><use xlink:href="#bTFo8h2Cw" opacity="1" fill-opacity="0" stroke="#000000" stroke-width="8" stroke-opacity="1"></use></g></g></g></g></svg>