<?xml version="1.0" encoding="UTF-8" standalone="no"?>
<!DOCTYPE svg PUBLIC "-//W3C//DTD SVG 1.1//EN" "http://www.w3.org/Graphics/SVG/1.1/DTD/svg11.dtd">
<svg version="1.1" xmlns="http://www.w3.org/2000/svg" xmlns:xlink="http://www.w3.org/1999/xlink" preserveAspectRatio="xMidYMid meet" viewBox="-1 25.891488687083843 324.0000693052886 270.2170226258323" width="320" height="266.22"><defs><path d="M199.32 32C196.02 28.7 191.63 26.89 186.94 26.89C182.25 26.89 177.85 28.7 174.55 32C173.5 33.05 165.11 41.45 164.06 42.5C160.76 45.79 158.95 50.19 158.95 54.88C158.95 59.57 160.76 64.12 164.06 67.41C168.55 71.91 191.03 94.44 231.48 134.98C102.96 134.98 31.57 134.98 17.29 134.98C7.63 134.98 0 142.54 0 152.2C0 153.68 0 165.55 0 167.03C0 176.69 7.63 185.01 17.29 185.01C31.62 185.01 103.27 185.01 232.24 185.01C191.33 225.78 168.61 248.43 164.06 252.96C160.77 256.26 158.95 260.54 158.95 265.23C158.95 269.91 160.77 274.25 164.06 277.55C165.11 278.6 173.51 286.97 174.55 288.01C177.85 291.31 182.25 293.11 186.94 293.11C191.63 293.11 196.03 291.29 199.32 287.99C210.88 276.43 303.33 183.98 314.89 172.43C318.19 169.12 320.01 164.7 320 160C320.01 155.29 318.19 150.87 314.89 147.57C291.77 124.45 210.88 43.56 199.32 32Z" id="b1UfQypFqR"></path></defs><g><g><use xlink:href="#b1UfQypFqR" opacity="1" fill="#ffffff" fill-opacity="1"></use><g><use xlink:href="#b1UfQypFqR" opacity="1" fill-opacity="0" stroke="#000000" stroke-width="1" stroke-opacity="0"></use></g></g></g></svg>