<?xml version="1.0" encoding="UTF-8" standalone="no"?>
<!DOCTYPE svg PUBLIC "-//W3C//DTD SVG 1.1//EN" "http://www.w3.org/Graphics/SVG/1.1/DTD/svg11.dtd">
<svg version="1.1" xmlns="http://www.w3.org/2000/svg" xmlns:xlink="http://www.w3.org/1999/xlink" preserveAspectRatio="xMidYMid meet" viewBox="-1 52.33296875 324.0002343820315 217.3332812500001" width="320" height="213.33"><defs><path d="M218.05 55.29C215.44 52.68 211.22 52.68 208.62 55.29C206.02 57.89 206.02 62.11 208.62 64.71C214.53 70.62 244.07 100.16 297.24 153.33C122.9 153.33 26.04 153.33 6.67 153.33C2.98 153.33 0 156.32 0 160C0 163.68 2.98 166.67 6.67 166.67C26.04 166.67 122.9 166.67 297.24 166.67C244.07 219.84 214.53 249.38 208.62 255.29C206.02 257.89 206.02 262.11 208.62 264.71C209.92 266.02 211.63 266.67 213.33 266.67C215.04 266.67 216.74 266.02 218.05 264.71C228.05 254.71 308.05 174.71 318.05 164.71C320.65 162.11 320.65 157.89 318.05 155.29C298.05 135.29 228.05 65.29 218.05 55.29Z" id="a5Lj6hxElC"></path></defs><g><g><use xlink:href="#a5Lj6hxElC" opacity="1" fill="#ffffff" fill-opacity="1"></use><g><use xlink:href="#a5Lj6hxElC" opacity="1" fill-opacity="0" stroke="#000000" stroke-width="1" stroke-opacity="0"></use></g></g></g></svg>